SplineFontDB: 3.2
FontName: ProggyVectorDotted
FullName: ProggyVectorDotted
FamilyName: ProggyVectorDotted
Weight: Book
Copyright: Copyright (c) 2019, 2023 Tristan Grimmer\nCopyright (c) 2018 Source Foundry Authors\nCopyright (c) 2003 by Bitstream, Inc. All Rights Reserved.\n\n
Version: 1.1.7
ItalicAngle: 0
UnderlinePosition: -119
UnderlineWidth: 35
Ascent: 819
Descent: 205
InvalidEm: 0
sfntRevision: 0x00010000
LayerCount: 2
Layer: 0 1 "Back" 1
Layer: 1 1 "Fore" 0
XUID: [1021 494 1705864578 11360]
StyleMap: 0x0040
FSType: 0
OS2Version: 2
OS2_WeightWidthSlopeOnly: 0
OS2_UseTypoMetrics: 0
CreationTime: 1697355633
ModificationTime: 1697391540
PfmFamily: 49
TTFWeight: 400
TTFWidth: 5
LineGap: 143
VLineGap: 0
Panose: 0 0 0 9 0 0 0 0 0 0
OS2TypoAscent: 950
OS2TypoAOffset: 0
OS2TypoDescent: -328
OS2TypoDOffset: 0
OS2TypoLinegap: 143
OS2WinAscent: 950
OS2WinAOffset: 0
OS2WinDescent: 328
OS2WinDOffset: 0
HheadAscent: 950
HheadAOffset: 0
HheadDescent: -328
HheadDOffset: 0
OS2SubXSize: 650
OS2SubYSize: 700
OS2SubXOff: 47
OS2SubYOff: 140
OS2SupXSize: 650
OS2SupYSize: 700
OS2SupXOff: -164
OS2SupYOff: 480
OS2StrikeYSize: 49
OS2StrikeYPos: 258
OS2CapHeight: 950
OS2XHeight: 526
OS2Vendor: 'Bird'
OS2CodePages: 203f00ff.dffd0000
OS2UnicodeRanges: 00000001.00000000.00000000.00000000
MarkAttachClasses: 1
DEI: 91125
ShortTable: maxp 16
  1
  0
  1805
  418
  30
  0
  0
  1
  0
  0
  0
  0
  0
  0
  0
  0
EndShort

StartChar: .notdef
Encoding: 1114112 -1 0
Width: 614
GlyphClass: 1
Flags: W
LayerCount: 2
Fore
SplineSet
150 97 m 1,0,1
 225 97 225 97 450 97 c 1,2,3
 450 218 450 218 450 582 c 1,4,5
 375 582 375 582 150 582 c 1,6,7
 150 461 150 461 150 97 c 1,0,1
100 632 m 1,8,9
 200 632 200 632 500 632 c 1,10,11
 500 486 500 486 500 47 c 1,12,13
 400 47 400 47 100 47 c 1,14,15
 100 193 100 193 100 632 c 1,8,9
EndSplineSet
Validated: 1
EndChar

StartChar: exclam
Encoding: 33 33 4
Width: 614
GlyphClass: 1
Flags: W
LayerCount: 2
Fore
SplineSet
267 265 m 1,0,1
 265 308 265 308 262 373 c 0,2,3
 258 438 258 438 255 500 c 0,4,5
 254 534 254 534 252 564 c 256,6,7
 250 594 250 594 249 617 c 0,8,9
 249 709 249 709 249 740 c 1,10,11
 334 740 334 740 362 740 c 1,12,13
 362 658 362 658 362 617 c 0,14,15
 361 594 361 594 360 564 c 256,16,17
 359 534 359 534 357 500 c 0,18,19
 355 438 355 438 352 373 c 256,20,21
 349 308 349 308 347 265 c 1,22,23
 287 265 287 265 267 265 c 1,0,1
360 18 m 256,24,25
 349 8 349 8 337 4 c 0,26,27
 324 -1 324 -1 309 -1 c 256,28,29
 294 -1 294 -1 281 4 c 0,30,31
 268 8 268 8 258 18 c 0,32,33
 247 28 247 28 242 41 c 256,34,35
 237 54 237 54 237 69 c 0,36,37
 237 85 237 85 242 98 c 256,38,39
 247 111 247 111 258 121 c 0,40,41
 268 131 268 131 281 135 c 0,42,43
 294 140 294 140 309 140 c 256,44,45
 324 140 324 140 337 135 c 0,46,47
 349 131 349 131 360 121 c 256,48,49
 371 111 371 111 376 98 c 0,50,51
 382 85 382 85 382 69 c 0,52,53
 382 54 382 54 376 41 c 0,54,55
 371 28 371 28 360 18 c 256,24,25
EndSplineSet
Validated: 1
EndChar

StartChar: quotedbl
Encoding: 34 34 5
Width: 614
GlyphClass: 1
Flags: W
LayerCount: 2
Fore
SplineSet
169 441 m 1,0,1
 169 636 169 636 169 701 c 1,2,3
 234 701 234 701 256 701 c 1,4,5
 256 506 256 506 256 441 c 1,6,7
 191 441 191 441 169 441 c 1,0,1
360 441 m 1,8,9
 360 636 360 636 360 701 c 1,10,11
 426 701 426 701 447 701 c 1,12,13
 447 506 447 506 447 441 c 1,14,15
 382 441 382 441 360 441 c 1,8,9
EndSplineSet
Validated: 1
EndChar

StartChar: numbersign
Encoding: 35 35 6
Width: 614
GlyphClass: 1
Flags: W
LayerCount: 2
Fore
SplineSet
78 5 m 1,0,1
 88 42 88 42 104 102 c 0,2,3
 120 163 120 163 130 200 c 1,4,5
 33 200 33 200 1 200 c 1,6,7
 1 253 1 253 1 271 c 1,8,9
 100 271 100 271 150 271 c 1,10,11
 157 301 157 301 170 350 c 0,12,13
 184 399 184 399 191 428 c 1,14,15
 92 428 92 428 58 428 c 1,16,17
 58 483 58 483 58 501 c 1,18,19
 159 501 159 501 210 501 c 1,20,21
 220 538 220 538 236 598 c 256,22,23
 252 658 252 658 262 695 c 1,24,25
 315 695 315 695 342 695 c 1,26,27
 332 658 332 658 316 598 c 256,28,29
 300 538 300 538 290 501 c 1,30,31
 372 501 372 501 413 501 c 1,32,33
 423 538 423 538 439 598 c 256,34,35
 455 658 455 658 465 695 c 1,36,37
 518 695 518 695 545 695 c 1,38,39
 535 658 535 658 519 598 c 256,40,41
 503 538 503 538 493 501 c 1,42,43
 584 501 584 501 614 501 c 1,44,45
 614 446 614 446 614 428 c 1,46,47
 521 428 521 428 474 428 c 1,48,49
 466 399 466 399 453 350 c 256,50,51
 440 301 440 301 432 271 c 1,52,53
 526 271 526 271 557 271 c 1,54,55
 557 218 557 218 557 200 c 1,56,57
 461 200 461 200 413 200 c 1,58,59
 403 163 403 163 387 102 c 0,60,61
 370 42 370 42 360 5 c 1,62,63
 307 5 307 5 281 5 c 1,64,65
 291 42 291 42 307 102 c 0,66,67
 323 163 323 163 333 200 c 1,68,69
 251 200 251 200 210 200 c 1,70,71
 200 163 200 163 184 102 c 0,72,73
 168 42 168 42 158 5 c 1,74,75
 98 5 98 5 78 5 c 1,0,1
229 266 m 1,76,77
 311 266 311 266 352 266 c 1,78,79
 360 295 360 295 373 345 c 0,80,81
 387 395 387 395 394 424 c 1,82,83
 312 424 312 424 271 424 c 1,84,85
 264 395 264 395 250 345 c 0,86,87
 237 295 237 295 229 266 c 1,76,77
EndSplineSet
Validated: 1
EndChar

StartChar: dollar
Encoding: 36 36 7
Width: 614
GlyphClass: 1
Flags: W
LayerCount: 2
Fore
SplineSet
279 -19 m 1,0,1
 278 -9 278 -9 278 10 c 0,2,3
 277 28 277 28 276 39 c 0,4,5
 273 40 273 40 265 41 c 0,6,7
 258 41 258 41 244 43 c 256,8,9
 230 45 230 45 217 47 c 0,10,11
 204 50 204 50 190 52 c 0,12,13
 167 57 167 57 142 64 c 0,14,15
 117 72 117 72 91 82 c 1,16,17
 91 139 91 139 91 167 c 1,18,19
 105 159 105 159 118 152 c 0,20,21
 130 146 130 146 142 140 c 0,22,23
 155 135 155 135 167 130 c 0,24,25
 178 126 178 126 191 122 c 0,26,27
 211 114 211 114 232 110 c 256,28,29
 253 106 253 106 276 105 c 1,30,31
 276 250 276 250 276 322 c 1,32,33
 254 325 254 325 235 330 c 256,34,35
 216 335 216 335 200 342 c 256,36,37
 184 349 184 349 169 358 c 256,38,39
 154 367 154 367 141 378 c 0,40,41
 116 399 116 399 104 428 c 0,42,43
 91 456 91 456 91 492 c 256,44,45
 91 528 91 528 104 558 c 0,46,47
 118 587 118 587 144 609 c 0,48,49
 173 633 173 633 206 647 c 0,50,51
 239 662 239 662 276 665 c 1,52,53
 276 708 276 708 276 722 c 1,54,55
 338 722 338 722 358 722 c 1,56,57
 358 684 358 684 358 665 c 0,58,59
 358 664 358 664 364 662 c 0,60,61
 369 661 369 661 381 658 c 0,62,63
 392 656 392 656 403 654 c 256,64,65
 414 652 414 652 423 650 c 0,66,67
 433 649 433 649 443 647 c 0,68,69
 454 644 454 644 464 642 c 256,70,71
 474 640 474 640 484 637 c 256,72,73
 494 634 494 634 505 631 c 1,74,75
 505 577 505 577 505 550 c 1,76,77
 494 555 494 555 483 560 c 0,78,79
 471 565 471 565 460 569 c 0,80,81
 448 574 448 574 439 577 c 0,82,83
 430 579 430 579 423 581 c 0,84,85
 414 583 414 583 406 585 c 256,86,87
 398 587 398 587 390 589 c 0,88,89
 382 590 382 590 374 591 c 0,90,91
 366 591 366 591 358 592 c 1,92,93
 358 457 358 457 358 390 c 1,94,95
 408 382 408 382 443 367 c 256,96,97
 478 352 478 352 499 331 c 0,98,99
 526 308 526 308 539 279 c 0,100,101
 553 249 553 249 553 214 c 0,102,103
 553 178 553 178 538 147 c 0,104,105
 524 117 524 117 495 92 c 0,106,107
 464 68 464 68 430 54 c 0,108,109
 396 41 396 41 358 39 c 1,110,111
 358 -5 358 -5 358 -19 c 1,112,113
 298 -19 298 -19 279 -19 c 1,0,1
276 401 m 1,114,115
 276 530 276 530 276 595 c 1,116,117
 253 593 253 593 235 583 c 0,118,119
 217 574 217 574 205 558 c 0,120,121
 195 543 195 543 189 528 c 256,122,123
 181 508 181 508 181 497 c 0,124,125
 181 495 181 495 181 492 c 0,126,127
 180 479 180 479 186 464 c 0,128,129
 192 450 192 450 205 433 c 1,130,131
 220 421 220 421 238 413 c 256,132,133
 256 405 256 405 276 401 c 1,114,115
358 310 m 1,134,135
 358 174 358 174 358 105 c 1,136,137
 386 110 386 110 407 118 c 0,138,139
 427 125 427 125 440 135 c 0,140,141
 456 154 456 154 463 176 c 0,142,143
 471 197 471 197 471 221 c 0,144,145
 471 240 471 240 463 257 c 0,146,147
 456 274 456 274 440 289 c 0,148,149
 425 299 425 299 404 304 c 0,150,151
 384 310 384 310 358 310 c 1,134,135
EndSplineSet
Validated: 1
EndChar

StartChar: percent
Encoding: 37 37 8
Width: 614
GlyphClass: 1
Flags: W
LayerCount: 2
Fore
SplineSet
209 437 m 0,0,1
 197 432 197 432 183 429 c 0,2,3
 169 427 169 427 155 427 c 0,4,5
 140 427 140 427 127 430 c 256,6,7
 114 433 114 433 101 437 c 0,8,9
 89 442 89 442 78 449 c 0,10,11
 68 455 68 455 58 464 c 0,12,13
 38 482 38 482 29 505 c 0,14,15
 19 527 19 527 19 555 c 0,16,17
 19 573 19 573 24 590 c 0,18,19
 28 607 28 607 37 622 c 0,20,21
 46 636 46 636 58 648 c 0,22,23
 71 659 71 659 86 668 c 0,24,25
 101 676 101 676 119 680 c 0,26,27
 136 684 136 684 156 684 c 0,28,29
 169 684 169 684 183 681 c 0,30,31
 196 678 196 678 208 674 c 0,32,33
 220 669 220 669 231 662 c 256,34,35
 242 655 242 655 252 646 c 256,36,37
 262 637 262 637 269 627 c 256,38,39
 276 617 276 617 282 605 c 0,40,41
 287 594 287 594 289 581 c 0,42,43
 292 569 292 569 292 556 c 0,44,45
 292 528 292 528 282 505 c 0,46,47
 273 482 273 482 253 464 c 0,48,49
 244 455 244 455 232 449 c 0,50,51
 221 443 221 443 209 437 c 0,0,1
127 497 m 0,52,53
 133 494 133 494 140 493 c 256,54,55
 147 492 147 492 155 492 c 0,56,57
 168 492 168 492 180 496 c 0,58,59
 192 501 192 501 202 510 c 0,60,61
 206 514 206 514 209 519 c 0,62,63
 213 524 213 524 216 529 c 0,64,65
 219 535 219 535 221 541 c 0,66,67
 222 548 222 548 222 555 c 0,68,69
 222 568 222 568 217 579 c 256,70,71
 212 590 212 590 202 599 c 256,72,73
 192 608 192 608 180 613 c 0,74,75
 168 617 168 617 155 617 c 0,76,77
 141 617 141 617 129 613 c 0,78,79
 118 609 118 609 108 600 c 256,80,81
 98 591 98 591 93 580 c 256,82,83
 88 569 88 569 88 555 c 256,84,85
 88 541 88 541 93 530 c 256,86,87
 98 519 98 519 108 510 c 0,88,89
 111 506 111 506 116 503 c 0,90,91
 121 499 121 499 127 497 c 0,52,53
514 28 m 0,92,93
 502 22 502 22 488 20 c 0,94,95
 474 17 474 17 460 17 c 0,96,97
 445 17 445 17 431 20 c 0,98,99
 418 23 418 23 406 28 c 0,100,101
 393 32 393 32 382 39 c 0,102,103
 372 46 372 46 362 54 c 0,104,105
 343 73 343 73 333 95 c 0,106,107
 324 118 324 118 324 145 c 0,108,109
 324 164 324 164 328 181 c 0,110,111
 333 197 333 197 342 212 c 256,112,113
 351 227 351 227 363 238 c 0,114,115
 375 250 375 250 390 258 c 0,116,117
 406 266 406 266 423 270 c 0,118,119
 441 274 441 274 460 274 c 0,120,121
 474 274 474 274 487 272 c 0,122,123
 500 269 500 269 512 264 c 0,124,125
 524 260 524 260 535 253 c 256,126,127
 546 246 546 246 556 237 c 0,128,129
 566 227 566 227 573 217 c 256,130,131
 580 207 580 207 586 196 c 0,132,133
 591 184 591 184 594 172 c 0,134,135
 596 159 596 159 596 146 c 0,136,137
 596 119 596 119 586 96 c 0,138,139
 577 74 577 74 557 55 c 0,140,141
 548 47 548 47 537 40 c 256,142,143
 526 33 526 33 514 28 c 0,92,93
431 87 m 256,144,145
 437 85 437 85 444 83 c 0,146,147
 451 82 451 82 459 82 c 0,148,149
 473 82 473 82 484 87 c 0,150,151
 496 91 496 91 506 100 c 0,152,153
 510 104 510 104 513 109 c 0,154,155
 517 114 517 114 520 120 c 0,156,157
 523 125 523 125 525 132 c 0,158,159
 526 138 526 138 526 145 c 0,160,161
 526 158 526 158 521 169 c 256,162,163
 516 180 516 180 506 189 c 0,164,165
 496 199 496 199 484 203 c 0,166,167
 472 208 472 208 459 208 c 0,168,169
 445 208 445 208 433 204 c 0,170,171
 422 200 422 200 412 190 c 0,172,173
 402 181 402 181 397 170 c 256,174,175
 392 159 392 159 392 145 c 0,176,177
 392 132 392 132 397 121 c 256,178,179
 402 110 402 110 412 100 c 0,180,181
 415 97 415 97 420 93 c 256,182,183
 425 89 425 89 431 87 c 256,144,145
63 18 m 1,184,185
 89 62 89 62 123 119 c 0,186,187
 157 177 157 177 194 240 c 0,188,189
 264 358 264 358 336 480 c 0,190,191
 409 603 409 603 457 684 c 1,192,193
 520 684 520 684 552 684 c 1,194,195
 526 640 526 640 492 583 c 0,196,197
 459 526 459 526 421 462 c 0,198,199
 351 344 351 344 279 222 c 256,200,201
 207 100 207 100 159 18 c 1,202,203
 87 18 87 18 63 18 c 1,184,185
EndSplineSet
Validated: 1
EndChar

StartChar: ampersand
Encoding: 38 38 9
Width: 614
GlyphClass: 1
Flags: W
LayerCount: 2
Fore
SplineSet
400 603 m 0,0,1
 400 590 400 590 400 576 c 0,2,3
 400 563 400 563 396 548 c 0,4,5
 390 522 390 522 366 490 c 0,6,7
 342 459 342 459 283 418 c 1,8,9
 316 376 316 376 342 341 c 0,10,11
 369 307 369 307 389 281 c 0,12,13
 409 254 409 254 432 226 c 0,14,15
 455 197 455 197 481 164 c 1,16,17
 496 182 496 182 504 204 c 0,18,19
 513 225 513 225 516 250 c 0,20,21
 519 274 519 274 519 301 c 0,22,23
 519 316 519 316 519 318 c 0,24,25
 519 322 519 322 519 327 c 0,26,27
 520 333 520 333 518 354 c 0,28,29
 518 357 518 357 519 357 c 256,30,31
 520 357 520 357 521 357 c 0,32,33
 547 357 547 357 600 357 c 1,34,35
 600 303 600 303 595 263 c 256,36,37
 590 223 590 223 580 197 c 0,38,39
 570 170 570 170 556 148 c 256,40,41
 542 126 542 126 525 108 c 1,42,43
 541 88 541 88 565 57 c 0,44,45
 589 27 589 27 610 0 c 1,46,47
 567 0 567 0 543 -1 c 0,48,49
 520 -1 520 -1 515 -1 c 256,50,51
 510 -1 510 -1 498 12 c 0,52,53
 485 25 485 25 465 51 c 1,54,55
 426 20 426 20 380 4 c 0,56,57
 333 -13 333 -13 280 -13 c 0,58,59
 277 -13 277 -13 272 -13 c 0,60,61
 221 -13 221 -13 178 3 c 256,62,63
 135 19 135 19 99 50 c 0,64,65
 64 82 64 82 46 119 c 0,66,67
 29 156 29 156 29 199 c 0,68,69
 29 209 29 209 29 219 c 0,70,71
 30 229 30 229 32 240 c 0,72,73
 42 296 42 296 76 343 c 0,74,75
 109 391 109 391 167 430 c 1,76,77
 124 463 124 463 102 496 c 0,78,79
 81 529 81 529 81 562 c 0,80,81
 82 611 82 611 101 645 c 256,82,83
 120 679 120 679 158 698 c 0,84,85
 180 710 180 710 204 715 c 0,86,87
 227 721 227 721 252 721 c 0,88,89
 268 721 268 721 285 718 c 0,90,91
 303 716 303 716 319 711 c 0,92,93
 365 698 365 698 383 668 c 0,94,95
 400 638 400 638 400 603 c 0,0,1
222 72 m 256,96,97
 238 66 238 66 256 62 c 256,98,99
 274 58 274 58 293 58 c 0,100,101
 304 58 304 58 315 60 c 0,102,103
 326 61 326 61 338 65 c 0,104,105
 351 68 351 68 362 72 c 0,106,107
 374 76 374 76 383 81 c 0,108,109
 389 84 389 84 395 87 c 0,110,111
 400 90 400 90 406 93 c 0,112,113
 411 96 411 96 414 98 c 0,114,115
 417 101 417 101 417 101 c 2,116,117
 417 102 417 102 418 103 c 0,118,119
 420 103 420 103 422 104 c 1,120,121
 396 138 396 138 376 164 c 0,122,123
 355 189 355 189 340 209 c 0,124,125
 326 227 326 227 315 242 c 0,126,127
 304 256 304 256 294 267 c 0,128,129
 273 295 273 295 256 317 c 0,130,131
 239 338 239 338 212 374 c 1,132,133
 188 356 188 356 170 339 c 256,134,135
 152 322 152 322 139 305 c 0,136,137
 128 286 128 286 122 265 c 0,138,139
 117 244 117 244 117 222 c 0,140,141
 117 187 117 187 129 158 c 256,142,143
 141 129 141 129 166 105 c 0,144,145
 177 95 177 95 192 86 c 0,146,147
 206 78 206 78 222 72 c 256,96,97
293 517 m 0,148,149
 324 544 324 544 324 587 c 0,150,151
 324 631 324 631 292 642 c 0,152,153
 272 649 272 649 253 649 c 0,154,155
 246 649 246 649 241 648 c 256,156,157
 212 643 212 643 195 628 c 0,158,159
 179 614 179 614 174 595 c 0,160,161
 172 587 172 587 172 577 c 0,162,163
 173 564 173 564 175 553 c 256,164,165
 179 531 179 531 200 512 c 0,166,167
 219 495 219 495 237 477 c 1,168,169
 249 484 249 484 263 494 c 0,170,171
 278 504 278 504 293 517 c 0,148,149
EndSplineSet
Validated: 1
EndChar

StartChar: quotesingle
Encoding: 39 39 10
Width: 614
GlyphClass: 1
Flags: W
LayerCount: 2
Fore
SplineSet
266 442 m 1,0,1
 266 638 266 638 266 703 c 1,2,3
 335 703 335 703 358 703 c 1,4,5
 358 508 358 508 358 442 c 1,6,7
 289 442 289 442 266 442 c 1,0,1
EndSplineSet
Validated: 1
EndChar

StartChar: parenleft
Encoding: 40 40 11
Width: 614
GlyphClass: 1
Flags: W
LayerCount: 2
Fore
SplineSet
397 -82 m 1,0,1
 344 -82 344 -82 317 -82 c 1,2,3
 279 -25 279 -25 251 29 c 0,4,5
 222 84 222 84 205 136 c 0,6,7
 186 190 186 190 177 242 c 0,8,9
 168 295 168 295 168 347 c 256,10,11
 168 399 168 399 177 451 c 0,12,13
 186 504 186 504 205 558 c 0,14,15
 214 585 214 585 226 612 c 256,16,17
 238 639 238 639 252 666 c 0,18,19
 266 692 266 692 282 720 c 0,20,21
 298 747 298 747 317 775 c 1,22,23
 371 775 371 775 397 775 c 1,24,25
 380 747 380 747 365 720 c 256,26,27
 350 693 350 693 339 667 c 0,28,29
 327 641 327 641 317 614 c 0,30,31
 307 588 307 588 299 562 c 0,32,33
 283 508 283 508 274 454 c 256,34,35
 265 400 265 400 265 347 c 0,36,37
 265 240 265 240 298 133 c 256,38,39
 331 26 331 26 397 -82 c 1,0,1
EndSplineSet
Validated: 1
EndChar

StartChar: parenright
Encoding: 41 41 12
Width: 614
GlyphClass: 1
Flags: W
LayerCount: 2
Fore
SplineSet
285 -77 m 1,0,1
 231 -77 231 -77 205 -77 c 1,2,3
 238 -23 238 -23 263 31 c 0,4,5
 287 84 287 84 304 138 c 0,6,7
 312 164 312 164 318 190 c 256,8,9
 324 216 324 216 329 243 c 0,10,11
 333 270 333 270 335 297 c 0,12,13
 337 325 337 325 337 352 c 0,14,15
 337 406 337 406 329 460 c 0,16,17
 320 513 320 513 304 566 c 0,18,19
 296 592 296 592 286 618 c 256,20,21
 276 644 276 644 264 671 c 256,22,23
 252 698 252 698 237 725 c 0,24,25
 222 753 222 753 205 780 c 1,26,27
 258 780 258 780 285 780 c 1,28,29
 323 724 323 724 351 670 c 0,30,31
 380 616 380 616 397 563 c 0,32,33
 416 509 416 509 425 457 c 0,34,35
 434 404 434 404 434 352 c 256,36,37
 434 300 434 300 425 247 c 256,38,39
 416 194 416 194 397 140 c 0,40,41
 379 87 379 87 351 33 c 0,42,43
 322 -22 322 -22 285 -77 c 1,0,1
EndSplineSet
Validated: 1
EndChar

StartChar: asterisk
Encoding: 42 42 13
Width: 614
GlyphClass: 1
Flags: W
LayerCount: 2
Fore
SplineSet
46 452 m 1,0,1
 55 465 55 465 68 486 c 0,2,3
 82 507 82 507 90 520 c 1,4,5
 219 450 219 450 262 426 c 1,6,7
 262 566 262 566 262 612 c 1,8,9
 327 612 327 612 349 612 c 1,10,11
 349 488 349 488 349 426 c 1,12,13
 382 444 382 444 437 474 c 256,14,15
 492 504 492 504 525 521 c 1,16,17
 534 508 534 508 547 486 c 0,18,19
 561 465 561 465 569 452 c 1,20,21
 536 434 536 434 481 404 c 256,22,23
 426 374 426 374 393 356 c 1,24,25
 426 338 426 338 481 308 c 0,26,27
 535 278 535 278 568 259 c 1,28,29
 560 246 560 246 546 225 c 0,30,31
 533 205 533 205 524 191 c 1,32,33
 491 209 491 209 437 239 c 0,34,35
 382 268 382 268 349 286 c 1,36,37
 349 139 349 139 349 90 c 1,38,39
 326 90 326 90 318 90 c 0,40,41
 308 90 308 90 305 90 c 0,42,43
 273 90 273 90 262 90 c 1,44,45
 262 151 262 151 262 171 c 0,46,47
 262 247 262 247 262 286 c 1,48,49
 218 263 218 263 170 237 c 0,50,51
 121 211 121 211 88 194 c 1,52,53
 80 207 80 207 67 227 c 0,54,55
 54 248 54 248 46 261 c 1,56,57
 78 279 78 279 133 309 c 0,58,59
 187 339 187 339 219 356 c 1,60,61
 187 374 187 374 133 404 c 0,62,63
 78 434 78 434 46 452 c 1,0,1
EndSplineSet
Validated: 1
EndChar

StartChar: plus
Encoding: 43 43 14
Width: 614
GlyphClass: 1
Flags: W
LayerCount: 2
Fore
SplineSet
264 100 m 1,0,1
 264 256 264 256 264 308 c 1,2,3
 97 308 97 308 41 308 c 1,4,5
 41 368 41 368 41 388 c 1,6,7
 208 388 208 388 264 388 c 1,8,9
 264 545 264 545 264 597 c 1,10,11
 327 597 327 597 348 597 c 1,12,13
 348 440 348 440 348 388 c 1,14,15
 517 388 517 388 573 388 c 1,16,17
 573 328 573 328 573 308 c 1,18,19
 404 308 404 308 348 308 c 1,20,21
 348 152 348 152 348 100 c 1,22,23
 285 100 285 100 264 100 c 1,0,1
EndSplineSet
Validated: 1
EndChar

StartChar: comma
Encoding: 44 44 15
Width: 614
GlyphClass: 1
Flags: W
LayerCount: 2
Fore
SplineSet
265 -59 m 0,0,1
 274 -48 274 -48 281 -33 c 256,2,3
 288 -18 288 -18 295 0 c 1,4,5
 286 0 286 0 276 5 c 0,6,7
 266 9 266 9 256 19 c 256,8,9
 246 29 246 29 241 42 c 0,10,11
 237 55 237 55 237 71 c 0,12,13
 237 86 237 86 241 99 c 0,14,15
 246 112 246 112 257 122 c 256,16,17
 268 132 268 132 280 137 c 0,18,19
 293 141 293 141 308 141 c 0,20,21
 324 141 324 141 336 137 c 0,22,23
 349 132 349 132 359 122 c 0,24,25
 370 112 370 112 376 99 c 0,26,27
 381 86 381 86 381 71 c 0,28,29
 381 67 381 67 381 65 c 0,30,31
 381 54 381 54 380 44 c 256,32,33
 379 34 379 34 378 26 c 0,34,35
 376 16 376 16 375 8 c 0,36,37
 373 0 373 0 371 -6 c 0,38,39
 360 -35 360 -35 345 -61 c 0,40,41
 329 -86 329 -86 310 -108 c 0,42,43
 291 -129 291 -129 274 -145 c 256,44,45
 257 -161 257 -161 241 -171 c 1,46,47
 235 -163 235 -163 231 -157 c 0,48,49
 226 -151 226 -151 222 -145 c 0,50,51
 218 -140 218 -140 214 -134 c 256,52,53
 210 -128 210 -128 205 -121 c 1,54,55
 227 -102 227 -102 242 -86 c 0,56,57
 257 -71 257 -71 265 -59 c 0,0,1
EndSplineSet
Validated: 1
EndChar

StartChar: hyphen
Encoding: 45 45 16
Width: 614
GlyphClass: 1
Flags: W
LayerCount: 2
Fore
SplineSet
83 308 m 1,0,1
 83 369 83 369 83 389 c 1,2,3
 383 389 383 389 534 389 c 1,4,5
 534 374 534 374 534 349 c 0,6,7
 535 324 535 324 535 308 c 1,8,9
 196 308 196 308 83 308 c 1,0,1
EndSplineSet
Validated: 1
EndChar

StartChar: period
Encoding: 46 46 17
Width: 614
GlyphClass: 1
Flags: W
LayerCount: 2
Fore
SplineSet
360 18 m 0,0,1
 350 8 350 8 337 4 c 0,2,3
 325 -1 325 -1 309 -1 c 0,4,5
 294 -1 294 -1 281 4 c 0,6,7
 269 8 269 8 258 18 c 256,8,9
 247 28 247 28 242 41 c 256,10,11
 237 54 237 54 237 70 c 0,12,13
 237 85 237 85 242 98 c 256,14,15
 247 111 247 111 258 121 c 256,16,17
 269 131 269 131 281 136 c 0,18,19
 294 141 294 141 309 141 c 0,20,21
 325 141 325 141 337 136 c 0,22,23
 350 131 350 131 360 121 c 0,24,25
 371 111 371 111 377 98 c 0,26,27
 382 85 382 85 382 70 c 0,28,29
 382 54 382 54 377 41 c 0,30,31
 371 28 371 28 360 18 c 0,0,1
EndSplineSet
Validated: 1
EndChar

StartChar: slash
Encoding: 47 47 18
Width: 614
GlyphClass: 1
Flags: W
LayerCount: 2
Fore
SplineSet
65 -48 m 1,0,1
 359 545 359 545 458 742 c 1,2,3
 529 742 529 742 553 742 c 1,4,5
 258 150 258 150 160 -48 c 1,6,7
 88 -48 88 -48 65 -48 c 1,0,1
EndSplineSet
Validated: 1
EndChar

StartChar: zero
Encoding: 48 48 19
Width: 614
GlyphClass: 1
Flags: W
LayerCount: 2
Fore
SplineSet
358 300 m 4,0,1
 348 290 348 290 335 285 c 4,2,3
 323 280 323 280 307 280 c 4,4,5
 292 280 292 280 279 285 c 260,6,7
 266 290 266 290 256 300 c 4,8,9
 245 309 245 309 240 322 c 4,10,11
 236 335 236 335 236 351 c 4,12,13
 236 366 236 366 240 379 c 4,14,15
 245 392 245 392 256 402 c 4,16,17
 266 412 266 412 279 417 c 260,18,19
 292 422 292 422 307 422 c 4,20,21
 323 422 323 422 335 417 c 4,22,23
 348 412 348 412 358 402 c 4,24,25
 369 392 369 392 375 380 c 4,26,27
 380 367 380 367 380 351 c 260,28,29
 380 335 380 335 375 322 c 4,30,31
 369 309 369 309 358 300 c 4,0,1
417 8 m 256,32,33
 393 -3 393 -3 366 -8 c 256,34,35
 339 -13 339 -13 308 -13 c 0,36,37
 245 -13 245 -13 198 9 c 256,38,39
 151 31 151 31 120 76 c 0,40,41
 89 120 89 120 74 189 c 0,42,43
 58 258 58 258 58 350 c 256,44,45
 58 442 58 442 74 511 c 256,46,47
 90 580 90 580 121 625 c 256,48,49
 152 670 152 670 199 692 c 0,50,51
 246 715 246 715 308 715 c 0,52,53
 339 715 339 715 366 709 c 0,54,55
 393 704 393 704 417 693 c 256,56,57
 441 682 441 682 461 665 c 256,58,59
 481 648 481 648 497 625 c 0,60,61
 527 579 527 579 543 511 c 0,62,63
 558 442 558 442 558 350 c 0,64,65
 558 259 558 259 543 190 c 0,66,67
 527 122 527 122 497 77 c 0,68,69
 481 53 481 53 461 36 c 256,70,71
 441 19 441 19 417 8 c 256,32,33
198 130 m 0,72,73
 215 97 215 97 243 80 c 256,74,75
 271 63 271 63 308 63 c 0,76,77
 347 63 347 63 374 80 c 0,78,79
 402 97 402 97 419 130 c 0,80,81
 436 162 436 162 444 217 c 0,82,83
 453 272 453 272 453 350 c 0,84,85
 453 429 453 429 444 484 c 0,86,87
 436 539 436 539 419 571 c 0,88,89
 402 604 402 604 374 621 c 0,90,91
 347 637 347 637 308 637 c 0,92,93
 271 637 271 637 243 621 c 0,94,95
 215 604 215 604 198 571 c 256,96,97
 181 538 181 538 172 482 c 0,98,99
 164 427 164 427 164 350 c 0,100,101
 164 274 164 274 172 219 c 0,102,103
 181 164 181 164 198 130 c 0,72,73
EndSplineSet
Validated: 1
EndChar

StartChar: one
Encoding: 49 49 20
Width: 614
GlyphClass: 1
Flags: W
LayerCount: 2
Fore
SplineSet
132 0 m 1,0,1
 132 62 132 62 132 82 c 1,2,3
 240 82 240 82 276 82 c 1,4,5
 276 466 276 466 276 594 c 1,6,7
 244 569 244 569 133 480 c 5,8,9
 132 562 132 562 132 595 c 1,10,11
 239 675 239 675 274 701 c 1,12,13
 344 701 344 701 368 701 c 1,14,15
 368 237 368 237 368 82 c 1,16,17
 474 82 474 82 510 82 c 1,18,19
 510 21 510 21 510 0 c 1,20,21
 227 0 227 0 132 0 c 1,0,1
EndSplineSet
Validated: 1
EndChar

StartChar: two
Encoding: 50 50 21
Width: 614
GlyphClass: 1
Flags: W
LayerCount: 2
Fore
SplineSet
76 0 m 1,0,1
 76 42 76 42 76 63 c 0,2,3
 76 72 76 72 79 79 c 256,4,5
 82 86 82 86 88 92 c 0,6,7
 103 106 103 106 120 123 c 0,8,9
 136 140 136 140 156 159 c 0,10,11
 175 178 175 178 196 199 c 0,12,13
 217 221 217 221 240 244 c 0,14,15
 257 261 257 261 269 274 c 0,16,17
 282 287 282 287 291 296 c 0,18,19
 308 315 308 315 317 323 c 0,20,21
 322 327 322 327 327 333 c 0,22,23
 331 339 331 339 336 344 c 0,24,25
 349 359 349 359 360 372 c 0,26,27
 370 385 370 385 378 395 c 0,28,29
 386 406 386 406 392 416 c 256,30,31
 398 426 398 426 403 436 c 0,32,33
 412 455 412 455 416 473 c 0,34,35
 421 492 421 492 421 510 c 0,36,37
 421 539 421 539 412 562 c 0,38,39
 403 584 403 584 384 601 c 0,40,41
 368 616 368 616 340 626 c 0,42,43
 315 635 315 635 288 635 c 0,44,45
 286 635 286 635 283 635 c 0,46,47
 241 635 241 635 187 613 c 0,48,49
 137 593 137 593 81 562 c 1,50,51
 80 620 80 620 80 649 c 1,52,53
 99 659 99 659 123 671 c 0,54,55
 161 689 161 689 183 697 c 0,56,57
 208 705 208 705 232 709 c 4,58,59
 269 714 269 714 297 714 c 4,60,61
 316 714 316 714 332 712 c 4,62,63
 353 709 353 709 379 701 c 4,64,65
 402 695 402 695 422 684 c 260,66,67
 442 673 442 673 459 659 c 0,68,69
 474 647 474 647 486 632 c 256,70,71
 498 617 498 617 507 599 c 256,72,73
 516 581 516 581 520 561 c 0,74,75
 524 540 524 540 524 518 c 0,76,77
 524 495 524 495 519 472 c 0,78,79
 514 448 514 448 503 425 c 0,80,81
 494 407 494 407 490 402 c 256,82,83
 482 392 482 392 474 380 c 128,-1,84
 466 368 466 368 455 355 c 256,85,86
 444 342 444 342 430 327 c 0,87,88
 423 319 423 319 414 310 c 256,89,90
 405 301 405 301 395 290 c 256,91,92
 385 279 385 279 374 267 c 0,93,94
 362 255 362 255 349 242 c 0,95,96
 340 232 340 232 331 223 c 0,97,98
 322 215 322 215 313 207 c 0,99,100
 304 200 304 200 297 191 c 256,101,102
 290 182 290 182 280 174 c 128,-1,103
 270 166 270 166 260 157 c 0,104,105
 251 148 251 148 241 137 c 256,106,107
 231 126 231 126 217 113 c 0,108,109
 203 99 203 99 186 82 c 1,110,111
 364 82 364 82 542 82 c 1,112,113
 542 20 542 20 542 0 c 1,114,115
 309 0 309 0 76 0 c 1,0,1
EndSplineSet
Validated: 1
EndChar

StartChar: three
Encoding: 51 51 22
Width: 614
GlyphClass: 1
Flags: W
LayerCount: 2
Fore
SplineSet
394 0 m 256,0,1
 370 -7 370 -7 342 -10 c 256,2,3
 314 -13 314 -13 283 -13 c 0,4,5
 270 -13 270 -13 258 -13 c 0,6,7
 246 -12 246 -12 232 -11 c 0,8,9
 219 -10 219 -10 206 -9 c 0,10,11
 193 -7 193 -7 179 -5 c 0,12,13
 168 -4 168 -4 155 0 c 0,14,15
 143 3 143 3 129 6 c 256,16,17
 115 9 115 9 102 13 c 256,18,19
 89 17 89 17 75 22 c 1,20,21
 75 85 75 85 75 117 c 1,22,23
 88 111 88 111 100 105 c 0,24,25
 113 100 113 100 125 95 c 0,26,27
 137 91 137 91 150 86 c 0,28,29
 162 82 162 82 175 79 c 0,30,31
 187 76 187 76 200 73 c 0,32,33
 212 71 212 71 224 70 c 0,34,35
 237 68 237 68 249 67 c 0,36,37
 261 67 261 67 273 67 c 0,38,39
 315 67 315 67 347 75 c 0,40,41
 379 84 379 84 401 101 c 0,42,43
 424 119 424 119 435 144 c 0,44,45
 445 169 445 169 445 202 c 0,46,47
 445 233 445 233 435 258 c 0,48,49
 424 282 424 282 401 300 c 0,50,51
 379 318 379 318 349 327 c 256,52,53
 319 336 319 336 281 336 c 0,54,55
 223 336 223 336 204 336 c 1,56,57
 204 394 204 394 204 414 c 1,58,59
 255 414 255 414 281 414 c 0,60,61
 316 414 316 414 343 421 c 256,62,63
 370 428 370 428 389 442 c 256,64,65
 408 456 408 456 418 477 c 0,66,67
 428 497 428 497 428 524 c 256,68,69
 428 551 428 551 419 571 c 0,70,71
 410 592 410 592 392 606 c 0,72,73
 375 621 375 621 348 628 c 0,74,75
 322 635 322 635 287 635 c 0,76,77
 266 635 266 635 244 632 c 0,78,79
 221 629 221 629 197 625 c 0,80,81
 173 620 173 620 148 614 c 0,82,83
 123 607 123 607 97 597 c 1,84,85
 97 655 97 655 97 684 c 1,86,87
 128 692 128 692 154 697 c 0,88,89
 181 703 181 703 205 707 c 0,90,91
 227 710 227 710 248 713 c 0,92,93
 270 715 270 715 290 715 c 0,94,95
 316 715 316 715 340 711 c 0,96,97
 364 708 364 708 386 701 c 0,98,99
 408 695 408 695 428 686 c 256,100,101
 448 677 448 677 464 664 c 0,102,103
 496 638 496 638 512 604 c 256,104,105
 528 570 528 570 528 527 c 0,106,107
 528 512 528 512 526 499 c 0,108,109
 524 485 524 485 519 473 c 0,110,111
 515 461 515 461 508 450 c 0,112,113
 502 439 502 439 494 430 c 0,114,115
 477 411 477 411 452 398 c 0,116,117
 427 384 427 384 394 376 c 1,118,119
 431 367 431 367 459 350 c 0,120,121
 488 333 488 333 507 310 c 0,122,123
 517 298 517 298 524 285 c 0,124,125
 532 272 532 272 537 257 c 0,126,127
 541 242 541 242 543 226 c 0,128,129
 546 210 546 210 546 194 c 0,130,131
 546 146 546 146 529 108 c 256,132,133
 512 70 512 70 477 42 c 0,134,135
 460 28 460 28 439 18 c 0,136,137
 418 7 418 7 394 0 c 256,0,1
EndSplineSet
Validated: 1
EndChar

StartChar: four
Encoding: 52 52 23
Width: 614
GlyphClass: 1
Flags: W
LayerCount: 2
Fore
SplineSet
367 0 m 1,0,1
 367 125 367 125 367 167 c 1,2,3
 122 167 122 167 40 167 c 1,4,5
 40 232 40 232 40 265 c 1,6,7
 75 319 75 319 126 399 c 0,8,9
 178 479 178 479 228 556 c 0,10,11
 255 598 255 598 279 635 c 0,12,13
 303 673 303 673 322 701 c 1,14,15
 423 701 423 701 457 701 c 1,16,17
 457 359 457 359 457 245 c 1,18,19
 546 245 546 245 576 245 c 1,20,21
 576 186 576 186 576 167 c 1,22,23
 487 167 487 167 457 167 c 1,24,25
 457 42 457 42 457 0 c 1,26,27
 389 0 389 0 367 0 c 1,0,1
136 245 m 1,28,29
 317 245 317 245 378 245 c 1,30,31
 378 492 378 492 378 615 c 1,32,33
 359 588 359 588 328 541 c 0,34,35
 297 495 297 495 279 467 c 0,36,37
 261 440 261 440 235 399 c 256,38,39
 209 358 209 358 184 319 c 0,40,41
 170 297 170 297 158 278 c 256,42,43
 146 259 146 259 136 245 c 1,28,29
EndSplineSet
Validated: 1
EndChar

StartChar: five
Encoding: 53 53 24
Width: 614
GlyphClass: 1
Flags: W
LayerCount: 2
Fore
SplineSet
380 3 m 0,0,1
 355 -5 355 -5 326 -9 c 0,2,3
 296 -13 296 -13 262 -13 c 0,4,5
 251 -13 251 -13 238 -13 c 0,6,7
 226 -12 226 -12 212 -11 c 256,8,9
 198 -10 198 -10 185 -9 c 256,10,11
 172 -8 172 -8 160 -6 c 0,12,13
 147 -5 147 -5 135 -2 c 0,14,15
 123 0 123 0 113 3 c 0,16,17
 102 6 102 6 92 9 c 0,18,19
 82 13 82 13 72 16 c 1,20,21
 72 81 72 81 72 113 c 1,22,23
 95 101 95 101 118 92 c 256,24,25
 141 83 141 83 164 78 c 0,26,27
 187 72 187 72 210 69 c 0,28,29
 233 67 233 67 256 67 c 0,30,31
 300 67 300 67 333 77 c 256,32,33
 366 87 366 87 388 108 c 0,34,35
 410 128 410 128 422 157 c 0,36,37
 433 187 433 187 433 224 c 0,38,39
 433 245 433 245 430 262 c 256,40,41
 427 279 427 279 421 294 c 0,42,43
 415 308 415 308 406 321 c 0,44,45
 397 333 397 333 386 343 c 0,46,47
 375 352 375 352 362 360 c 0,48,49
 349 367 349 367 333 373 c 0,50,51
 317 378 317 378 297 381 c 256,52,53
 277 384 277 384 254 384 c 0,54,55
 235 384 235 384 216 382 c 0,56,57
 196 380 196 380 177 376 c 0,58,59
 158 371 158 371 139 364 c 0,60,61
 120 358 120 358 103 349 c 1,62,63
 103 613 103 613 103 701 c 1,64,65
 396 701 396 701 494 701 c 1,66,67
 494 642 494 642 494 622 c 1,68,69
 270 622 270 622 196 622 c 1,70,71
 196 507 196 507 196 450 c 1,72,73
 206 453 206 453 217 456 c 256,74,75
 228 459 228 459 239 461 c 0,76,77
 248 462 248 462 259 463 c 256,78,79
 270 464 270 464 283 464 c 0,80,81
 313 464 313 464 339 459 c 0,82,83
 366 455 366 455 389 446 c 0,84,85
 412 438 412 438 431 426 c 0,86,87
 451 414 451 414 467 399 c 0,88,89
 501 367 501 367 518 324 c 256,90,91
 535 281 535 281 535 226 c 0,92,93
 535 170 535 170 517 126 c 256,94,95
 499 82 499 82 464 50 c 0,96,97
 447 35 447 35 426 23 c 0,98,99
 404 12 404 12 380 3 c 0,0,1
EndSplineSet
Validated: 1
EndChar

StartChar: six
Encoding: 54 54 25
Width: 614
GlyphClass: 1
Flags: W
LayerCount: 2
Fore
SplineSet
489 50 m 0,0,1
 460 19 460 19 416 5 c 0,2,3
 372 -10 372 -10 316 -10 c 0,4,5
 282 -10 282 -10 254 -5 c 0,6,7
 226 1 226 1 203 11 c 0,8,9
 180 22 180 22 161 38 c 0,10,11
 143 53 143 53 128 75 c 0,12,13
 112 98 112 98 100 126 c 0,14,15
 89 154 89 154 81 187 c 256,16,17
 73 220 73 220 70 259 c 0,18,19
 67 297 67 297 67 340 c 0,20,21
 67 435 67 435 89 504 c 256,22,23
 111 573 111 573 156 615 c 0,24,25
 200 658 200 658 249 680 c 256,26,27
 298 702 298 702 349 702 c 0,28,29
 358 702 358 702 367 703 c 0,30,31
 377 703 377 703 387 703 c 0,32,33
 391 703 391 703 393 703 c 0,34,35
 402 703 402 703 409 703 c 0,36,37
 417 702 417 702 424 700 c 0,38,39
 434 699 434 699 443 697 c 0,40,41
 453 695 453 695 462 692 c 0,42,43
 471 690 471 690 479 688 c 0,44,45
 488 686 488 686 496 683 c 1,46,47
 496 624 496 624 496 595 c 1,48,49
 479 604 479 604 463 611 c 0,50,51
 446 617 446 617 428 622 c 0,52,53
 420 624 420 624 410 625 c 0,54,55
 401 627 401 627 392 627 c 256,56,57
 383 627 383 627 373 627 c 0,58,59
 364 628 364 628 355 628 c 0,60,61
 318 627 318 627 282 609 c 0,62,63
 247 590 247 590 213 555 c 1,64,65
 188 520 188 520 175 473 c 0,66,67
 161 426 161 426 160 367 c 1,68,69
 172 390 172 390 188 408 c 0,70,71
 205 426 205 426 226 439 c 0,72,73
 248 452 248 452 273 458 c 256,74,75
 298 464 298 464 328 464 c 0,76,77
 379 464 379 464 420 448 c 0,78,79
 461 433 461 433 490 401 c 0,80,81
 520 370 520 370 535 326 c 256,82,83
 550 282 550 282 550 226 c 0,84,85
 550 169 550 169 535 125 c 0,86,87
 519 81 519 81 489 50 c 0,0,1
256 76 m 0,88,89
 269 70 269 70 284 67 c 0,90,91
 300 65 300 65 316 65 c 0,92,93
 349 65 349 65 375 75 c 0,94,95
 400 86 400 86 417 106 c 0,96,97
 434 127 434 127 442 157 c 0,98,99
 451 187 451 187 451 225 c 0,100,101
 451 266 451 266 442 297 c 0,102,103
 434 327 434 327 417 348 c 0,104,105
 408 359 408 359 398 367 c 0,106,107
 387 375 387 375 374 380 c 256,108,109
 361 385 361 385 347 387 c 256,110,111
 333 389 333 389 317 389 c 0,112,113
 300 389 300 389 284 386 c 0,114,115
 269 383 269 383 256 378 c 0,116,117
 243 372 243 372 233 364 c 0,118,119
 222 356 222 356 214 346 c 256,120,121
 206 336 206 336 198 323 c 0,122,123
 191 310 191 310 186 295 c 0,124,125
 182 280 182 280 179 262 c 0,126,127
 177 245 177 245 177 225 c 256,128,129
 177 205 177 205 179 188 c 0,130,131
 182 171 182 171 186 157 c 0,132,133
 191 142 191 142 198 130 c 0,134,135
 206 118 206 118 214 108 c 256,136,137
 222 98 222 98 233 89 c 0,138,139
 243 81 243 81 256 76 c 0,88,89
EndSplineSet
Validated: 1
EndChar

StartChar: seven
Encoding: 55 55 26
Width: 614
GlyphClass: 1
Flags: W
LayerCount: 2
Fore
SplineSet
167 0 m 1,0,1
 198 76 198 76 246 190 c 0,2,3
 294 305 294 305 341 415 c 0,4,5
 365 474 365 474 388 527 c 0,6,7
 410 581 410 581 427 622 c 1,8,9
 159 622 159 622 70 622 c 1,10,11
 70 681 70 681 70 701 c 1,12,13
 422 701 422 701 540 701 c 1,14,15
 540 675 540 675 540 662 c 1,16,17
 507 581 507 581 458 459 c 0,18,19
 409 338 409 338 361 220 c 0,20,21
 336 157 336 157 313 100 c 256,22,23
 290 43 290 43 272 0 c 1,24,25
 193 0 193 0 167 0 c 1,0,1
EndSplineSet
Validated: 1
EndChar

StartChar: eight
Encoding: 56 56 27
Width: 614
GlyphClass: 1
Flags: W
LayerCount: 2
Fore
SplineSet
486 40 m 0,0,1
 454 13 454 13 409 0 c 256,2,3
 364 -13 364 -13 307 -13 c 256,4,5
 250 -13 250 -13 206 0 c 256,6,7
 162 13 162 13 130 39 c 256,8,9
 98 65 98 65 82 103 c 0,10,11
 66 140 66 140 66 188 c 0,12,13
 66 226 66 226 76 256 c 256,14,15
 86 286 86 286 105 310 c 1,16,17
 117 334 117 334 142 350 c 0,18,19
 166 365 166 365 204 373 c 1,20,21
 188 377 188 377 177 382 c 0,22,23
 165 387 165 387 156 394 c 0,24,25
 146 401 146 401 138 410 c 0,26,27
 129 419 129 419 120 430 c 256,28,29
 111 441 111 441 104 453 c 256,30,31
 97 465 97 465 92 478 c 0,32,33
 88 491 88 491 85 506 c 0,34,35
 83 520 83 520 83 535 c 0,36,37
 83 575 83 575 98 608 c 256,38,39
 113 641 113 641 143 666 c 0,40,41
 158 678 158 678 176 687 c 0,42,43
 193 695 193 695 214 701 c 0,44,45
 235 708 235 708 258 711 c 0,46,47
 281 715 281 715 308 715 c 0,48,49
 360 715 360 715 402 702 c 0,50,51
 443 690 443 690 473 666 c 0,52,53
 503 641 503 641 518 608 c 0,54,55
 534 575 534 575 534 534 c 0,56,57
 534 503 534 503 527 477 c 256,58,59
 520 451 520 451 506 430 c 256,60,61
 492 409 492 409 469 395 c 0,62,63
 446 380 446 380 413 373 c 1,64,65
 450 365 450 365 478 350 c 0,66,67
 505 334 505 334 520 310 c 0,68,69
 536 286 536 286 543 256 c 0,70,71
 551 226 551 226 551 189 c 0,72,73
 551 165 551 165 547 143 c 256,74,75
 543 121 543 121 535 102 c 0,76,77
 526 84 526 84 514 68 c 0,78,79
 502 53 502 53 486 40 c 0,0,1
215 437 m 0,80,81
 231 423 231 423 255 415 c 0,82,83
 278 408 278 408 308 408 c 0,84,85
 339 408 339 408 362 415 c 0,86,87
 385 423 385 423 401 437 c 0,88,89
 418 452 418 452 425 473 c 0,90,91
 433 495 433 495 433 523 c 0,92,93
 433 552 433 552 425 574 c 0,94,95
 418 596 418 596 401 611 c 0,96,97
 385 627 385 627 362 634 c 256,98,99
 339 641 339 641 308 641 c 0,100,101
 278 641 278 641 255 634 c 0,102,103
 231 627 231 627 215 611 c 0,104,105
 199 596 199 596 191 574 c 256,106,107
 183 552 183 552 183 523 c 0,108,109
 183 495 183 495 191 473 c 0,110,111
 199 452 199 452 215 437 c 0,80,81
204 97 m 0,112,113
 223 79 223 79 249 70 c 0,114,115
 275 60 275 60 309 60 c 0,116,117
 342 60 342 60 368 70 c 0,118,119
 394 79 394 79 413 96 c 0,120,121
 431 114 431 114 440 139 c 0,122,123
 450 164 450 164 450 197 c 0,124,125
 450 214 450 214 447 229 c 256,126,127
 444 244 444 244 439 256 c 0,128,129
 435 268 435 268 428 279 c 256,130,131
 421 290 421 290 413 298 c 0,132,133
 394 316 394 316 368 324 c 0,134,135
 342 333 342 333 308 333 c 256,136,137
 274 333 274 333 248 324 c 0,138,139
 222 316 222 316 204 298 c 0,140,141
 185 280 185 280 176 255 c 256,142,143
 167 230 167 230 167 198 c 0,144,145
 167 165 167 165 176 141 c 0,146,147
 185 116 185 116 204 97 c 0,112,113
EndSplineSet
Validated: 1
EndChar

StartChar: nine
Encoding: 57 57 28
Width: 614
GlyphClass: 1
Flags: W
LayerCount: 2
Fore
SplineSet
465 82 m 0,0,1
 436 42 436 42 389 19 c 0,2,3
 342 -3 342 -3 279 -7 c 0,4,5
 261 -6 261 -6 249 -5 c 0,6,7
 236 -5 236 -5 229 -5 c 256,8,9
 222 -5 222 -5 214 -4 c 0,10,11
 205 -4 205 -4 195 -3 c 0,12,13
 174 1 174 1 155 5 c 0,14,15
 135 9 135 9 118 13 c 1,16,17
 118 65 118 65 118 91 c 1,18,19
 135 84 135 84 153 79 c 0,20,21
 170 73 170 73 185 70 c 0,22,23
 204 69 204 69 222 68 c 256,24,25
 240 67 240 67 258 67 c 0,26,27
 301 68 301 68 335 86 c 0,28,29
 370 103 370 103 394 137 c 0,30,31
 419 172 419 172 434 221 c 0,32,33
 448 269 448 269 454 334 c 1,34,35
 448 322 448 322 441 311 c 0,36,37
 433 301 433 301 425 292 c 256,38,39
 417 283 417 283 407 275 c 0,40,41
 397 268 397 268 387 262 c 0,42,43
 366 250 366 250 341 243 c 0,44,45
 315 237 315 237 285 237 c 0,46,47
 234 237 234 237 193 252 c 0,48,49
 153 268 153 268 123 299 c 256,50,51
 93 330 93 330 78 375 c 0,52,53
 63 419 63 419 63 475 c 0,54,55
 63 503 63 503 67 528 c 0,56,57
 70 552 70 552 78 575 c 0,58,59
 86 599 86 599 97 618 c 0,60,61
 109 637 109 637 125 653 c 0,62,63
 155 684 155 684 198 699 c 0,64,65
 240 715 240 715 297 715 c 0,66,67
 332 715 332 715 360 709 c 256,68,69
 388 703 388 703 411 691 c 0,70,71
 434 680 434 680 453 663 c 0,72,73
 472 647 472 647 486 626 c 0,74,75
 503 602 503 602 514 574 c 0,76,77
 526 546 526 546 532 512 c 0,78,79
 539 478 539 478 543 440 c 0,80,81
 547 403 547 403 547 360 c 0,82,83
 547 314 547 314 541 273 c 0,84,85
 536 232 536 232 524 198 c 0,86,87
 513 163 513 163 498 134 c 0,88,89
 483 106 483 106 465 82 c 0,0,1
197 352 m 0,90,91
 213 332 213 332 238 321 c 0,92,93
 264 311 264 311 297 311 c 0,94,95
 315 311 315 311 329 314 c 0,96,97
 344 317 344 317 357 323 c 0,98,99
 370 328 370 328 381 336 c 0,100,101
 391 344 391 344 399 354 c 0,102,103
 418 376 418 376 427 406 c 256,104,105
 436 436 436 436 436 475 c 256,106,107
 436 514 436 514 427 545 c 0,108,109
 418 575 418 575 399 597 c 0,110,111
 391 607 391 607 381 615 c 0,112,113
 370 623 370 623 357 629 c 0,114,115
 344 634 344 634 329 637 c 0,116,117
 315 640 315 640 297 640 c 0,118,119
 282 640 282 640 267 637 c 0,120,121
 253 634 253 634 240 630 c 0,122,123
 227 625 227 625 216 617 c 0,124,125
 205 610 205 610 197 599 c 0,126,127
 180 578 180 578 171 547 c 0,128,129
 163 516 163 516 163 475 c 256,130,131
 163 434 163 434 171 404 c 0,132,133
 180 373 180 373 197 352 c 0,90,91
EndSplineSet
Validated: 1
EndChar

StartChar: colon
Encoding: 58 58 29
Width: 614
GlyphClass: 1
Flags: W
LayerCount: 2
Fore
SplineSet
362 130 m 0,0,1
 352 120 352 120 339 115 c 0,2,3
 326 111 326 111 310 111 c 0,4,5
 295 111 295 111 282 115 c 0,6,7
 270 120 270 120 260 130 c 256,8,9
 250 140 250 140 245 153 c 0,10,11
 239 166 239 166 239 181 c 0,12,13
 239 197 239 197 244 210 c 0,14,15
 249 222 249 222 260 232 c 256,16,17
 271 242 271 242 283 247 c 0,18,19
 296 252 296 252 311 252 c 0,20,21
 327 252 327 252 340 247 c 256,22,23
 353 242 353 242 363 232 c 0,24,25
 374 222 374 222 379 210 c 0,26,27
 384 197 384 197 384 181 c 0,28,29
 384 166 384 166 379 153 c 0,30,31
 373 140 373 140 362 130 c 0,0,1
363 456 m 4,32,33
 353 446 353 446 340 441 c 4,34,35
 328 436 328 436 312 436 c 4,36,37
 297 436 297 436 284 441 c 260,38,39
 271 446 271 446 261 456 c 4,40,41
 250 465 250 465 245 478 c 4,42,43
 241 491 241 491 241 507 c 4,44,45
 241 522 241 522 245 535 c 4,46,47
 250 548 250 548 261 558 c 4,48,49
 271 568 271 568 284 573 c 260,50,51
 297 578 297 578 312 578 c 4,52,53
 328 578 328 578 340 573 c 4,54,55
 353 568 353 568 363 558 c 4,56,57
 374 548 374 548 380 536 c 4,58,59
 385 523 385 523 385 507 c 260,60,61
 385 491 385 491 380 478 c 4,62,63
 374 465 374 465 363 456 c 4,32,33
EndSplineSet
Validated: 1
EndChar

StartChar: semicolon
Encoding: 59 59 30
Width: 614
GlyphClass: 1
Flags: W
LayerCount: 2
Fore
SplineSet
363 456 m 4,0,1
 353 446 353 446 340 441 c 4,2,3
 328 436 328 436 312 436 c 4,4,5
 297 436 297 436 284 441 c 260,6,7
 271 446 271 446 261 456 c 4,8,9
 250 465 250 465 245 478 c 4,10,11
 241 491 241 491 241 507 c 4,12,13
 241 522 241 522 245 535 c 4,14,15
 250 548 250 548 261 558 c 4,16,17
 271 568 271 568 284 573 c 260,18,19
 297 578 297 578 312 578 c 4,20,21
 328 578 328 578 340 573 c 4,22,23
 353 568 353 568 363 558 c 4,24,25
 374 548 374 548 380 536 c 4,26,27
 385 523 385 523 385 507 c 260,28,29
 385 491 385 491 380 478 c 4,30,31
 374 465 374 465 363 456 c 4,0,1
269 52 m 4,32,33
 278 64 278 64 284 78 c 4,34,35
 291 93 291 93 298 112 c 5,36,37
 289 112 289 112 279 116 c 4,38,39
 270 121 270 121 260 131 c 260,40,41
 250 141 250 141 245 154 c 4,42,43
 241 167 241 167 241 182 c 4,44,45
 241 198 241 198 245 211 c 4,46,47
 250 223 250 223 261 233 c 260,48,49
 272 243 272 243 284 248 c 4,50,51
 297 253 297 253 312 253 c 4,52,53
 328 253 328 253 340 248 c 4,54,55
 353 243 353 243 363 233 c 4,56,57
 374 223 374 223 380 211 c 4,58,59
 385 198 385 198 385 182 c 4,60,61
 385 178 385 178 385 176 c 4,62,63
 385 165 385 165 384 156 c 4,64,65
 383 146 383 146 382 137 c 4,66,67
 380 128 380 128 379 120 c 4,68,69
 377 112 377 112 375 105 c 4,70,71
 364 76 364 76 349 51 c 4,72,73
 333 26 333 26 314 4 c 4,74,75
 295 -17 295 -17 278 -33 c 260,76,77
 261 -49 261 -49 245 -59 c 5,78,79
 239 -52 239 -52 235 -45 c 4,80,81
 230 -39 230 -39 226 -34 c 4,82,83
 222 -28 222 -28 218 -22 c 260,84,85
 214 -16 214 -16 209 -9 c 5,86,87
 231 10 231 10 246 25 c 4,88,89
 261 41 261 41 269 52 c 4,32,33
EndSplineSet
Validated: 1
EndChar

StartChar: less
Encoding: 60 60 31
Width: 614
GlyphClass: 1
Flags: W
LayerCount: 2
Fore
SplineSet
569 116 m 1,0,1
 173 263 173 263 41 312 c 1,2,3
 41 371 41 371 41 390 c 1,4,5
 437 538 437 538 569 587 c 1,6,7
 569 529 569 529 569 501 c 1,8,9
 541 491 541 491 505 478 c 0,10,11
 468 465 468 465 428 451 c 0,12,13
 352 424 352 424 274 396 c 0,14,15
 196 369 196 369 144 350 c 1,16,17
 172 341 172 341 209 328 c 256,18,19
 246 315 246 315 286 301 c 0,20,21
 361 274 361 274 439 247 c 256,22,23
 517 220 517 220 569 202 c 1,24,25
 569 137 569 137 569 116 c 1,0,1
EndSplineSet
Validated: 1
EndChar

StartChar: equal
Encoding: 61 61 32
Width: 614
GlyphClass: 1
Flags: W
LayerCount: 2
Fore
SplineSet
45 421 m 1,0,1
 45 481 45 481 45 501 c 1,2,3
 441 501 441 501 573 501 c 1,4,5
 573 441 573 441 573 421 c 1,6,7
 177 421 177 421 45 421 c 1,0,1
45 205 m 1,8,9
 45 265 45 265 45 286 c 1,10,11
 441 286 441 286 573 286 c 1,12,13
 573 225 573 225 573 205 c 1,14,15
 177 205 177 205 45 205 c 1,8,9
EndSplineSet
Validated: 1
EndChar

StartChar: greater
Encoding: 62 62 33
Width: 614
GlyphClass: 1
Flags: W
LayerCount: 2
Fore
SplineSet
572 310 m 1,0,1
 176 163 176 163 44 114 c 1,2,3
 44 171 44 171 44 200 c 1,4,5
 72 209 72 209 109 222 c 0,6,7
 145 235 145 235 186 249 c 0,8,9
 261 276 261 276 339 304 c 0,10,11
 417 331 417 331 469 349 c 1,12,13
 417 368 417 368 339 395 c 0,14,15
 261 423 261 423 186 450 c 0,16,17
 145 464 145 464 109 477 c 0,18,19
 72 490 72 490 44 500 c 1,20,21
 44 563 44 563 44 585 c 1,22,23
 440 437 440 437 572 388 c 1,24,25
 572 330 572 330 572 310 c 1,0,1
EndSplineSet
Validated: 1
EndChar

StartChar: question
Encoding: 63 63 34
Width: 614
GlyphClass: 1
Flags: W
LayerCount: 2
Fore
SplineSet
257 263 m 1,0,1
 257 299 257 299 257 317 c 0,2,3
 258 351 258 351 274 377 c 256,4,5
 290 403 290 403 314 424 c 0,6,7
 329 438 329 438 346 450 c 0,8,9
 363 463 363 463 380 475 c 0,10,11
 411 497 411 497 433 519 c 0,12,13
 456 542 456 542 457 572 c 0,14,15
 457 592 457 592 449 606 c 0,16,17
 442 620 442 620 429 630 c 0,18,19
 406 648 406 648 372 653 c 256,20,21
 344 657 344 657 321 657 c 0,22,23
 317 657 317 657 312 657 c 0,24,25
 275 657 275 657 225 627 c 0,26,27
 181 600 181 600 153 552 c 1,28,29
 127 569 127 569 117 575 c 0,30,31
 106 582 106 582 81 598 c 1,32,33
 114 650 114 650 179 693 c 0,34,35
 244 735 244 735 322 735 c 0,36,37
 428 735 428 735 487 691 c 0,38,39
 545 649 545 649 545 576 c 0,40,41
 545 574 545 574 545 572 c 0,42,43
 544 535 544 535 528 508 c 0,44,45
 512 482 512 482 490 461 c 0,46,47
 475 447 475 447 458 435 c 0,48,49
 442 424 442 424 426 413 c 0,50,51
 397 392 397 392 375 370 c 256,52,53
 353 348 353 348 353 318 c 0,54,55
 353 304 353 304 353 290 c 0,56,57
 353 277 353 277 353 263 c 1,58,59
 281 263 281 263 257 263 c 1,0,1
360 18 m 256,60,61
 349 8 349 8 337 4 c 0,62,63
 324 -1 324 -1 309 -1 c 256,64,65
 294 -1 294 -1 281 4 c 0,66,67
 268 8 268 8 258 18 c 0,68,69
 247 28 247 28 242 41 c 256,70,71
 237 54 237 54 237 69 c 0,72,73
 237 85 237 85 242 98 c 256,74,75
 247 111 247 111 258 121 c 0,76,77
 268 131 268 131 281 135 c 0,78,79
 294 140 294 140 309 140 c 256,80,81
 324 140 324 140 337 135 c 0,82,83
 349 131 349 131 360 121 c 256,84,85
 371 111 371 111 376 98 c 0,86,87
 382 85 382 85 382 69 c 0,88,89
 382 54 382 54 376 41 c 0,90,91
 371 28 371 28 360 18 c 256,60,61
EndSplineSet
Validated: 1
EndChar

StartChar: at
Encoding: 64 64 35
Width: 614
GlyphClass: 1
Flags: W
LayerCount: 2
Fore
SplineSet
561 0 m 0,0,1
 533 -13 533 -13 488 -22 c 256,2,3
 443 -31 443 -31 399 -31 c 0,4,5
 357 -31 357 -31 316 -25 c 0,6,7
 275 -18 275 -18 237 -6 c 0,8,9
 198 6 198 6 165 27 c 256,10,11
 132 48 132 48 104 78 c 0,12,13
 78 106 78 106 58 135 c 0,14,15
 38 163 38 163 24 193 c 0,16,17
 9 222 9 222 2 262 c 256,18,19
 -5 302 -5 302 -5 353 c 0,20,21
 -5 401 -5 401 2 441 c 0,22,23
 8 481 8 481 22 514 c 0,24,25
 35 547 35 547 54 577 c 256,26,27
 73 607 73 607 98 634 c 0,28,29
 122 659 122 659 150 678 c 256,30,31
 178 697 178 697 210 710 c 256,32,33
 242 723 242 723 272 729 c 0,34,35
 302 736 302 736 328 736 c 0,36,37
 431 736 431 736 500 712 c 0,38,39
 568 687 568 687 612 638 c 0,40,41
 632 614 632 614 638 588 c 0,42,43
 643 561 643 561 643 541 c 0,44,45
 643 523 643 523 635 497 c 256,46,47
 627 471 627 471 608 452 c 0,48,49
 597 441 597 441 582 435 c 0,50,51
 568 428 568 428 549 428 c 1,52,53
 549 226 549 226 549 158 c 1,54,55
 493 159 493 159 475 159 c 1,56,57
 475 189 475 189 475 204 c 1,58,59
 465 187 465 187 450 174 c 0,60,61
 436 162 436 162 417 154 c 0,62,63
 400 146 400 146 386 143 c 0,64,65
 371 141 371 141 359 142 c 0,66,67
 318 146 318 146 295 159 c 0,68,69
 272 173 272 173 239 202 c 0,70,71
 227 216 227 216 217 232 c 256,72,73
 207 248 207 248 200 265 c 0,74,75
 194 283 194 283 190 304 c 256,76,77
 186 325 186 325 186 350 c 0,78,79
 186 373 186 373 189 395 c 0,80,81
 192 416 192 416 198 436 c 0,82,83
 205 456 205 456 215 474 c 0,84,85
 226 492 226 492 239 507 c 0,86,87
 254 523 254 523 269 535 c 0,88,89
 284 548 284 548 301 556 c 256,90,91
 318 564 318 564 335 568 c 0,92,93
 353 572 353 572 372 572 c 0,94,95
 385 573 385 573 399 569 c 0,96,97
 414 566 414 566 430 558 c 0,98,99
 441 552 441 552 450 547 c 0,100,101
 458 542 458 542 465 538 c 0,102,103
 465 538 465 538 479 524 c 0,104,105
 488 515 488 515 500 502 c 1,106,107
 505 502 505 502 510 502 c 0,108,109
 514 502 514 502 518 502 c 0,110,111
 521 502 521 502 524 502 c 0,112,113
 526 502 526 502 529 502 c 0,114,115
 530 502 530 502 532 502 c 0,116,117
 533 502 533 502 534 502 c 0,118,119
 546 500 546 500 557 523 c 0,120,121
 562 533 562 533 562 544 c 0,122,123
 562 545 562 545 562 546 c 0,124,125
 563 557 563 557 552 576 c 0,126,127
 544 590 544 590 526 607 c 0,128,129
 508 623 508 623 482 635 c 0,130,131
 437 656 437 656 406 660 c 0,132,133
 384 663 384 663 357 663 c 0,134,135
 342 663 342 663 324 662 c 0,136,137
 305 661 305 661 268 648 c 0,138,139
 241 638 241 638 219 625 c 0,140,141
 197 611 197 611 179 594 c 0,142,143
 160 577 160 577 147 558 c 0,144,145
 112 506 112 506 98 458 c 0,146,147
 85 413 85 413 85 366 c 0,148,149
 85 361 85 361 85 354 c 0,150,151
 85 300 85 300 107 241 c 0,152,153
 127 188 127 188 167 139 c 0,154,155
 185 120 185 120 207 104 c 0,156,157
 228 88 228 88 252 76 c 256,158,159
 276 64 276 64 305 57 c 0,160,161
 335 50 335 50 371 49 c 0,162,163
 452 50 452 50 510 70 c 0,164,165
 569 91 569 91 621 140 c 1,166,167
 634 124 634 124 648 108 c 256,168,169
 662 92 662 92 674 78 c 1,170,171
 662 68 662 68 637 46 c 0,172,173
 613 25 613 25 561 0 c 0,0,1
299 261 m 0,174,175
 315 245 315 245 332 237 c 256,176,177
 349 229 349 229 368 229 c 256,178,179
 387 229 387 229 404 238 c 256,180,181
 421 247 421 247 435 264 c 0,182,183
 450 281 450 281 457 305 c 0,184,185
 464 328 464 328 464 357 c 0,186,187
 464 388 464 388 457 412 c 0,188,189
 450 435 450 435 434 453 c 0,190,191
 419 469 419 469 402 477 c 256,192,193
 385 485 385 485 367 485 c 0,194,195
 365 485 365 485 363 485 c 128,-1,196
 361 485 361 485 360 485 c 128,-1,197
 359 485 359 485 357 485 c 0,198,199
 347 486 347 486 329 477 c 0,200,201
 313 469 313 469 297 449 c 0,202,203
 286 434 286 434 279 411 c 0,204,205
 273 388 273 388 271 357 c 1,206,207
 274 325 274 325 281 301 c 256,208,209
 288 277 288 277 299 261 c 0,174,175
EndSplineSet
Validated: 1
EndChar

StartChar: A
Encoding: 65 65 36
Width: 614
GlyphClass: 1
Flags: W
LayerCount: 2
Fore
SplineSet
18 0 m 1,0,1
 46 85 46 85 88 214 c 0,2,3
 130 344 130 344 171 468 c 0,4,5
 192 535 192 535 212 595 c 256,6,7
 232 655 232 655 247 701 c 1,8,9
 329 701 329 701 370 701 c 1,10,11
 398 616 398 616 440 487 c 0,12,13
 481 358 481 358 522 233 c 0,14,15
 544 166 544 166 563 106 c 0,16,17
 583 46 583 46 598 0 c 1,18,19
 528 0 528 0 494 0 c 1,20,21
 484 35 484 35 466 92 c 256,22,23
 448 149 448 149 438 183 c 1,24,25
 264 183 264 183 177 183 c 1,26,27
 167 149 167 149 150 92 c 256,28,29
 133 35 133 35 123 0 c 1,30,31
 45 0 45 0 18 0 c 1,0,1
202 259 m 1,32,33
 344 259 344 259 415 259 c 1,34,35
 402 303 402 303 382 369 c 0,36,37
 363 435 363 435 344 499 c 0,38,39
 333 533 333 533 324 564 c 256,40,41
 315 595 315 595 308 618 c 1,42,43
 295 575 295 575 276 508 c 0,44,45
 256 442 256 442 237 379 c 0,46,47
 227 344 227 344 218 314 c 0,48,49
 209 283 209 283 202 259 c 1,32,33
EndSplineSet
Validated: 1
EndChar

StartChar: B
Encoding: 66 66 37
Width: 614
GlyphClass: 1
Flags: W
LayerCount: 2
Fore
SplineSet
79 0 m 1,0,1
 79 526 79 526 79 701 c 1,2,3
 217 701 217 701 286 701 c 0,4,5
 343 701 343 701 386 690 c 0,6,7
 430 678 430 678 462 655 c 0,8,9
 492 632 492 632 507 599 c 0,10,11
 523 566 523 566 524 523 c 0,12,13
 524 507 524 507 522 492 c 0,14,15
 521 477 521 477 516 465 c 256,16,17
 511 453 511 453 505 442 c 256,18,19
 499 431 499 431 492 422 c 0,20,21
 484 413 484 413 478 406 c 0,22,23
 472 400 472 400 467 396 c 256,24,25
 462 392 462 392 449 388 c 0,26,27
 436 383 436 383 419 376 c 1,28,29
 460 365 460 365 488 350 c 0,30,31
 515 336 515 336 529 316 c 0,32,33
 550 292 550 292 560 261 c 0,34,35
 570 231 570 231 570 193 c 0,36,37
 570 145 570 145 553 109 c 0,38,39
 537 74 537 74 504 49 c 0,40,41
 470 25 470 25 420 12 c 0,42,43
 371 0 371 0 306 0 c 0,44,45
 136 0 136 0 79 0 c 1,0,1
175 413 m 1,46,47
 260 413 260 413 302 413 c 0,48,49
 337 413 337 413 363 419 c 0,50,51
 388 426 388 426 404 439 c 0,52,53
 421 452 421 452 429 473 c 256,54,55
 437 494 437 494 437 522 c 256,56,57
 437 550 437 550 429 569 c 0,58,59
 421 589 421 589 404 600 c 0,60,61
 388 612 388 612 363 618 c 0,62,63
 337 624 337 624 302 624 c 0,64,65
 207 624 207 624 175 624 c 1,66,67
 175 465 175 465 175 413 c 1,46,47
175 78 m 1,68,69
 275 78 275 78 324 78 c 0,70,71
 367 78 367 78 397 85 c 0,72,73
 428 93 428 93 446 108 c 0,74,75
 465 122 465 122 474 145 c 0,76,77
 484 169 484 169 484 202 c 0,78,79
 484 236 484 236 474 262 c 0,80,81
 464 287 464 287 444 303 c 256,82,83
 424 319 424 319 394 327 c 256,84,85
 364 335 364 335 324 335 c 0,86,87
 212 335 212 335 175 335 c 1,88,89
 175 142 175 142 175 78 c 1,68,69
EndSplineSet
Validated: 1
EndChar

StartChar: C
Encoding: 67 67 38
Width: 614
GlyphClass: 1
Flags: W
LayerCount: 2
Fore
SplineSet
458 -4 m 256,0,1
 438 -9 438 -9 416 -11 c 256,2,3
 394 -13 394 -13 371 -13 c 0,4,5
 335 -13 335 -13 304 -7 c 256,6,7
 273 -1 273 -1 245 10 c 0,8,9
 216 22 216 22 192 40 c 0,10,11
 168 57 168 57 148 82 c 0,12,13
 109 130 109 130 89 197 c 0,14,15
 70 263 70 263 70 349 c 0,16,17
 70 407 70 407 79 456 c 256,18,19
 88 505 88 505 105 546 c 0,20,21
 123 586 123 586 149 618 c 0,22,23
 175 649 175 649 209 671 c 0,24,25
 243 692 243 692 283 703 c 0,26,27
 324 715 324 715 371 715 c 0,28,29
 395 715 395 715 417 712 c 0,30,31
 440 710 440 710 459 706 c 0,32,33
 478 701 478 701 497 693 c 0,34,35
 517 686 517 686 537 676 c 1,36,37
 537 611 537 611 537 579 c 1,38,39
 518 593 518 593 498 604 c 256,40,41
 478 615 478 615 457 623 c 0,42,43
 435 630 435 630 414 634 c 0,44,45
 392 637 392 637 371 637 c 0,46,47
 322 637 322 637 286 620 c 0,48,49
 249 602 249 602 224 566 c 0,50,51
 200 530 200 530 187 476 c 0,52,53
 175 422 175 422 175 350 c 0,54,55
 175 207 175 207 224 135 c 256,56,57
 273 63 273 63 372 63 c 0,58,59
 393 63 393 63 415 67 c 0,60,61
 436 71 436 71 458 79 c 0,62,63
 478 87 478 87 498 97 c 256,64,65
 518 107 518 107 537 122 c 1,66,67
 537 57 537 57 537 25 c 1,68,69
 517 15 517 15 497 8 c 0,70,71
 478 1 478 1 458 -4 c 256,0,1
EndSplineSet
Validated: 1
EndChar

StartChar: D
Encoding: 68 68 39
Width: 614
GlyphClass: 1
Flags: W
LayerCount: 2
Fore
SplineSet
69 0 m 1,0,1
 69 526 69 526 69 701 c 1,2,3
 195 701 195 701 258 701 c 0,4,5
 343 701 343 701 402 680 c 256,6,7
 461 659 461 659 493 616 c 0,8,9
 524 573 524 573 540 507 c 256,10,11
 556 441 556 441 556 350 c 0,12,13
 556 260 556 260 536 195 c 0,14,15
 517 129 517 129 479 86 c 0,16,17
 439 43 439 43 384 22 c 0,18,19
 329 0 329 0 258 0 c 0,20,21
 116 0 116 0 69 0 c 1,0,1
170 78 m 1,22,23
 227 78 227 78 256 78 c 0,24,25
 305 78 305 78 342 93 c 0,26,27
 379 107 379 107 403 137 c 0,28,29
 429 166 429 166 441 220 c 0,30,31
 454 274 454 274 454 351 c 0,32,33
 454 429 454 429 442 482 c 0,34,35
 430 536 430 536 404 565 c 0,36,37
 391 581 391 581 377 591 c 0,38,39
 364 602 364 602 348 609 c 0,40,41
 333 616 333 616 310 620 c 256,42,43
 287 624 287 624 256 624 c 0,44,45
 191 624 191 624 170 624 c 1,46,47
 170 214 170 214 170 78 c 1,22,23
EndSplineSet
Validated: 1
EndChar

StartChar: E
Encoding: 69 69 40
Width: 614
GlyphClass: 1
Flags: W
LayerCount: 2
Fore
SplineSet
94 0 m 1,0,1
 94 526 94 526 94 701 c 1,2,3
 433 701 433 701 546 701 c 1,4,5
 546 642 546 642 546 622 c 1,6,7
 282 622 282 622 195 622 c 1,8,9
 195 466 195 466 195 414 c 1,10,11
 426 414 426 414 504 414 c 1,12,13
 504 354 504 354 504 334 c 1,14,15
 272 334 272 334 195 334 c 1,16,17
 195 143 195 143 195 80 c 1,18,19
 459 80 459 80 547 80 c 1,20,21
 547 20 547 20 547 0 c 1,22,23
 207 0 207 0 94 0 c 1,0,1
EndSplineSet
Validated: 1
EndChar

StartChar: F
Encoding: 70 70 41
Width: 614
GlyphClass: 1
Flags: W
LayerCount: 2
Fore
SplineSet
117 0 m 1,0,1
 117 468 117 468 117 701 c 1,2,3
 145 701 145 701 183 702 c 0,4,5
 220 702 220 702 262 702 c 0,6,7
 339 702 339 702 419 702 c 0,8,9
 500 702 500 702 553 702 c 1,10,11
 553 645 553 645 553 626 c 1,12,13
 300 626 300 626 215 626 c 1,14,15
 215 460 215 460 215 404 c 1,16,17
 399 404 399 404 461 404 c 1,18,19
 461 347 461 347 461 328 c 1,20,21
 276 328 276 328 215 328 c 1,22,23
 215 82 215 82 215 0 c 1,24,25
 141 0 141 0 117 0 c 1,0,1
EndSplineSet
Validated: 1
EndChar

StartChar: G
Encoding: 71 71 42
Width: 614
GlyphClass: 1
Flags: W
LayerCount: 2
Fore
SplineSet
461 5 m 0,0,1
 435 -4 435 -4 408 -9 c 0,2,3
 380 -13 380 -13 350 -13 c 0,4,5
 314 -13 314 -13 282 -7 c 0,6,7
 251 -1 251 -1 223 11 c 0,8,9
 196 24 196 24 172 41 c 256,10,11
 148 58 148 58 129 82 c 0,12,13
 90 130 90 130 71 197 c 0,14,15
 51 264 51 264 51 349 c 0,16,17
 51 436 51 436 71 503 c 0,18,19
 91 571 91 571 131 618 c 0,20,21
 171 666 171 666 226 690 c 0,22,23
 281 715 281 715 351 715 c 0,24,25
 376 715 376 715 399 712 c 256,26,27
 422 709 422 709 443 702 c 0,28,29
 466 696 466 696 486 686 c 0,30,31
 507 677 507 677 526 665 c 1,32,33
 526 600 526 600 526 567 c 1,34,35
 516 577 516 577 505 585 c 0,36,37
 494 592 494 592 483 599 c 0,38,39
 473 606 473 606 463 611 c 0,40,41
 453 617 453 617 443 621 c 256,42,43
 433 625 433 625 421 628 c 0,44,45
 410 631 410 631 398 633 c 0,46,47
 387 635 387 635 376 636 c 256,48,49
 365 637 365 637 353 637 c 0,50,51
 305 637 305 637 268 620 c 0,52,53
 230 602 230 602 206 566 c 0,54,55
 181 530 181 530 169 476 c 256,56,57
 157 422 157 422 157 349 c 0,58,59
 157 312 157 312 160 280 c 256,60,61
 163 248 163 248 169 222 c 256,62,63
 175 196 175 196 184 174 c 256,64,65
 193 152 193 152 205 134 c 0,66,67
 229 99 229 99 265 81 c 256,68,69
 301 63 301 63 351 63 c 0,70,71
 367 63 367 63 382 65 c 256,72,73
 397 67 397 67 410 71 c 0,74,75
 416 72 416 72 422 74 c 0,76,77
 428 77 428 77 433 80 c 0,78,79
 439 83 439 83 444 86 c 0,80,81
 450 89 450 89 456 93 c 1,82,83
 456 234 456 234 456 282 c 1,84,85
 355 282 355 282 322 282 c 1,86,87
 322 341 322 341 322 360 c 1,88,89
 494 360 494 360 552 360 c 1,90,91
 552 158 552 158 552 57 c 1,92,93
 531 40 531 40 509 27 c 0,94,95
 486 14 486 14 461 5 c 0,0,1
EndSplineSet
Validated: 1
EndChar

StartChar: H
Encoding: 72 72 43
Width: 614
GlyphClass: 1
Flags: W
LayerCount: 2
Fore
SplineSet
69 0 m 1,0,1
 69 526 69 526 69 701 c 1,2,3
 145 701 145 701 170 701 c 1,4,5
 170 486 170 486 170 414 c 1,6,7
 377 414 377 414 446 414 c 1,8,9
 446 630 446 630 446 701 c 1,10,11
 522 701 522 701 548 701 c 1,12,13
 548 175 548 175 548 0 c 1,14,15
 472 0 472 0 446 0 c 1,16,17
 446 250 446 250 446 334 c 1,18,19
 239 334 239 334 170 334 c 1,20,21
 170 83 170 83 170 0 c 1,22,23
 94 0 94 0 69 0 c 1,0,1
EndSplineSet
Validated: 1
EndChar

StartChar: I
Encoding: 73 73 44
Width: 614
GlyphClass: 1
Flags: W
LayerCount: 2
Fore
SplineSet
100 0 m 1,0,1
 100 60 100 60 100 80 c 1,2,3
 218 80 218 80 257 80 c 1,4,5
 257 486 257 486 257 622 c 1,6,7
 140 622 140 622 100 622 c 1,8,9
 100 681 100 681 100 701 c 1,10,11
 411 701 411 701 515 701 c 1,12,13
 515 642 515 642 515 622 c 1,14,15
 398 622 398 622 358 622 c 1,16,17
 358 215 358 215 358 80 c 1,18,19
 476 80 476 80 515 80 c 1,20,21
 515 20 515 20 515 0 c 1,22,23
 204 0 204 0 100 0 c 1,0,1
EndSplineSet
Validated: 1
EndChar

StartChar: J
Encoding: 74 74 45
Width: 614
GlyphClass: 1
Flags: W
LayerCount: 2
Fore
SplineSet
382 10 m 0,0,1
 364 0 364 0 336 -4 c 0,2,3
 307 -9 307 -9 266 -9 c 0,4,5
 182 -9 182 -9 154 -9 c 0,6,7
 84 -9 84 -9 61 -9 c 1,8,9
 61 48 61 48 61 68 c 1,10,11
 123 68 123 68 143 68 c 0,12,13
 212 68 212 68 246 68 c 0,14,15
 263 68 263 68 278 69 c 0,16,17
 293 71 293 71 307 74 c 256,18,19
 321 77 321 77 332 83 c 0,20,21
 342 89 342 89 349 98 c 0,22,23
 363 116 363 116 370 149 c 256,24,25
 377 182 377 182 377 229 c 0,26,27
 377 524 377 524 377 622 c 1,28,29
 234 622 234 622 186 622 c 1,30,31
 186 681 186 681 186 701 c 1,32,33
 405 701 405 701 478 701 c 1,34,35
 478 387 478 387 478 229 c 0,36,37
 478 185 478 185 472 149 c 0,38,39
 466 114 466 114 455 87 c 0,40,41
 443 60 443 60 425 41 c 0,42,43
 407 23 407 23 382 10 c 0,0,1
EndSplineSet
Validated: 1
EndChar

StartChar: K
Encoding: 75 75 46
Width: 614
GlyphClass: 1
Flags: W
LayerCount: 2
Fore
SplineSet
69 0 m 1,0,1
 69 526 69 526 69 701 c 1,2,3
 145 701 145 701 170 701 c 1,4,5
 170 493 170 493 170 389 c 1,6,7
 208 427 208 427 266 484 c 0,8,9
 324 542 324 542 380 598 c 0,10,11
 410 627 410 627 437 654 c 0,12,13
 465 681 465 681 485 701 c 1,14,15
 574 701 574 701 604 701 c 1,16,17
 410 510 410 510 313 415 c 1,18,19
 350 364 350 364 405 288 c 256,20,21
 460 212 460 212 513 138 c 0,22,23
 541 99 541 99 567 63 c 256,24,25
 593 27 593 27 612 0 c 1,26,27
 531 0 531 0 490 0 c 1,28,29
 461 43 461 43 416 107 c 0,30,31
 371 172 371 172 328 234 c 0,32,33
 305 268 305 268 284 298 c 256,34,35
 263 328 263 328 247 351 c 1,36,37
 189 294 189 294 170 274 c 1,38,39
 170 69 170 69 170 0 c 1,40,41
 94 0 94 0 69 0 c 1,0,1
EndSplineSet
Validated: 1
EndChar

StartChar: L
Encoding: 76 76 47
Width: 614
GlyphClass: 1
Flags: W
LayerCount: 2
Fore
SplineSet
108 0 m 1,0,1
 108 526 108 526 108 701 c 1,2,3
 184 701 184 701 209 701 c 1,4,5
 209 235 209 235 209 80 c 1,6,7
 479 80 479 80 569 80 c 1,8,9
 569 20 569 20 569 0 c 1,10,11
 223 0 223 0 108 0 c 1,0,1
EndSplineSet
Validated: 1
EndChar

StartChar: M
Encoding: 77 77 48
Width: 614
GlyphClass: 1
Flags: W
LayerCount: 2
Fore
SplineSet
38 0 m 1,0,1
 38 526 38 526 38 701 c 1,2,3
 139 701 139 701 173 701 c 1,4,5
 263 472 263 472 308 357 c 1,6,7
 325 399 325 399 350 463 c 0,8,9
 375 526 375 526 399 587 c 0,10,11
 412 620 412 620 424 649 c 0,12,13
 436 679 436 679 444 701 c 1,14,15
 546 701 546 701 580 701 c 1,16,17
 580 175 580 175 580 0 c 1,18,19
 514 0 514 0 492 0 c 1,20,21
 492 410 492 410 492 614 c 1,22,23
 474 570 474 570 447 501 c 0,24,25
 421 433 421 433 395 367 c 0,26,27
 381 332 381 332 369 300 c 256,28,29
 357 268 357 268 347 244 c 1,30,31
 296 244 296 244 270 244 c 1,32,33
 261 268 261 268 249 300 c 0,34,35
 236 332 236 332 222 367 c 0,36,37
 197 433 197 433 170 501 c 0,38,39
 143 570 143 570 126 614 c 1,40,41
 126 154 126 154 126 0 c 1,42,43
 60 0 60 0 38 0 c 1,0,1
EndSplineSet
Validated: 1
EndChar

StartChar: N
Encoding: 78 78 49
Width: 614
GlyphClass: 1
Flags: W
LayerCount: 2
Fore
SplineSet
70 0 m 1,0,1
 70 526 70 526 70 701 c 1,2,3
 155 701 155 701 198 701 c 1,4,5
 229 632 229 632 275 527 c 256,6,7
 321 422 321 422 366 320 c 0,8,9
 390 266 390 266 411 217 c 0,10,11
 433 168 433 168 450 130 c 1,12,13
 450 559 450 559 450 701 c 1,14,15
 522 701 522 701 547 701 c 1,16,17
 547 175 547 175 547 0 c 1,18,19
 461 0 461 0 419 0 c 1,20,21
 388 70 388 70 342 175 c 0,22,23
 295 280 295 280 251 381 c 0,24,25
 227 436 227 436 205 485 c 0,26,27
 184 534 184 534 167 571 c 1,28,29
 167 143 167 143 167 0 c 1,30,31
 94 0 94 0 70 0 c 1,0,1
EndSplineSet
Validated: 1
EndChar

StartChar: O
Encoding: 79 79 50
Width: 614
GlyphClass: 1
Flags: W
LayerCount: 2
Fore
SplineSet
417 12 m 0,0,1
 393 2 393 2 366 -4 c 0,2,3
 339 -9 339 -9 308 -9 c 0,4,5
 245 -9 245 -9 198 14 c 0,6,7
 151 36 151 36 120 81 c 0,8,9
 89 125 89 125 74 193 c 0,10,11
 58 260 58 260 58 350 c 256,12,13
 58 440 58 440 74 508 c 0,14,15
 90 575 90 575 121 620 c 256,16,17
 152 665 152 665 199 687 c 0,18,19
 246 710 246 710 308 710 c 0,20,21
 339 710 339 710 366 704 c 0,22,23
 393 699 393 699 417 688 c 256,24,25
 441 677 441 677 461 660 c 256,26,27
 481 643 481 643 497 620 c 0,28,29
 527 574 527 574 543 507 c 0,30,31
 558 440 558 440 558 350 c 0,32,33
 558 261 558 261 543 194 c 0,34,35
 527 126 527 126 497 81 c 0,36,37
 481 57 481 57 461 40 c 256,38,39
 441 23 441 23 417 12 c 0,0,1
198 134 m 0,40,41
 215 101 215 101 243 85 c 256,42,43
 271 69 271 69 308 69 c 0,44,45
 347 69 347 69 374 85 c 0,46,47
 402 101 402 101 419 134 c 0,48,49
 436 166 436 166 444 221 c 0,50,51
 453 275 453 275 453 350 c 256,52,53
 453 425 453 425 444 480 c 0,54,55
 436 534 436 534 419 566 c 0,56,57
 402 599 402 599 374 616 c 0,58,59
 347 633 347 633 308 633 c 0,60,61
 271 633 271 633 243 616 c 256,62,63
 215 599 215 599 198 566 c 0,64,65
 181 532 181 532 172 479 c 0,66,67
 164 425 164 425 164 350 c 0,68,69
 164 276 164 276 172 222 c 0,70,71
 181 168 181 168 198 134 c 0,40,41
EndSplineSet
Validated: 1
EndChar

StartChar: P
Encoding: 80 80 51
Width: 614
GlyphClass: 1
Flags: W
LayerCount: 2
Fore
SplineSet
86 0 m 1,0,1
 86 526 86 526 86 701 c 1,2,3
 231 701 231 701 304 701 c 0,4,5
 366 701 366 701 413 688 c 0,6,7
 461 675 461 675 494 648 c 0,8,9
 510 634 510 634 523 618 c 0,10,11
 535 602 535 602 543 582 c 0,12,13
 550 562 550 562 554 539 c 256,14,15
 558 516 558 516 558 492 c 0,16,17
 558 440 558 440 542 401 c 256,18,19
 526 362 526 362 494 335 c 256,20,21
 462 308 462 308 415 295 c 0,22,23
 367 282 367 282 304 282 c 0,24,25
 217 282 217 282 187 282 c 1,26,27
 187 70 187 70 187 0 c 1,28,29
 111 0 111 0 86 0 c 1,0,1
187 360 m 1,30,31
 265 360 265 360 304 360 c 0,32,33
 323 360 323 360 339 363 c 0,34,35
 355 365 355 365 369 370 c 0,36,37
 382 374 382 374 393 381 c 256,38,39
 404 388 404 388 414 395 c 0,40,41
 433 413 433 413 443 437 c 256,42,43
 453 461 453 461 453 493 c 0,44,45
 453 524 453 524 443 548 c 256,46,47
 433 572 433 572 414 590 c 0,48,49
 394 607 394 607 367 615 c 0,50,51
 340 624 340 624 304 624 c 0,52,53
 217 624 217 624 187 624 c 1,54,55
 187 426 187 426 187 360 c 1,30,31
EndSplineSet
Validated: 1
EndChar

StartChar: Q
Encoding: 81 81 52
Width: 614
GlyphClass: 1
Flags: W
LayerCount: 2
Fore
SplineSet
198 135 m 0,0,1
 215 102 215 102 243 85 c 0,2,3
 271 69 271 69 308 69 c 0,4,5
 347 69 347 69 374 85 c 0,6,7
 402 102 402 102 419 135 c 0,8,9
 436 167 436 167 444 221 c 0,10,11
 453 275 453 275 453 350 c 128,-1,12
 453 425 453 425 444 480 c 0,13,14
 436 534 436 534 419 566 c 0,15,16
 402 599 402 599 374 616 c 0,17,18
 347 633 347 633 308 633 c 0,19,20
 271 633 271 633 243 616 c 128,-1,21
 215 599 215 599 198 566 c 0,22,23
 181 532 181 532 172 479 c 0,24,25
 164 425 164 425 164 350 c 0,26,27
 164 276 164 276 172 223 c 0,28,29
 181 169 181 169 198 135 c 0,0,1
504 92 m 1,30,31
 530 63 530 63 556 32 c 0,32,33
 586 -3 586 -3 616 -38 c 1,34,35
 616 -82 616 -82 616 -97 c 1,36,37
 573 -97 573 -97 552 -97 c 1,38,39
 521 -62 521 -62 490 -27 c 0,40,41
 467 0 467 0 443 27 c 1,42,43
 431 19 431 19 417 13 c 0,44,45
 394 3 394 3 366 -3 c 0,46,47
 339 -8 339 -8 308 -8 c 0,48,49
 245 -8 245 -8 198 14 c 128,-1,50
 151 36 151 36 120 81 c 0,51,52
 89 125 89 125 74 193 c 0,53,54
 58 260 58 260 58 350 c 128,-1,55
 58 440 58 440 74 508 c 0,56,57
 90 575 90 575 121 620 c 128,-1,58
 152 665 152 665 199 687 c 0,59,60
 246 710 246 710 308 710 c 0,61,62
 339 710 339 710 366 704 c 0,63,64
 393 699 393 699 417 688 c 128,-1,65
 441 677 441 677 461 660 c 128,-1,66
 481 643 481 643 497 620 c 0,67,68
 527 574 527 574 543 507 c 0,69,70
 558 440 558 440 558 350 c 0,71,72
 558 257 558 257 543 194 c 0,73,74
 529 135 529 135 504 92 c 1,30,31
EndSplineSet
Validated: 1
EndChar

StartChar: R
Encoding: 82 82 53
Width: 614
GlyphClass: 1
Flags: W
LayerCount: 2
Fore
SplineSet
72 0 m 1,0,1
 72 526 72 526 72 701 c 1,2,3
 218 701 218 701 291 701 c 0,4,5
 352 701 352 701 397 688 c 0,6,7
 441 675 441 675 468 649 c 0,8,9
 501 619 501 619 517 582 c 0,10,11
 534 545 534 545 534 501 c 0,12,13
 534 456 534 456 522 426 c 0,14,15
 511 396 511 396 487 370 c 0,16,17
 468 352 468 352 446 337 c 0,18,19
 423 323 423 323 397 310 c 1,20,21
 413 281 413 281 423 264 c 0,22,23
 432 247 432 247 435 241 c 0,24,25
 438 234 438 234 445 222 c 0,26,27
 451 210 451 210 461 191 c 0,28,29
 486 144 486 144 515 90 c 0,30,31
 543 36 543 36 562 0 c 1,32,33
 490 0 490 0 455 0 c 1,34,35
 438 33 438 33 410 89 c 0,36,37
 382 144 382 144 366 177 c 0,38,39
 356 196 356 196 348 212 c 0,40,41
 340 227 340 227 335 238 c 0,42,43
 329 248 329 248 322 263 c 0,44,45
 314 277 314 277 305 295 c 1,46,47
 281 295 281 295 268 295 c 0,48,49
 258 295 258 295 246 295 c 0,50,51
 234 296 234 296 222 296 c 0,52,53
 185 296 185 296 173 296 c 1,54,55
 173 74 173 74 173 0 c 1,56,57
 97 0 97 0 72 0 c 1,0,1
173 375 m 1,58,59
 247 375 247 375 284 375 c 0,60,61
 324 375 324 375 353 382 c 0,62,63
 382 390 382 390 399 406 c 0,64,65
 417 421 417 421 426 444 c 256,66,67
 435 467 435 467 435 498 c 0,68,69
 435 528 435 528 425 552 c 0,70,71
 416 576 416 576 397 592 c 0,72,73
 388 600 388 600 378 605 c 0,74,75
 367 611 367 611 354 615 c 0,76,77
 341 620 341 620 325 622 c 256,78,79
 309 624 309 624 291 624 c 0,80,81
 202 624 202 624 173 624 c 1,82,83
 173 437 173 437 173 375 c 1,58,59
EndSplineSet
Validated: 1
EndChar

StartChar: S
Encoding: 83 83 54
Width: 614
GlyphClass: 1
Flags: W
LayerCount: 2
Fore
SplineSet
483 39 m 0,0,1
 450 13 450 13 403 0 c 0,2,3
 355 -13 355 -13 292 -13 c 0,4,5
 265 -13 265 -13 239 -11 c 0,6,7
 212 -8 212 -8 185 -3 c 256,8,9
 158 2 158 2 132 10 c 0,10,11
 106 19 106 19 79 29 c 1,12,13
 79 96 79 96 79 130 c 1,14,15
 107 113 107 113 135 101 c 0,16,17
 162 88 162 88 188 80 c 256,18,19
 214 72 214 72 239 68 c 0,20,21
 265 63 265 63 291 63 c 0,22,23
 329 63 329 63 359 71 c 0,24,25
 388 79 388 79 410 95 c 0,26,27
 431 111 431 111 442 135 c 0,28,29
 453 158 453 158 453 188 c 0,30,31
 453 214 453 214 446 233 c 0,32,33
 439 251 439 251 424 265 c 0,34,35
 416 273 416 273 406 280 c 0,36,37
 395 286 395 286 383 291 c 0,38,39
 371 295 371 295 355 300 c 0,40,41
 340 305 340 305 322 309 c 0,42,43
 308 312 308 312 301 313 c 256,44,45
 294 314 294 314 267 321 c 0,46,47
 242 326 242 326 220 333 c 0,48,49
 198 339 198 339 179 347 c 256,50,51
 160 355 160 355 145 365 c 0,52,53
 129 375 129 375 117 387 c 0,54,55
 93 409 93 409 81 439 c 0,56,57
 70 469 70 469 70 507 c 0,58,59
 70 554 70 554 87 593 c 0,60,61
 103 631 103 631 137 658 c 0,62,63
 153 671 153 671 173 682 c 0,64,65
 192 692 192 692 214 699 c 256,66,67
 236 706 236 706 262 711 c 0,68,69
 287 715 287 715 315 715 c 0,70,71
 337 715 337 715 359 712 c 0,72,73
 382 710 382 710 406 706 c 0,74,75
 417 703 417 703 430 700 c 0,76,77
 442 697 442 697 455 694 c 0,78,79
 467 691 467 691 480 687 c 0,80,81
 493 682 493 682 506 678 c 1,82,83
 506 614 506 614 506 582 c 1,84,85
 494 589 494 589 482 595 c 256,86,87
 470 601 470 601 459 606 c 0,88,89
 447 612 447 612 436 616 c 256,90,91
 425 620 425 620 414 624 c 0,92,93
 391 631 391 631 367 634 c 0,94,95
 344 637 344 637 321 637 c 0,96,97
 284 637 284 637 257 630 c 0,98,99
 229 622 229 622 208 606 c 256,100,101
 187 590 187 590 177 568 c 0,102,103
 166 547 166 547 166 519 c 0,104,105
 166 507 166 507 168 497 c 0,106,107
 169 488 169 488 173 479 c 0,108,109
 177 471 177 471 182 464 c 0,110,111
 187 458 187 458 194 452 c 0,112,113
 208 439 208 439 233 428 c 256,114,115
 258 417 258 417 295 410 c 0,116,117
 308 407 308 407 315 405 c 0,118,119
 321 404 321 404 348 398 c 0,120,121
 400 388 400 388 438 370 c 256,122,123
 476 352 476 352 501 327 c 0,124,125
 525 302 525 302 537 268 c 0,126,127
 549 235 549 235 549 193 c 0,128,129
 549 166 549 166 544 143 c 0,130,131
 540 121 540 121 531 101 c 0,132,133
 523 82 523 82 511 67 c 0,134,135
 499 51 499 51 483 39 c 0,0,1
EndSplineSet
Validated: 1
EndChar

StartChar: T
Encoding: 84 84 55
Width: 614
GlyphClass: 1
Flags: W
LayerCount: 2
Fore
SplineSet
258 0 m 1,0,1
 258 466 258 466 258 622 c 1,2,3
 82 622 82 622 24 622 c 1,4,5
 24 681 24 681 24 701 c 1,6,7
 451 701 451 701 593 701 c 1,8,9
 593 642 593 642 593 622 c 1,10,11
 418 622 418 622 359 622 c 1,12,13
 359 155 359 155 359 0 c 1,14,15
 283 0 283 0 258 0 c 1,0,1
EndSplineSet
Validated: 1
EndChar

StartChar: U
Encoding: 85 85 56
Width: 614
GlyphClass: 1
Flags: W
LayerCount: 2
Fore
SplineSet
368 -10 m 0,0,1
 353 -12 353 -12 338 -13 c 0,2,3
 324 -13 324 -13 309 -13 c 0,4,5
 288 -13 288 -13 260 -10 c 0,6,7
 233 -7 233 -7 201 0 c 0,8,9
 191 3 191 3 181 8 c 0,10,11
 172 12 172 12 161 17 c 0,12,13
 150 23 150 23 141 28 c 0,14,15
 132 34 132 34 124 41 c 256,16,17
 116 48 116 48 109 56 c 0,18,19
 102 63 102 63 96 73 c 0,20,21
 90 82 90 82 85 93 c 256,22,23
 80 104 80 104 76 117 c 0,24,25
 72 128 72 128 69 143 c 256,26,27
 66 158 66 158 65 176 c 0,28,29
 63 194 63 194 62 217 c 0,30,31
 60 240 60 240 60 269 c 0,32,33
 60 593 60 593 60 701 c 1,34,35
 137 701 137 701 163 701 c 1,36,37
 163 385 163 385 163 226 c 0,38,39
 163 201 163 201 163 183 c 0,40,41
 163 164 163 164 165 154 c 0,42,43
 166 143 166 143 169 134 c 0,44,45
 172 126 172 126 176 120 c 0,46,47
 184 106 184 106 195 95 c 0,48,49
 207 85 207 85 222 78 c 0,50,51
 238 71 238 71 259 67 c 0,52,53
 281 63 281 63 308 63 c 0,54,55
 337 63 337 63 358 67 c 256,56,57
 379 71 379 71 394 78 c 0,58,59
 410 86 410 86 421 96 c 0,60,61
 433 107 433 107 440 120 c 0,62,63
 444 127 444 127 447 135 c 256,64,65
 450 143 450 143 452 153 c 0,66,67
 453 163 453 163 453 182 c 0,68,69
 454 200 454 200 454 225 c 0,70,71
 454 582 454 582 454 701 c 1,72,73
 530 701 530 701 555 701 c 1,74,75
 555 413 555 413 555 269 c 0,76,77
 555 239 555 239 554 214 c 0,78,79
 553 190 553 190 551 173 c 256,80,81
 549 156 549 156 546 142 c 0,82,83
 544 127 544 127 541 117 c 0,84,85
 534 94 534 94 522 75 c 256,86,87
 510 56 510 56 493 41 c 0,88,89
 484 34 484 34 475 28 c 0,90,91
 466 23 466 23 456 17 c 0,92,93
 446 12 446 12 436 8 c 0,94,95
 426 3 426 3 416 0 c 0,96,97
 407 -3 407 -3 394 -6 c 0,98,99
 382 -9 382 -9 368 -10 c 0,0,1
EndSplineSet
Validated: 1
EndChar

StartChar: V
Encoding: 86 86 57
Width: 614
GlyphClass: 1
Flags: W
LayerCount: 2
Fore
SplineSet
247 0 m 1,0,1
 220 85 220 85 180 214 c 256,2,3
 140 343 140 343 101 468 c 0,4,5
 80 535 80 535 62 595 c 0,6,7
 43 655 43 655 29 701 c 1,8,9
 94 701 94 701 127 701 c 1,10,11
 139 661 139 661 154 608 c 0,12,13
 170 555 170 555 187 497 c 0,14,15
 219 387 219 387 253 274 c 0,16,17
 286 161 286 161 308 86 c 1,18,19
 330 161 330 161 364 274 c 0,20,21
 397 387 397 387 429 497 c 0,22,23
 447 555 447 555 462 608 c 0,24,25
 478 661 478 661 489 701 c 1,26,27
 555 701 555 701 588 701 c 1,28,29
 561 616 561 616 521 487 c 256,30,31
 481 358 481 358 442 233 c 0,32,33
 421 167 421 167 403 106 c 0,34,35
 384 46 384 46 370 0 c 1,36,37
 278 0 278 0 247 0 c 1,0,1
EndSplineSet
Validated: 1
EndChar

StartChar: W
Encoding: 87 87 58
Width: 614
GlyphClass: 1
Flags: W
LayerCount: 2
Fore
SplineSet
112 0 m 1,0,1
 98 85 98 85 78 214 c 256,2,3
 58 343 58 343 39 468 c 0,4,5
 28 535 28 535 19 595 c 0,6,7
 9 655 9 655 2 701 c 1,8,9
 59 701 59 701 88 701 c 1,10,11
 98 633 98 633 112 530 c 256,12,13
 126 427 126 427 140 328 c 0,14,15
 147 274 147 274 154 226 c 256,16,17
 161 178 161 178 166 141 c 1,18,19
 176 200 176 200 192 308 c 256,20,21
 208 416 208 416 224 519 c 0,22,23
 232 574 232 574 239 622 c 0,24,25
 247 669 247 669 252 701 c 1,26,27
 326 701 326 701 364 701 c 1,28,29
 373 642 373 642 390 534 c 0,30,31
 406 426 406 426 422 323 c 0,32,33
 430 268 430 268 438 220 c 0,34,35
 445 172 445 172 451 140 c 1,36,37
 509 561 509 561 528 701 c 1,38,39
 586 701 586 701 614 701 c 1,40,41
 607 655 607 655 598 595 c 0,42,43
 588 535 588 535 578 468 c 0,44,45
 558 343 558 343 538 214 c 256,46,47
 518 85 518 85 505 0 c 1,48,49
 439 0 439 0 406 0 c 1,50,51
 399 41 399 41 389 106 c 0,52,53
 378 171 378 171 366 244 c 0,54,55
 360 283 360 283 354 323 c 0,56,57
 347 363 347 363 341 401 c 0,58,59
 331 460 331 460 323 511 c 0,60,61
 314 562 314 562 308 596 c 1,62,63
 304 574 304 574 299 544 c 0,64,65
 294 515 294 515 288 481 c 0,66,67
 278 416 278 416 266 341 c 256,68,69
 254 266 254 266 242 195 c 0,70,71
 233 136 233 136 224 85 c 0,72,73
 216 34 216 34 210 0 c 1,74,75
 136 0 136 0 112 0 c 1,0,1
EndSplineSet
Validated: 1
EndChar

StartChar: X
Encoding: 88 88 59
Width: 614
GlyphClass: 1
Flags: W
LayerCount: 2
Fore
SplineSet
9 0 m 1,0,1
 26 24 26 24 47 56 c 0,2,3
 69 88 69 88 92 124 c 0,4,5
 137 190 137 190 183 258 c 256,6,7
 229 326 229 326 259 372 c 1,8,9
 242 395 242 395 222 423 c 256,10,11
 202 451 202 451 180 481 c 0,12,13
 140 537 140 537 99 595 c 0,14,15
 57 654 57 654 24 701 c 1,16,17
 96 701 96 701 132 701 c 1,18,19
 171 644 171 644 221 572 c 0,20,21
 271 501 271 501 315 437 c 1,22,23
 336 470 336 470 366 518 c 0,24,25
 397 566 397 566 427 613 c 0,26,27
 443 638 443 638 457 661 c 256,28,29
 471 684 471 684 482 701 c 1,30,31
 555 701 555 701 591 701 c 1,32,33
 563 661 563 661 523 601 c 0,34,35
 482 540 482 540 442 482 c 0,36,37
 421 450 421 450 402 422 c 0,38,39
 382 394 382 394 368 372 c 1,40,41
 397 326 397 326 441 258 c 256,42,43
 485 190 485 190 528 124 c 0,44,45
 550 88 550 88 571 56 c 256,46,47
 592 24 592 24 607 0 c 1,48,49
 535 0 535 0 499 0 c 1,50,51
 487 20 487 20 471 46 c 256,52,53
 455 72 455 72 438 101 c 0,54,55
 405 154 405 154 371 210 c 0,56,57
 338 265 338 265 315 302 c 1,58,59
 291 265 291 265 255 210 c 0,60,61
 219 154 219 154 184 101 c 0,62,63
 165 72 165 72 148 46 c 256,64,65
 131 20 131 20 118 0 c 1,66,67
 36 0 36 0 9 0 c 1,0,1
EndSplineSet
Validated: 1
EndChar

StartChar: Y
Encoding: 89 89 60
Width: 614
GlyphClass: 1
Flags: W
LayerCount: 2
Fore
SplineSet
257 0 m 1,0,1
 257 210 257 210 257 315 c 1,2,3
 228 362 228 362 184 433 c 256,4,5
 140 504 140 504 98 573 c 0,6,7
 75 610 75 610 55 643 c 0,8,9
 34 676 34 676 18 701 c 1,10,11
 90 701 90 701 126 701 c 1,12,13
 148 663 148 663 182 607 c 0,14,15
 215 550 215 550 248 495 c 0,16,17
 265 466 265 466 281 439 c 0,18,19
 296 413 296 413 308 392 c 1,20,21
 330 430 330 430 364 487 c 0,22,23
 397 544 397 544 429 598 c 0,24,25
 447 628 447 628 462 655 c 0,26,27
 478 681 478 681 489 701 c 1,28,29
 562 701 562 701 598 701 c 1,30,31
 569 655 569 655 525 583 c 0,32,33
 481 512 481 512 438 444 c 0,34,35
 415 407 415 407 395 374 c 0,36,37
 374 341 374 341 358 315 c 1,38,39
 358 79 358 79 358 0 c 1,40,41
 282 0 282 0 257 0 c 1,0,1
EndSplineSet
Validated: 1
EndChar

StartChar: Z
Encoding: 90 90 61
Width: 614
GlyphClass: 1
Flags: W
LayerCount: 2
Fore
SplineSet
55 0 m 1,0,1
 55 48 55 48 55 73 c 1,2,3
 102 140 102 140 171 240 c 0,4,5
 241 341 241 341 308 439 c 0,6,7
 344 491 344 491 377 538 c 0,8,9
 409 586 409 586 434 622 c 1,10,11
 158 622 158 622 66 622 c 1,12,13
 66 681 66 681 66 701 c 1,14,15
 430 701 430 701 551 701 c 1,16,17
 551 654 551 654 551 630 c 1,18,19
 525 594 525 594 492 547 c 0,20,21
 458 499 458 499 421 447 c 0,22,23
 352 349 352 349 280 248 c 256,24,25
 208 147 208 147 161 80 c 1,26,27
 461 80 461 80 561 80 c 1,28,29
 561 20 561 20 561 0 c 1,30,31
 182 0 182 0 55 0 c 1,0,1
EndSplineSet
Validated: 1
EndChar

StartChar: bracketleft
Encoding: 91 91 62
Width: 614
GlyphClass: 1
Flags: W
LayerCount: 2
Fore
SplineSet
148 -90 m 1,0,1
 148 571 148 571 148 792 c 1,2,3
 383 792 383 792 461 792 c 1,4,5
 461 736 461 736 461 718 c 1,6,7
 296 718 296 718 241 718 c 1,8,9
 241 168 241 168 241 -15 c 1,10,11
 406 -15 406 -15 461 -15 c 1,12,13
 461 -71 461 -71 461 -90 c 1,14,15
 227 -90 227 -90 148 -90 c 1,0,1
EndSplineSet
Validated: 1
EndChar

StartChar: backslash
Encoding: 92 92 63
Width: 614
GlyphClass: 1
Flags: W
LayerCount: 2
Fore
SplineSet
158 745 m 1,0,1
 189 683 189 683 231 597 c 0,2,3
 274 512 274 512 321 419 c 0,4,5
 345 368 345 368 371 318 c 0,6,7
 396 267 396 267 421 217 c 0,8,9
 458 142 458 142 492 74 c 256,10,11
 526 6 526 6 552 -46 c 1,12,13
 488 -46 488 -46 456 -46 c 1,14,15
 430 6 430 6 396 74 c 256,16,17
 362 142 362 142 325 217 c 0,18,19
 300 266 300 266 275 317 c 256,20,21
 250 368 250 368 225 419 c 0,22,23
 179 512 179 512 136 597 c 0,24,25
 94 683 94 683 62 745 c 1,26,27
 134 745 134 745 158 745 c 1,0,1
EndSplineSet
Validated: 1
EndChar

StartChar: bracketright
Encoding: 93 93 64
Width: 614
GlyphClass: 1
Flags: W
LayerCount: 2
Fore
SplineSet
154 -89 m 1,0,1
 154 -33 154 -33 154 -14 c 1,2,3
 319 -14 319 -14 374 -14 c 1,4,5
 374 535 374 535 374 718 c 1,6,7
 209 718 209 718 154 718 c 1,8,9
 154 773 154 773 154 792 c 1,10,11
 388 792 388 792 466 792 c 1,12,13
 466 131 466 131 466 -89 c 1,14,15
 232 -89 232 -89 154 -89 c 1,0,1
EndSplineSet
Validated: 1
EndChar

StartChar: asciicircum
Encoding: 94 94 65
Width: 614
GlyphClass: 1
Flags: W
LayerCount: 2
Fore
SplineSet
61 433 m 1,0,1
 86 466 86 466 123 515 c 0,2,3
 161 564 161 564 197 612 c 0,4,5
 216 638 216 638 234 661 c 0,6,7
 251 684 251 684 264 701 c 1,8,9
 323 701 323 701 352 701 c 1,10,11
 377 669 377 669 414 620 c 0,12,13
 451 570 451 570 488 522 c 0,14,15
 507 497 507 497 524 474 c 0,16,17
 542 451 542 451 555 433 c 1,18,19
 481 433 481 433 444 433 c 1,20,21
 436 446 436 446 424 462 c 256,22,23
 412 478 412 478 399 496 c 0,24,25
 375 530 375 530 350 566 c 0,26,27
 325 601 325 601 308 624 c 1,28,29
 292 601 292 601 267 566 c 0,30,31
 242 530 242 530 217 496 c 0,32,33
 204 478 204 478 193 462 c 0,34,35
 181 446 181 446 172 433 c 1,36,37
 89 433 89 433 61 433 c 1,0,1
EndSplineSet
Validated: 1
EndChar

StartChar: underscore
Encoding: 95 95 66
Width: 614
GlyphClass: 1
Flags: W
LayerCount: 2
Fore
SplineSet
-9 -89 m 1,0,1
 -9 -32 -9 -32 -9 -13 c 1,2,3
 467 -13 467 -13 626 -13 c 1,4,5
 626 -70 626 -70 626 -89 c 1,6,7
 150 -89 150 -89 -9 -89 c 1,0,1
EndSplineSet
Validated: 1
EndChar

StartChar: grave
Encoding: 96 96 67
Width: 614
GlyphClass: 1
Flags: W
LayerCount: 2
Fore
SplineSet
425 563 m 1,0,1
 351 563 351 563 313 563 c 1,2,3
 295 588 295 588 268 626 c 0,4,5
 241 665 241 665 216 701 c 0,6,7
 202 721 202 721 189 739 c 0,8,9
 177 757 177 757 167 770 c 1,10,11
 241 770 241 770 278 770 c 1,12,13
 287 757 287 757 300 739 c 256,14,15
 313 721 313 721 327 701 c 0,16,17
 353 664 353 664 380 626 c 256,18,19
 407 588 407 588 425 563 c 1,0,1
EndSplineSet
Validated: 1
EndChar

StartChar: a
Encoding: 97 97 68
Width: 614
GlyphClass: 1
Flags: W
LayerCount: 2
Fore
SplineSet
366 4 m 0,0,1
 339 -5 339 -5 312 -9 c 0,2,3
 284 -13 284 -13 255 -13 c 0,4,5
 214 -13 214 -13 181 -2 c 0,6,7
 147 8 147 8 121 31 c 0,8,9
 95 53 95 53 81 84 c 0,10,11
 68 115 68 115 68 157 c 0,12,13
 68 190 68 190 77 217 c 256,14,15
 86 244 86 244 103 263 c 0,16,17
 121 282 121 282 144 296 c 0,18,19
 166 309 166 309 195 316 c 0,20,21
 223 324 223 324 253 328 c 0,22,23
 283 333 283 333 315 333 c 0,24,25
 408 333 408 333 438 333 c 1,26,27
 438 342 438 342 438 346 c 0,28,29
 438 380 438 380 430 403 c 0,30,31
 421 426 421 426 402 439 c 0,32,33
 384 452 384 452 359 459 c 0,34,35
 333 466 333 466 300 466 c 0,36,37
 244 466 244 466 216 466 c 0,38,39
 199 466 199 466 181 465 c 0,40,41
 162 465 162 465 142 464 c 1,42,43
 142 512 142 512 142 537 c 1,44,45
 164 537 164 537 182 537 c 0,46,47
 201 537 201 537 217 538 c 0,48,49
 233 538 233 538 253 538 c 0,50,51
 273 539 273 539 298 539 c 256,52,53
 323 539 323 539 347 536 c 0,54,55
 371 532 371 532 395 526 c 256,56,57
 419 520 419 520 440 509 c 0,58,59
 460 498 460 498 477 483 c 0,60,61
 494 469 494 469 506 449 c 0,62,63
 518 430 518 430 523 406 c 0,64,65
 527 388 527 388 529 362 c 0,66,67
 531 335 531 335 531 300 c 0,68,69
 531 219 531 219 531 193 c 0,70,71
 531 128 531 128 531 95 c 0,72,73
 531 68 531 68 531 44 c 256,74,75
 531 20 531 20 530 -1 c 1,76,77
 510 -1 510 -1 499 -1 c 0,78,79
 489 -1 489 -1 447 0 c 1,80,81
 448 15 448 15 448 24 c 0,82,83
 449 34 449 34 449 39 c 256,84,85
 449 44 449 44 448 51 c 0,86,87
 447 59 447 59 447 70 c 1,88,89
 433 46 433 46 412 30 c 0,90,91
 392 13 392 13 366 4 c 0,0,1
193 83 m 0,92,93
 209 71 209 71 230 65 c 0,94,95
 251 58 251 58 278 58 c 0,96,97
 306 58 306 58 329 65 c 256,98,99
 352 72 352 72 370 85 c 0,100,101
 387 98 387 98 400 115 c 256,102,103
 413 132 413 132 422 154 c 0,104,105
 430 175 430 175 434 198 c 256,106,107
 438 221 438 221 438 246 c 0,108,109
 438 260 438 260 438 264 c 1,110,111
 360 264 360 264 322 264 c 0,112,113
 302 264 302 264 283 262 c 256,114,115
 264 260 264 260 246 256 c 0,116,117
 227 252 227 252 212 244 c 0,118,119
 197 237 197 237 184 225 c 0,120,121
 172 214 172 214 166 197 c 256,122,123
 160 180 160 180 160 158 c 0,124,125
 160 133 160 133 168 114 c 256,126,127
 176 95 176 95 193 83 c 0,92,93
EndSplineSet
Validated: 1
EndChar

StartChar: b
Encoding: 98 98 69
Width: 614
GlyphClass: 1
Flags: W
LayerCount: 2
Fore
SplineSet
443 11 m 0,0,1
 423 -1 423 -1 397 -7 c 0,2,3
 372 -13 372 -13 342 -13 c 0,4,5
 289 -13 289 -13 251 7 c 0,6,7
 212 27 212 27 188 67 c 1,8,9
 186 50 186 50 183 31 c 0,10,11
 181 12 181 12 179 0 c 1,12,13
 117 0 117 0 96 0 c 1,14,15
 96 569 96 569 96 758 c 1,16,17
 165 758 165 758 188 758 c 1,18,19
 188 559 188 559 188 459 c 1,20,21
 200 479 200 479 216 494 c 256,22,23
 232 509 232 509 252 519 c 256,24,25
 272 529 272 529 295 534 c 256,26,27
 318 539 318 539 343 539 c 0,28,29
 373 539 373 539 398 533 c 0,30,31
 424 527 424 527 444 515 c 0,32,33
 465 503 465 503 481 487 c 0,34,35
 498 471 498 471 510 451 c 256,36,37
 522 431 522 431 531 408 c 0,38,39
 539 386 539 386 545 361 c 0,40,41
 550 337 550 337 553 312 c 0,42,43
 556 288 556 288 556 263 c 0,44,45
 556 239 556 239 553 214 c 256,46,47
 550 189 550 189 545 165 c 0,48,49
 539 140 539 140 530 118 c 256,50,51
 521 96 521 96 509 76 c 256,52,53
 497 56 497 56 480 40 c 0,54,55
 464 24 464 24 443 11 c 0,0,1
263 79 m 256,56,57
 277 69 277 69 295 64 c 0,58,59
 314 59 314 59 337 59 c 256,60,61
 360 59 360 59 379 64 c 256,62,63
 398 69 398 69 412 79 c 256,64,65
 426 89 426 89 437 101 c 0,66,67
 448 114 448 114 455 129 c 0,68,69
 463 144 463 144 468 161 c 256,70,71
 473 178 473 178 475 196 c 0,72,73
 477 213 477 213 479 230 c 0,74,75
 480 247 480 247 480 263 c 256,76,77
 480 279 480 279 479 296 c 0,78,79
 477 312 477 312 475 330 c 0,80,81
 473 347 473 347 468 364 c 256,82,83
 463 381 463 381 455 396 c 0,84,85
 448 412 448 412 437 424 c 256,86,87
 426 436 426 436 412 446 c 256,88,89
 398 456 398 456 379 461 c 256,90,91
 360 466 360 466 337 466 c 256,92,93
 314 466 314 466 295 461 c 0,94,95
 277 456 277 456 263 446 c 256,96,97
 249 436 249 436 238 424 c 256,98,99
 227 412 227 412 219 396 c 0,100,101
 212 381 212 381 206 365 c 0,102,103
 201 348 201 348 199 331 c 0,104,105
 196 313 196 313 195 296 c 0,106,107
 193 279 193 279 193 263 c 256,108,109
 193 247 193 247 195 230 c 0,110,111
 196 213 196 213 199 196 c 0,112,113
 201 178 201 178 206 161 c 0,114,115
 212 144 212 144 219 129 c 0,116,117
 227 114 227 114 238 101 c 0,118,119
 249 89 249 89 263 79 c 256,56,57
EndSplineSet
Validated: 1
EndChar

StartChar: c
Encoding: 99 99 70
Width: 614
GlyphClass: 1
Flags: W
LayerCount: 2
Fore
SplineSet
515 27 m 1,0,1
 479 7 479 7 438 -3 c 0,2,3
 398 -13 398 -13 352 -13 c 0,4,5
 308 -13 308 -13 271 -5 c 0,6,7
 234 4 234 4 204 22 c 0,8,9
 174 39 174 39 151 63 c 256,10,11
 128 87 128 87 113 119 c 0,12,13
 97 150 97 150 90 186 c 0,14,15
 82 222 82 222 82 263 c 256,16,17
 82 304 82 304 90 339 c 0,18,19
 97 375 97 375 113 407 c 0,20,21
 128 438 128 438 151 462 c 0,22,23
 175 486 175 486 205 504 c 0,24,25
 235 521 235 521 272 530 c 0,26,27
 310 539 310 539 354 539 c 0,28,29
 377 539 377 539 399 537 c 0,30,31
 420 535 420 535 438 529 c 0,32,33
 457 524 457 524 476 516 c 0,34,35
 496 509 496 509 515 499 c 1,36,37
 515 438 515 438 515 408 c 1,38,39
 497 422 497 422 479 433 c 0,40,41
 461 445 461 445 443 452 c 0,42,43
 426 458 426 458 406 462 c 256,44,45
 386 466 386 466 362 466 c 0,46,47
 329 466 329 466 302 459 c 256,48,49
 275 452 275 452 255 438 c 256,50,51
 235 424 235 424 220 407 c 0,52,53
 206 389 206 389 197 366 c 256,54,55
 188 343 188 343 184 317 c 0,56,57
 179 292 179 292 179 263 c 0,58,59
 179 236 179 236 183 210 c 256,60,61
 187 184 187 184 197 161 c 0,62,63
 206 138 206 138 220 119 c 0,64,65
 235 101 235 101 255 87 c 256,66,67
 275 73 275 73 302 66 c 256,68,69
 329 59 329 59 362 59 c 0,70,71
 385 59 385 59 405 63 c 256,72,73
 425 67 425 67 444 74 c 0,74,75
 464 81 464 81 481 91 c 0,76,77
 499 102 499 102 515 117 c 1,78,79
 515 49 515 49 515 27 c 1,0,1
EndSplineSet
Validated: 1
EndChar

StartChar: d
Encoding: 100 100 71
Width: 614
GlyphClass: 1
Flags: W
LayerCount: 2
Fore
SplineSet
429 67 m 1,0,1
 404 27 404 27 367 7 c 0,2,3
 329 -13 329 -13 278 -13 c 0,4,5
 247 -13 247 -13 221 -7 c 256,6,7
 195 -1 195 -1 174 11 c 0,8,9
 153 24 153 24 137 39 c 0,10,11
 120 55 120 55 108 76 c 0,12,13
 95 97 95 97 87 119 c 0,14,15
 78 142 78 142 73 167 c 0,16,17
 67 191 67 191 64 216 c 256,18,19
 61 241 61 241 61 266 c 0,20,21
 61 329 61 329 76 379 c 256,22,23
 91 429 91 429 120 466 c 256,24,25
 149 503 149 503 189 521 c 256,26,27
 229 539 229 539 279 539 c 0,28,29
 303 539 303 539 325 534 c 256,30,31
 347 529 347 529 367 519 c 0,32,33
 386 509 386 509 402 494 c 256,34,35
 418 479 418 479 429 459 c 1,36,37
 429 682 429 682 429 757 c 1,38,39
 498 757 498 757 521 757 c 1,40,41
 521 189 521 189 521 0 c 1,42,43
 466 0 466 0 438 0 c 1,44,45
 437 12 437 12 434 33 c 256,46,47
 431 54 431 54 429 67 c 1,0,1
223 79 m 256,48,49
 236 69 236 69 254 64 c 256,50,51
 272 59 272 59 294 59 c 0,52,53
 315 59 315 59 333 64 c 0,54,55
 350 69 350 69 364 79 c 0,56,57
 377 89 377 89 387 101 c 0,58,59
 398 114 398 114 404 129 c 0,60,61
 411 144 411 144 417 161 c 0,62,63
 422 178 422 178 424 196 c 0,64,65
 426 213 426 213 428 230 c 0,66,67
 429 247 429 247 429 263 c 256,68,69
 429 279 429 279 428 296 c 0,70,71
 426 313 426 313 424 331 c 0,72,73
 422 348 422 348 417 365 c 0,74,75
 411 381 411 381 404 396 c 0,76,77
 398 412 398 412 387 424 c 0,78,79
 377 436 377 436 364 446 c 0,80,81
 350 456 350 456 333 461 c 0,82,83
 315 466 315 466 294 466 c 0,84,85
 272 466 272 466 254 461 c 256,86,87
 236 456 236 456 223 446 c 256,88,89
 210 436 210 436 200 424 c 0,90,91
 189 412 189 412 182 396 c 0,92,93
 175 381 175 381 171 365 c 0,94,95
 166 348 166 348 164 331 c 0,96,97
 162 313 162 313 160 296 c 0,98,99
 159 279 159 279 159 263 c 256,100,101
 159 247 159 247 160 230 c 0,102,103
 162 213 162 213 164 196 c 0,104,105
 166 178 166 178 171 161 c 0,106,107
 175 144 175 144 182 129 c 256,108,109
 189 114 189 114 200 101 c 0,110,111
 210 89 210 89 223 79 c 256,48,49
EndSplineSet
Validated: 1
EndChar

StartChar: e
Encoding: 101 101 72
Width: 614
GlyphClass: 1
Flags: W
LayerCount: 2
Fore
SplineSet
438 -3 m 0,0,1
 414 -8 414 -8 389 -11 c 0,2,3
 364 -13 364 -13 339 -13 c 0,4,5
 274 -13 274 -13 224 5 c 0,6,7
 173 23 173 23 136 59 c 0,8,9
 99 96 99 96 81 146 c 0,10,11
 62 196 62 196 62 259 c 0,12,13
 62 298 62 298 70 334 c 0,14,15
 77 370 77 370 91 401 c 0,16,17
 106 433 106 433 128 458 c 256,18,19
 150 483 150 483 178 502 c 0,20,21
 207 520 207 520 243 529 c 0,22,23
 278 539 278 539 321 539 c 0,24,25
 377 539 377 539 420 522 c 0,26,27
 464 506 464 506 495 472 c 0,28,29
 525 438 525 438 541 391 c 0,30,31
 556 345 556 345 556 285 c 0,32,33
 556 253 556 253 556 243 c 1,34,35
 257 243 257 243 158 243 c 1,36,37
 158 241 158 241 158 240 c 0,38,39
 158 198 158 198 169 166 c 0,40,41
 181 133 181 133 204 109 c 0,42,43
 227 84 227 84 261 72 c 0,44,45
 295 59 295 59 340 59 c 0,46,47
 366 59 366 59 391 63 c 256,48,49
 416 67 416 67 440 75 c 0,50,51
 465 82 465 82 488 92 c 256,52,53
 511 102 511 102 535 113 c 1,54,55
 535 55 535 55 535 27 c 1,56,57
 511 17 511 17 487 10 c 0,58,59
 463 2 463 2 438 -3 c 0,0,1
162 310 m 1,60,61
 364 310 364 310 465 310 c 1,62,63
 465 332 465 332 461 352 c 0,64,65
 457 371 457 371 451 389 c 0,66,67
 444 407 444 407 432 421 c 0,68,69
 421 435 421 435 406 445 c 0,70,71
 390 455 390 455 370 461 c 0,72,73
 350 466 350 466 325 466 c 0,74,75
 299 466 299 466 278 461 c 0,76,77
 257 455 257 455 240 444 c 0,78,79
 223 434 223 434 209 420 c 0,80,81
 195 407 195 407 185 389 c 0,82,83
 176 371 176 371 170 352 c 0,84,85
 164 332 164 332 162 310 c 1,60,61
EndSplineSet
Validated: 1
EndChar

StartChar: f
Encoding: 102 102 73
Width: 614
GlyphClass: 1
Flags: W
LayerCount: 2
Fore
SplineSet
231 0 m 1,0,1
 231 300 231 300 231 399 c 1,2,3
 107 399 107 399 66 399 c 1,4,5
 66 458 66 458 66 477 c 1,6,7
 190 477 190 477 231 477 c 1,8,9
 231 524 231 524 231 548 c 0,10,11
 231 591 231 591 242 633 c 256,12,13
 253 675 253 675 274 695 c 0,14,15
 296 716 296 716 328 726 c 0,16,17
 361 736 361 736 406 736 c 0,18,19
 516 736 516 736 552 736 c 1,20,21
 552 681 552 681 552 663 c 1,22,23
 459 663 459 663 412 663 c 0,24,25
 387 663 387 663 370 658 c 0,26,27
 353 654 353 654 343 644 c 0,28,29
 333 635 333 635 328 619 c 0,30,31
 324 603 324 603 324 579 c 0,32,33
 324 503 324 503 324 477 c 1,34,35
 450 477 450 477 493 477 c 1,36,37
 493 419 493 419 493 399 c 1,38,39
 366 399 366 399 324 399 c 1,40,41
 324 100 324 100 324 0 c 1,42,43
 254 0 254 0 231 0 c 1,0,1
EndSplineSet
Validated: 1
EndChar

StartChar: g
Encoding: 103 103 74
Width: 614
GlyphClass: 1
Flags: W
LayerCount: 2
Fore
SplineSet
478 -187 m 0,0,1
 453 -214 453 -214 423 -233 c 0,2,3
 393 -251 393 -251 348 -251 c 0,4,5
 309 -251 309 -251 245 -252 c 0,6,7
 182 -253 182 -253 126 -253 c 1,8,9
 126 -201 126 -201 126 -175 c 1,10,11
 174 -175 174 -175 228 -175 c 0,12,13
 281 -174 281 -174 317 -173 c 0,14,15
 383 -171 383 -171 417 -125 c 0,16,17
 450 -79 450 -79 451 -19 c 0,18,19
 451 11 451 11 451 22 c 0,20,21
 451 46 451 46 451 58 c 1,22,23
 434 38 434 38 416 25 c 0,24,25
 398 13 398 13 380 7 c 0,26,27
 361 2 361 2 340 -1 c 0,28,29
 318 -4 318 -4 292 -4 c 0,30,31
 262 -4 262 -4 237 2 c 0,32,33
 211 8 211 8 190 20 c 0,34,35
 170 33 170 33 153 48 c 0,36,37
 137 64 137 64 124 84 c 0,38,39
 112 104 112 104 102 126 c 256,40,41
 92 148 92 148 87 172 c 256,42,43
 82 196 82 196 79 220 c 256,44,45
 76 244 76 244 76 268 c 256,46,47
 76 292 76 292 79 316 c 256,48,49
 82 340 82 340 87 364 c 0,50,51
 92 387 92 387 102 409 c 0,52,53
 111 432 111 432 124 452 c 256,54,55
 137 472 137 472 154 487 c 0,56,57
 171 503 171 503 191 515 c 0,58,59
 212 527 212 527 238 533 c 0,60,61
 263 539 263 539 293 539 c 0,62,63
 318 539 318 539 341 535 c 0,64,65
 363 531 363 531 384 522 c 0,66,67
 405 514 405 514 422 501 c 0,68,69
 439 489 439 489 453 472 c 1,70,71
 453 485 453 485 452 500 c 0,72,73
 452 514 452 514 452 524 c 1,74,75
 507 524 507 524 535 524 c 1,76,77
 534 490 534 490 534 445 c 256,78,79
 534 400 534 400 534 350 c 0,80,81
 533 257 533 257 533 160 c 0,82,83
 533 64 533 64 532 0 c 0,84,85
 532 -49 532 -49 524 -99 c 0,86,87
 515 -148 515 -148 478 -187 c 0,0,1
206 120 m 256,88,89
 225 94 225 94 251 81 c 0,90,91
 277 69 277 69 310 69 c 256,92,93
 343 69 343 69 368 82 c 0,94,95
 393 94 393 94 410 120 c 0,96,97
 426 145 426 145 435 182 c 0,98,99
 443 219 443 219 443 268 c 0,100,101
 443 284 443 284 442 301 c 0,102,103
 441 317 441 317 438 334 c 0,104,105
 436 351 436 351 431 367 c 0,106,107
 426 384 426 384 419 398 c 0,108,109
 412 414 412 414 402 425 c 0,110,111
 392 437 392 437 379 446 c 0,112,113
 366 456 366 456 348 461 c 0,114,115
 331 466 331 466 309 466 c 0,116,117
 276 466 276 466 250 453 c 256,118,119
 224 440 224 440 206 416 c 0,120,121
 187 391 187 391 178 354 c 0,122,123
 168 318 168 318 168 269 c 256,124,125
 168 220 168 220 177 183 c 0,126,127
 187 146 187 146 206 120 c 256,88,89
EndSplineSet
Validated: 1
EndChar

StartChar: h
Encoding: 104 104 75
Width: 614
GlyphClass: 1
Flags: W
LayerCount: 2
Fore
SplineSet
97 0 m 1,0,1
 97 568 97 568 97 757 c 1,2,3
 166 757 166 757 189 757 c 1,4,5
 189 561 189 561 189 463 c 1,6,7
 216 506 216 506 256 525 c 0,8,9
 294 543 294 543 345 543 c 0,10,11
 349 543 349 543 355 543 c 0,12,13
 390 543 390 543 416 535 c 256,14,15
 442 527 442 527 461 511 c 0,16,17
 479 495 479 495 492 475 c 256,18,19
 505 455 505 455 512 430 c 0,20,21
 519 406 519 406 522 380 c 256,22,23
 525 354 525 354 525 327 c 0,24,25
 525 82 525 82 525 0 c 1,26,27
 456 0 456 0 433 0 c 1,28,29
 433 218 433 218 433 327 c 0,30,31
 433 362 433 362 427 388 c 0,32,33
 421 413 421 413 409 430 c 0,34,35
 396 447 396 447 376 455 c 0,36,37
 356 464 356 464 329 464 c 0,38,39
 303 464 303 464 282 458 c 0,40,41
 262 452 262 452 246 439 c 0,42,43
 230 427 230 427 219 412 c 256,44,45
 208 397 208 397 202 378 c 256,46,47
 196 359 196 359 193 339 c 0,48,49
 189 319 189 319 189 298 c 0,50,51
 189 74 189 74 189 0 c 1,52,53
 120 0 120 0 97 0 c 1,0,1
EndSplineSet
Validated: 1
EndChar

StartChar: i
Encoding: 105 105 76
Width: 614
GlyphClass: 1
Flags: W
LayerCount: 2
Fore
SplineSet
369 622 m 4,0,1
 322 622 322 622 298 622 c 4,2,3
 290 622 290 622 286 625 c 4,4,5
 282 629 282 629 282 636 c 4,6,7
 282 690 282 690 282 717 c 4,8,9
 282 724 282 724 286 727 c 4,10,11
 290 731 290 731 298 731 c 4,12,13
 346 731 346 731 369 731 c 4,14,15
 377 731 377 731 380 727 c 4,16,17
 384 724 384 724 384 717 c 4,18,19
 384 663 384 663 384 636 c 4,20,21
 384 629 384 629 380 625 c 4,22,23
 377 622 377 622 369 622 c 4,0,1
384 0 m 5,24,25
 315 0 315 0 292 0 c 5,26,27
 292 51 292 51 292 77 c 4,28,29
 292 87 292 87 292 114 c 4,30,31
 293 142 293 142 293 187 c 4,32,33
 293 383 293 383 293 449 c 5,34,35
 198 449 198 449 166 449 c 5,36,37
 166 507 166 507 166 526 c 5,38,39
 329 526 329 526 384 526 c 5,40,41
 384 483 384 483 384 462 c 4,42,43
 384 446 384 446 383 429 c 4,44,45
 383 411 383 411 383 390 c 4,46,47
 383 336 383 336 383 318 c 4,48,49
 383 289 383 289 383 274 c 4,50,51
 383 260 383 260 383 248 c 4,52,53
 384 237 384 237 384 201 c 4,54,55
 384 190 384 190 384 174 c 4,56,57
 385 158 385 158 385 137 c 4,58,59
 385 123 385 123 385 119 c 4,60,61
 385 89 385 89 385 74 c 4,62,63
 385 58 385 58 384 39 c 4,64,65
 384 21 384 21 384 0 c 5,24,25
EndSplineSet
Validated: 1
EndChar

StartChar: j
Encoding: 106 106 77
Width: 614
GlyphClass: 1
Flags: W
LayerCount: 2
Fore
SplineSet
422 622 m 0,0,1
 373 622 373 622 349 622 c 0,2,3
 341 622 341 622 338 625 c 0,4,5
 335 629 335 629 335 636 c 0,6,7
 335 690 335 690 335 717 c 0,8,9
 335 724 335 724 338 727 c 0,10,11
 341 731 341 731 349 731 c 0,12,13
 398 731 398 731 422 731 c 0,14,15
 430 731 430 731 433 727 c 0,16,17
 436 724 436 724 436 717 c 0,18,19
 436 663 436 663 436 636 c 0,20,21
 436 629 436 629 433 625 c 0,22,23
 430 622 430 622 422 622 c 0,0,1
118 -252 m 5,24,25
 118 -192 118 -192 118 -172 c 5,26,27
 190 -172 190 -172 261 -172 c 0,28,29
 307 -172 307 -172 329 -132 c 256,30,31
 351 -92 351 -92 351 -34 c 0,32,33
 351 328 351 328 351 449 c 1,34,35
 243 449 243 449 207 449 c 1,36,37
 207 507 207 507 207 526 c 1,38,39
 384 526 384 526 443 526 c 1,40,41
 443 153 443 153 443 -34 c 0,42,43
 443 -80 443 -80 432 -128 c 256,44,45
 421 -176 421 -176 398 -201 c 0,46,47
 376 -226 376 -226 344 -239 c 256,48,49
 312 -252 312 -252 271 -252 c 0,50,51
 194 -252 194 -252 118 -252 c 5,24,25
EndSplineSet
Validated: 1
EndChar

StartChar: k
Encoding: 107 107 78
Width: 614
GlyphClass: 1
Flags: W
LayerCount: 2
Fore
SplineSet
113 0 m 1,0,1
 113 548 113 548 113 730 c 1,2,3
 184 730 184 730 208 730 c 1,4,5
 208 449 208 449 208 308 c 1,6,7
 237 335 237 335 282 375 c 0,8,9
 326 415 326 415 369 454 c 0,10,11
 392 475 392 475 413 493 c 0,12,13
 434 512 434 512 450 526 c 1,14,15
 524 526 524 526 561 526 c 1,16,17
 534 502 534 502 494 466 c 0,18,19
 453 429 453 429 414 394 c 0,20,21
 393 375 393 375 374 358 c 256,22,23
 355 341 355 341 341 328 c 1,24,25
 372 288 372 288 419 228 c 0,26,27
 466 167 466 167 511 109 c 0,28,29
 535 78 535 78 557 50 c 256,30,31
 579 22 579 22 596 0 c 1,32,33
 521 0 521 0 483 0 c 1,34,35
 458 33 458 33 420 83 c 256,36,37
 382 133 382 133 345 181 c 0,38,39
 326 207 326 207 308 230 c 0,40,41
 290 254 290 254 276 271 c 1,42,43
 263 260 263 260 242 241 c 256,44,45
 221 222 221 222 208 211 c 1,46,47
 208 53 208 53 208 0 c 1,48,49
 136 0 136 0 113 0 c 1,0,1
EndSplineSet
Validated: 1
EndChar

StartChar: l
Encoding: 108 108 79
Width: 614
GlyphClass: 1
Flags: W
LayerCount: 2
Fore
SplineSet
322 0 m 4,0,1
 291 0 291 0 281 0 c 5,2,3
 281 155 281 155 281 207 c 4,4,5
 281 340 281 340 281 385 c 4,6,7
 281 436 281 436 281 462 c 4,8,9
 281 481 281 481 281 521 c 260,10,11
 281 561 281 561 280 624 c 5,12,13
 176 624 176 624 141 624 c 5,14,15
 141 682 141 682 141 702 c 5,16,17
 297 702 297 702 375 702 c 5,18,19
 375 665 375 665 374 606 c 4,20,21
 373 546 373 546 373 510 c 4,22,23
 373 452 373 452 373 433 c 4,24,25
 373 382 373 382 373 366 c 4,26,27
 373 301 373 301 373 280 c 4,28,29
 373 171 373 171 373 135 c 4,30,31
 373 34 373 34 373 0 c 5,32,33
 335 0 335 0 322 0 c 4,0,1
EndSplineSet
Validated: 1
EndChar

StartChar: m
Encoding: 109 109 80
Width: 614
GlyphClass: 1
Flags: W
LayerCount: 2
Fore
SplineSet
41 0 m 1,0,1
 41 395 41 395 41 526 c 1,2,3
 92 526 92 526 118 526 c 1,4,5
 118 518 118 518 117 503 c 0,6,7
 117 489 117 489 117 480 c 1,8,9
 134 509 134 509 164 524 c 0,10,11
 195 538 195 538 239 539 c 0,12,13
 269 539 269 539 291 522 c 0,14,15
 313 506 313 506 327 473 c 1,16,17
 350 506 350 506 383 522 c 0,18,19
 415 539 415 539 458 539 c 0,20,21
 492 539 492 539 515 527 c 0,22,23
 539 515 539 515 553 492 c 0,24,25
 567 467 567 467 574 420 c 0,26,27
 581 374 581 374 581 305 c 0,28,29
 581 76 581 76 581 0 c 1,30,31
 518 0 518 0 497 0 c 1,32,33
 497 201 497 201 497 301 c 0,34,35
 497 331 497 331 495 354 c 0,36,37
 494 377 494 377 493 393 c 0,38,39
 491 409 491 409 489 422 c 0,40,41
 486 434 486 434 482 441 c 0,42,43
 476 454 476 454 464 461 c 0,44,45
 451 467 451 467 431 467 c 0,46,47
 412 467 412 467 396 460 c 0,48,49
 380 452 380 452 368 438 c 0,50,51
 363 430 363 430 360 418 c 0,52,53
 358 406 358 406 356 390 c 0,54,55
 355 374 355 374 354 352 c 0,56,57
 352 330 352 330 352 301 c 0,58,59
 352 75 352 75 352 0 c 1,60,61
 289 0 289 0 268 0 c 1,62,63
 268 201 268 201 268 301 c 0,64,65
 268 329 268 329 268 352 c 0,66,67
 267 374 267 374 265 391 c 0,68,69
 264 408 264 408 261 420 c 0,70,71
 258 433 258 433 254 440 c 0,72,73
 247 453 247 453 235 460 c 0,74,75
 222 467 222 467 204 467 c 0,76,77
 179 467 179 467 163 460 c 256,78,79
 147 453 147 453 140 439 c 0,80,81
 136 432 136 432 134 419 c 0,82,83
 131 406 131 406 129 390 c 256,84,85
 127 374 127 374 126 352 c 0,86,87
 125 329 125 329 125 301 c 0,88,89
 125 75 125 75 125 0 c 1,90,91
 62 0 62 0 41 0 c 1,0,1
EndSplineSet
Validated: 1
EndChar

StartChar: n
Encoding: 110 110 81
Width: 614
GlyphClass: 1
Flags: W
LayerCount: 2
Fore
SplineSet
97 0 m 1,0,1
 97 395 97 395 97 526 c 1,2,3
 153 526 153 526 180 526 c 1,4,5
 182 512 182 512 185 487 c 256,6,7
 188 462 188 462 189 447 c 1,8,9
 215 494 215 494 256 516 c 0,10,11
 297 539 297 539 354 539 c 0,12,13
 440 539 440 539 483 486 c 0,14,15
 525 433 525 433 525 327 c 0,16,17
 525 82 525 82 525 0 c 1,18,19
 456 0 456 0 433 0 c 1,20,21
 433 218 433 218 433 327 c 0,22,23
 433 362 433 362 426 388 c 0,24,25
 420 413 420 413 407 430 c 0,26,27
 393 447 393 447 373 455 c 0,28,29
 353 464 353 464 326 464 c 0,30,31
 293 464 293 464 267 453 c 0,32,33
 242 442 242 442 224 421 c 0,34,35
 207 399 207 399 198 369 c 0,36,37
 189 338 189 338 189 298 c 0,38,39
 189 74 189 74 189 0 c 1,40,41
 120 0 120 0 97 0 c 1,0,1
EndSplineSet
Validated: 1
EndChar

StartChar: o
Encoding: 111 111 82
Width: 614
GlyphClass: 1
Flags: W
LayerCount: 2
Fore
SplineSet
486 57 m 0,0,1
 456 22 456 22 412 4 c 0,2,3
 368 -13 368 -13 309 -13 c 0,4,5
 251 -13 251 -13 206 4 c 0,6,7
 161 22 161 22 130 57 c 0,8,9
 99 93 99 93 84 144 c 256,10,11
 69 195 69 195 69 262 c 256,12,13
 69 329 69 329 84 380 c 0,14,15
 99 432 99 432 130 468 c 256,16,17
 161 504 161 504 205 521 c 0,18,19
 250 539 250 539 308 539 c 0,20,21
 367 539 367 539 411 521 c 0,22,23
 456 503 456 503 486 468 c 0,24,25
 517 433 517 433 532 381 c 0,26,27
 548 330 548 330 548 262 c 0,28,29
 548 195 548 195 532 144 c 0,30,31
 517 93 517 93 486 57 c 0,0,1
203 113 m 0,32,33
 221 87 221 87 247 73 c 0,34,35
 274 59 274 59 308 59 c 0,36,37
 343 59 343 59 369 73 c 256,38,39
 395 87 395 87 414 113 c 0,40,41
 432 139 432 139 441 176 c 0,42,43
 451 214 451 214 451 263 c 256,44,45
 451 312 451 312 441 350 c 0,46,47
 432 388 432 388 414 414 c 0,48,49
 395 440 395 440 369 453 c 256,50,51
 343 466 343 466 308 466 c 0,52,53
 274 466 274 466 247 453 c 0,54,55
 221 440 221 440 203 414 c 0,56,57
 184 388 184 388 175 350 c 256,58,59
 166 312 166 312 166 263 c 256,60,61
 166 214 166 214 175 176 c 0,62,63
 184 139 184 139 203 113 c 0,32,33
EndSplineSet
Validated: 1
EndChar

StartChar: p
Encoding: 112 112 83
Width: 614
GlyphClass: 1
Flags: W
LayerCount: 2
Fore
SplineSet
95 -253 m 1,0,1
 95 332 95 332 95 526 c 1,2,3
 151 526 151 526 178 526 c 1,4,5
 180 514 180 514 183 493 c 0,6,7
 186 471 186 471 187 459 c 1,8,9
 211 499 211 499 249 519 c 0,10,11
 286 539 286 539 338 539 c 0,12,13
 388 539 388 539 428 520 c 0,14,15
 467 502 467 502 497 465 c 0,16,17
 526 428 526 428 540 377 c 0,18,19
 554 327 554 327 554 263 c 256,20,21
 554 199 554 199 539 148 c 0,22,23
 525 97 525 97 496 60 c 0,24,25
 466 24 466 24 427 5 c 0,26,27
 388 -13 388 -13 338 -13 c 0,28,29
 286 -13 286 -13 248 7 c 256,30,31
 210 27 210 27 187 67 c 1,32,33
 187 -173 187 -173 187 -253 c 1,34,35
 118 -253 118 -253 95 -253 c 1,0,1
235 113 m 0,36,37
 253 87 253 87 279 73 c 0,38,39
 304 59 304 59 338 59 c 0,40,41
 404 59 404 59 437 111 c 0,42,43
 470 162 470 162 470 263 c 0,44,45
 470 365 470 365 437 415 c 0,46,47
 404 466 404 466 338 466 c 0,48,49
 304 466 304 466 279 452 c 0,50,51
 253 439 253 439 235 413 c 0,52,53
 218 387 218 387 209 349 c 0,54,55
 200 312 200 312 200 263 c 256,56,57
 200 214 200 214 209 176 c 0,58,59
 218 139 218 139 235 113 c 0,36,37
EndSplineSet
Validated: 1
EndChar

StartChar: q
Encoding: 113 113 84
Width: 614
GlyphClass: 1
Flags: W
LayerCount: 2
Fore
SplineSet
435 -252 m 1,0,1
 435 -40 435 -40 435 66 c 1,2,3
 411 25 411 25 374 5 c 0,4,5
 336 -15 336 -15 283 -15 c 0,6,7
 253 -15 253 -15 227 -10 c 0,8,9
 202 -4 202 -4 181 8 c 0,10,11
 161 20 161 20 144 37 c 0,12,13
 128 53 128 53 116 73 c 0,14,15
 103 93 103 93 94 115 c 256,16,17
 85 137 85 137 80 161 c 0,18,19
 74 185 74 185 72 209 c 0,20,21
 69 233 69 233 69 258 c 0,22,23
 69 323 69 323 83 373 c 0,24,25
 98 424 98 424 127 462 c 0,26,27
 156 499 156 499 196 519 c 0,28,29
 236 538 236 538 286 538 c 0,30,31
 337 538 337 538 374 518 c 256,32,33
 411 498 411 498 435 458 c 1,34,35
 438 475 438 475 440 493 c 0,36,37
 443 512 443 512 444 524 c 1,38,39
 507 524 507 524 527 524 c 1,40,41
 527 -58 527 -58 527 -252 c 1,42,43
 458 -252 458 -252 435 -252 c 1,0,1
190 111 m 0,44,45
 207 84 207 84 232 71 c 0,46,47
 257 57 257 57 289 57 c 256,48,49
 321 57 321 57 346 71 c 0,50,51
 372 84 372 84 389 111 c 0,52,53
 407 137 407 137 415 174 c 0,54,55
 424 212 424 212 424 261 c 256,56,57
 424 310 424 310 415 348 c 0,58,59
 407 386 407 386 389 412 c 0,60,61
 372 438 372 438 346 451 c 0,62,63
 321 464 321 464 289 464 c 256,64,65
 257 464 257 464 232 451 c 256,66,67
 207 438 207 438 190 412 c 0,68,69
 172 386 172 386 163 348 c 0,70,71
 155 310 155 310 155 261 c 0,72,73
 155 213 155 213 163 175 c 0,74,75
 172 137 172 137 190 111 c 0,44,45
EndSplineSet
Validated: 1
EndChar

StartChar: r
Encoding: 114 114 85
Width: 614
GlyphClass: 1
Flags: W
LayerCount: 2
Fore
SplineSet
129 0 m 1,0,1
 129 395 129 395 129 526 c 1,2,3
 189 526 189 526 219 526 c 1,4,5
 220 520 220 520 220 511 c 128,-1,6
 220 502 220 502 219 490 c 128,-1,7
 218 478 218 478 218 455 c 1,8,9
 232 476 232 476 250 492 c 0,10,11
 269 508 269 508 293 519 c 0,12,13
 316 529 316 529 343 534 c 256,14,15
 370 539 370 539 401 539 c 0,16,17
 404 539 404 539 406 539 c 0,18,19
 445 538 445 538 478 528 c 0,20,21
 511 519 511 519 537 499 c 1,22,23
 537 440 537 440 537 411 c 1,24,25
 510 434 510 434 475 446 c 256,26,27
 437 459 437 459 397 459 c 0,28,29
 397 459 397 459 358 459 c 0,30,31
 348 459 348 459 322 449 c 256,32,33
 285 435 285 435 266 416 c 0,34,35
 243 393 243 393 231 371 c 256,36,37
 219 349 219 349 219 326 c 0,38,39
 219 314 219 314 219 284 c 256,40,41
 219 254 219 254 220 215 c 0,42,43
 220 157 220 157 220 94 c 0,44,45
 221 31 221 31 221 0 c 1,46,47
 152 0 152 0 129 0 c 1,0,1
EndSplineSet
Validated: 1
EndChar

StartChar: s
Encoding: 115 115 86
Width: 614
GlyphClass: 1
Flags: W
LayerCount: 2
Fore
SplineSet
456 32 m 0,0,1
 426 9 426 9 386 -2 c 256,2,3
 346 -13 346 -13 295 -13 c 0,4,5
 255 -13 255 -13 208 -5 c 0,6,7
 160 3 160 3 106 19 c 1,8,9
 106 79 106 79 106 109 c 1,10,11
 159 84 159 84 206 71 c 256,12,13
 253 58 253 58 294 58 c 0,14,15
 323 58 323 58 346 64 c 256,16,17
 369 70 369 70 387 82 c 0,18,19
 405 93 405 93 413 109 c 0,20,21
 422 124 422 124 422 143 c 0,22,23
 422 160 422 160 415 174 c 256,24,25
 408 188 408 188 393 198 c 0,26,27
 379 208 379 208 355 216 c 256,28,29
 331 224 331 224 299 230 c 0,30,31
 289 232 289 232 285 233 c 0,32,33
 280 234 280 234 261 238 c 0,34,35
 222 245 222 245 193 258 c 256,36,37
 164 271 164 271 145 288 c 0,38,39
 127 305 127 305 118 328 c 0,40,41
 109 352 109 352 109 382 c 0,42,43
 109 420 109 420 122 449 c 0,44,45
 136 478 136 478 164 499 c 0,46,47
 191 519 191 519 230 529 c 256,48,49
 269 539 269 539 319 539 c 0,50,51
 362 539 362 539 404 531 c 256,52,53
 446 523 446 523 486 508 c 1,54,55
 486 452 486 452 486 424 c 1,56,57
 447 445 447 445 406 456 c 0,58,59
 366 467 366 467 323 467 c 0,60,61
 262 467 262 467 232 447 c 0,62,63
 202 428 202 428 202 389 c 0,64,65
 202 376 202 376 204 366 c 0,66,67
 207 357 207 357 212 349 c 0,68,69
 217 342 217 342 227 335 c 0,70,71
 237 329 237 329 252 324 c 0,72,73
 266 319 266 319 289 314 c 0,74,75
 311 308 311 308 339 303 c 0,76,77
 364 299 364 299 376 297 c 0,78,79
 445 284 445 284 480 248 c 0,80,81
 515 213 515 213 515 155 c 0,82,83
 515 115 515 115 500 85 c 0,84,85
 485 54 485 54 456 32 c 0,0,1
EndSplineSet
Validated: 1
EndChar

StartChar: t
Encoding: 116 116 87
Width: 614
GlyphClass: 1
Flags: W
LayerCount: 2
Fore
SplineSet
486 -2 m 1,0,1
 373 -2 373 -2 317 -2 c 0,2,3
 265 -2 265 -2 229 7 c 0,4,5
 193 17 193 17 171 37 c 0,6,7
 150 57 150 57 139 91 c 0,8,9
 128 124 128 124 128 172 c 0,10,11
 128 227 128 227 128 246 c 0,12,13
 128 576 128 576 128 686 c 1,14,15
 159 686 159 686 169 686 c 0,16,17
 181 686 181 686 185 686 c 0,18,19
 211 686 211 686 220 686 c 1,20,21
 220 566 220 566 220 526 c 1,22,23
 386 526 386 526 441 526 c 1,24,25
 441 467 441 467 441 447 c 1,26,27
 275 447 275 447 220 447 c 1,28,29
 220 264 220 264 220 172 c 0,30,31
 220 143 220 143 226 124 c 0,32,33
 232 104 232 104 244 95 c 0,34,35
 255 86 255 86 276 81 c 0,36,37
 297 77 297 77 326 77 c 0,38,39
 446 77 446 77 486 77 c 1,40,41
 486 18 486 18 486 -2 c 1,0,1
EndSplineSet
Validated: 1
EndChar

StartChar: u
Encoding: 117 117 88
Width: 614
GlyphClass: 1
Flags: W
LayerCount: 2
Fore
SplineSet
286 -14 m 0,0,1
 281 -14 281 -14 277 -14 c 0,2,3
 273 -13 273 -13 268 -13 c 0,4,5
 176 -13 176 -13 130 40 c 256,6,7
 84 93 84 93 84 200 c 0,8,9
 84 444 84 444 84 525 c 1,10,11
 152 525 152 525 175 525 c 1,12,13
 175 308 175 308 175 200 c 0,14,15
 175 131 175 131 206 96 c 0,16,17
 238 61 238 61 299 61 c 1,18,19
 334 65 334 65 360 75 c 0,20,21
 386 86 386 86 402 105 c 0,22,23
 419 125 419 125 428 149 c 0,24,25
 436 173 436 173 436 202 c 0,26,27
 437 282 437 282 438 374 c 0,28,29
 439 465 439 465 439 525 c 1,30,31
 501 525 501 525 531 525 c 1,32,33
 531 462 531 462 532 365 c 0,34,35
 532 268 532 268 532 175 c 0,36,37
 532 125 532 125 532 80 c 0,38,39
 532 34 532 34 532 0 c 1,40,41
 468 0 468 0 446 0 c 1,42,43
 446 38 446 38 446 57 c 1,44,45
 427 21 427 21 387 3 c 0,46,47
 347 -14 347 -14 286 -14 c 0,0,1
EndSplineSet
Validated: 1
EndChar

StartChar: v
Encoding: 118 118 89
Width: 614
GlyphClass: 1
Flags: W
LayerCount: 2
Fore
SplineSet
249 0 m 1,0,1
 224 64 224 64 188 161 c 256,2,3
 152 258 152 258 116 351 c 0,4,5
 97 401 97 401 80 446 c 0,6,7
 63 492 63 492 50 526 c 1,8,9
 114 526 114 526 145 526 c 1,10,11
 165 472 165 472 195 391 c 256,12,13
 225 310 225 310 254 232 c 0,14,15
 269 190 269 190 283 152 c 256,16,17
 297 114 297 114 308 85 c 1,18,19
 319 114 319 114 333 152 c 256,20,21
 347 190 347 190 362 232 c 0,22,23
 391 310 391 310 421 391 c 256,24,25
 451 472 451 472 471 526 c 1,26,27
 535 526 535 526 566 526 c 1,28,29
 542 462 542 462 505 365 c 0,30,31
 469 268 469 268 434 175 c 0,32,33
 415 125 415 125 398 80 c 256,34,35
 381 35 381 35 368 0 c 1,36,37
 279 0 279 0 249 0 c 1,0,1
EndSplineSet
Validated: 1
EndChar

StartChar: w
Encoding: 119 119 90
Width: 614
GlyphClass: 1
Flags: W
LayerCount: 2
Fore
SplineSet
131 0 m 1,0,1
 115 64 115 64 91 161 c 256,2,3
 67 258 67 258 44 351 c 0,4,5
 31 401 31 401 20 446 c 0,6,7
 9 492 9 492 0 526 c 1,8,9
 61 526 61 526 91 526 c 1,10,11
 103 476 103 476 120 401 c 0,12,13
 137 325 137 325 153 252 c 0,14,15
 162 213 162 213 170 178 c 256,16,17
 178 143 178 143 184 116 c 1,18,19
 189 133 189 133 195 155 c 256,20,21
 201 177 201 177 208 202 c 0,22,23
 221 248 221 248 234 296 c 256,24,25
 247 344 247 344 256 376 c 1,26,27
 324 376 324 376 358 376 c 1,28,29
 368 344 368 344 383 296 c 0,30,31
 399 248 399 248 413 202 c 0,32,33
 421 177 421 177 428 155 c 256,34,35
 435 133 435 133 440 116 c 1,36,37
 451 166 451 166 466 241 c 0,38,39
 482 317 482 317 497 390 c 0,40,41
 505 429 505 429 512 464 c 0,42,43
 520 499 520 499 525 526 c 1,44,45
 586 526 586 526 616 526 c 1,46,47
 600 462 600 462 576 365 c 256,48,49
 552 268 552 268 529 175 c 0,50,51
 516 125 516 125 505 80 c 256,52,53
 494 35 494 35 485 0 c 1,54,55
 427 0 427 0 397 0 c 1,56,57
 386 35 386 35 370 88 c 0,58,59
 354 142 354 142 338 193 c 0,60,61
 329 220 329 220 322 245 c 0,62,63
 314 270 314 270 308 289 c 1,64,65
 297 254 297 254 281 200 c 0,66,67
 265 147 265 147 249 96 c 0,68,69
 240 68 240 68 233 44 c 0,70,71
 225 19 225 19 219 0 c 1,72,73
 153 0 153 0 131 0 c 1,0,1
EndSplineSet
Validated: 1
EndChar

StartChar: x
Encoding: 120 120 91
Width: 614
GlyphClass: 1
Flags: W
LayerCount: 2
Fore
SplineSet
38 0 m 1,0,1
 65 33 65 33 105 84 c 0,2,3
 146 134 146 134 185 183 c 0,4,5
 206 209 206 209 225 233 c 0,6,7
 244 256 244 256 258 274 c 1,8,9
 234 305 234 305 197 352 c 0,10,11
 160 398 160 398 124 442 c 0,12,13
 105 466 105 466 88 488 c 256,14,15
 71 510 71 510 57 526 c 1,16,17
 126 526 126 526 160 526 c 1,18,19
 178 503 178 503 205 468 c 0,20,21
 233 433 233 433 259 399 c 0,22,23
 273 381 273 381 286 365 c 0,24,25
 299 348 299 348 308 336 c 1,26,27
 326 359 326 359 353 394 c 0,28,29
 381 429 381 429 407 463 c 0,30,31
 421 481 421 481 433 498 c 0,32,33
 446 514 446 514 456 526 c 1,34,35
 525 526 525 526 559 526 c 1,36,37
 535 495 535 495 498 449 c 256,38,39
 461 403 461 403 425 358 c 0,40,41
 406 334 406 334 389 313 c 0,42,43
 372 291 372 291 358 274 c 1,44,45
 373 256 373 256 392 233 c 0,46,47
 411 209 411 209 432 183 c 0,48,49
 471 134 471 134 511 84 c 0,50,51
 552 33 552 33 579 0 c 1,52,53
 508 0 508 0 472 0 c 1,54,55
 452 26 452 26 422 65 c 0,56,57
 392 103 392 103 363 141 c 0,58,59
 347 161 347 161 333 179 c 256,60,61
 319 197 319 197 308 211 c 1,62,63
 288 185 288 185 258 146 c 0,64,65
 228 108 228 108 199 70 c 0,66,67
 183 50 183 50 169 32 c 256,68,69
 155 14 155 14 144 0 c 1,70,71
 65 0 65 0 38 0 c 1,0,1
EndSplineSet
Validated: 1
EndChar

StartChar: y
Encoding: 121 121 92
Width: 614
GlyphClass: 1
Flags: W
LayerCount: 2
Fore
SplineSet
119 -174 m 1,0,1
 134 -174 134 -174 178 -174 c 0,2,3
 223 -173 223 -173 271 -173 c 0,4,5
 297 -173 297 -173 321 -173 c 256,6,7
 345 -173 345 -173 362 -173 c 0,8,9
 401 -173 401 -173 418 -143 c 256,10,11
 434 -115 434 -115 440 -75 c 0,12,13
 443 -55 443 -55 443 -35 c 0,14,15
 444 -25 444 -25 444 -16 c 128,-1,16
 444 -7 444 -7 443 1 c 1,17,18
 317 1 317 1 254 1 c 0,19,20
 170 1 170 1 120 51 c 256,21,22
 70 101 70 101 70 172 c 0,23,24
 70 227 70 227 70 292 c 256,25,26
 70 357 70 357 70 416 c 0,27,28
 70 448 70 448 71 476 c 0,29,30
 71 504 71 504 71 526 c 1,31,32
 88 526 88 526 117 527 c 0,33,34
 145 527 145 527 163 527 c 1,35,36
 163 409 163 409 163 370 c 0,37,38
 163 268 163 268 163 217 c 0,39,40
 163 183 163 183 169 153 c 0,41,42
 176 123 176 123 187 109 c 0,43,44
 199 96 199 96 221 89 c 0,45,46
 242 82 242 82 274 82 c 0,47,48
 349 82 349 82 374 82 c 0,49,50
 426 82 426 82 443 82 c 1,51,52
 443 235 443 235 443 311 c 0,53,54
 443 367 443 367 443 420 c 0,55,56
 442 474 442 474 441 526 c 1,57,58
 464 526 464 526 476 526 c 0,59,60
 487 527 487 527 534 527 c 1,61,62
 534 484 534 484 534 444 c 0,63,64
 535 403 535 403 535 367 c 0,65,66
 535 330 535 330 535 290 c 0,67,68
 536 250 536 250 536 208 c 0,69,70
 536 119 536 119 536 69 c 0,71,72
 537 18 537 18 537 -43 c 0,73,74
 537 -45 537 -45 537 -46 c 0,75,76
 537 -127 537 -127 493 -190 c 0,77,78
 449 -254 449 -254 383 -254 c 0,79,80
 207 -254 207 -254 119 -254 c 1,81,82
 118 -233 118 -233 118 -214 c 0,83,84
 119 -194 119 -194 119 -174 c 1,0,1
EndSplineSet
Validated: 1
EndChar

StartChar: z
Encoding: 122 122 93
Width: 614
GlyphClass: 1
Flags: W
LayerCount: 2
Fore
SplineSet
101 0 m 1,0,1
 101 53 101 53 101 80 c 1,2,3
 140 126 140 126 200 196 c 0,4,5
 259 265 259 265 316 333 c 0,6,7
 347 369 347 369 374 401 c 0,8,9
 402 434 402 434 423 459 c 1,10,11
 191 459 191 459 114 459 c 1,12,13
 114 510 114 510 114 527 c 1,14,15
 419 527 419 527 520 527 c 1,16,17
 520 475 520 475 520 449 c 1,18,19
 481 403 481 403 422 333 c 256,20,21
 363 263 363 263 306 196 c 0,22,23
 275 160 275 160 247 128 c 0,24,25
 220 95 220 95 199 71 c 1,26,27
 440 71 440 71 520 71 c 1,28,29
 520 18 520 18 520 0 c 1,30,31
 206 0 206 0 101 0 c 1,0,1
EndSplineSet
Validated: 1
EndChar

StartChar: braceleft
Encoding: 123 123 94
Width: 614
GlyphClass: 1
Flags: W
LayerCount: 2
Fore
SplineSet
515 -105 m 1,0,1
 493 -105 493 -105 482 -105 c 0,2,3
 421 -105 421 -105 379 -97 c 0,4,5
 338 -88 338 -88 316 -71 c 0,6,7
 295 -54 295 -54 284 -16 c 0,8,9
 273 21 273 21 273 73 c 0,10,11
 273 148 273 148 273 186 c 0,12,13
 273 221 273 221 267 246 c 0,14,15
 260 270 260 270 247 284 c 0,16,17
 233 296 233 296 209 301 c 0,18,19
 186 307 186 307 151 307 c 0,20,21
 107 307 107 307 92 307 c 1,22,23
 92 373 92 373 92 395 c 1,24,25
 131 395 131 395 151 395 c 0,26,27
 186 395 186 395 210 400 c 256,28,29
 234 405 234 405 247 416 c 0,30,31
 260 430 260 430 267 454 c 0,32,33
 273 479 273 479 273 513 c 0,34,35
 273 589 273 589 273 627 c 0,36,37
 273 679 273 679 284 717 c 0,38,39
 295 754 295 754 316 771 c 256,40,41
 337 788 337 788 378 797 c 256,42,43
 419 806 419 806 482 806 c 0,44,45
 507 806 507 806 515 806 c 1,46,47
 515 743 515 743 515 722 c 1,48,49
 491 722 491 722 479 722 c 0,50,51
 444 722 444 722 422 718 c 0,52,53
 400 715 400 715 389 708 c 0,54,55
 378 698 378 698 373 678 c 0,56,57
 368 659 368 659 368 625 c 0,58,59
 368 547 368 547 368 508 c 0,60,61
 368 471 368 471 362 445 c 0,62,63
 357 418 357 418 345 401 c 0,64,65
 334 384 334 384 316 370 c 256,66,67
 298 356 298 356 271 350 c 1,68,69
 298 344 298 344 316 330 c 0,70,71
 334 315 334 315 345 299 c 0,72,73
 357 282 357 282 362 255 c 0,74,75
 368 229 368 229 368 192 c 0,76,77
 368 114 368 114 368 75 c 0,78,79
 368 42 368 42 373 22 c 0,80,81
 378 3 378 3 389 -7 c 0,82,83
 400 -14 400 -14 422 -18 c 256,84,85
 444 -22 444 -22 479 -22 c 0,86,87
 506 -22 506 -22 515 -22 c 1,88,89
 515 -84 515 -84 515 -105 c 1,0,1
EndSplineSet
Validated: 1
EndChar

StartChar: bar
Encoding: 124 124 95
Width: 614
GlyphClass: 1
Flags: W
LayerCount: 2
Fore
SplineSet
262 -75 m 1,0,1
 262 564 262 564 262 777 c 1,2,3
 327 777 327 777 348 777 c 1,4,5
 348 138 348 138 348 -75 c 1,6,7
 284 -75 284 -75 262 -75 c 1,0,1
EndSplineSet
Validated: 1
EndChar

StartChar: braceright
Encoding: 125 125 96
Width: 614
GlyphClass: 1
Flags: W
LayerCount: 2
Fore
SplineSet
102 -105 m 1,0,1
 102 -43 102 -43 102 -22 c 1,2,3
 125 -22 125 -22 136 -22 c 0,4,5
 172 -22 172 -22 195 -18 c 256,6,7
 218 -14 218 -14 228 -6 c 0,8,9
 239 4 239 4 244 24 c 0,10,11
 250 43 250 43 250 76 c 0,12,13
 250 153 250 153 250 192 c 0,14,15
 250 229 250 229 255 256 c 0,16,17
 261 283 261 283 272 300 c 0,18,19
 284 316 284 316 301 331 c 0,20,21
 318 345 318 345 346 351 c 1,22,23
 318 357 318 357 302 372 c 0,24,25
 285 386 285 386 273 402 c 0,26,27
 268 410 268 410 264 420 c 0,28,29
 259 430 259 430 256 443 c 256,30,31
 253 456 253 456 251 472 c 0,32,33
 250 488 250 488 250 508 c 0,34,35
 250 586 250 586 250 625 c 0,36,37
 250 658 250 658 244 678 c 0,38,39
 239 698 239 698 228 708 c 0,40,41
 218 715 218 715 195 719 c 0,42,43
 172 722 172 722 136 722 c 0,44,45
 111 722 111 722 102 722 c 1,46,47
 102 785 102 785 102 806 c 1,48,49
 123 806 123 806 133 806 c 0,50,51
 196 806 196 806 238 797 c 0,52,53
 279 788 279 788 300 771 c 256,54,55
 321 754 321 754 331 717 c 0,56,57
 342 679 342 679 342 627 c 0,58,59
 342 552 342 552 342 514 c 0,60,61
 342 496 342 496 344 481 c 0,62,63
 347 466 347 466 352 454 c 0,64,65
 358 443 358 443 365 433 c 0,66,67
 373 424 373 424 384 417 c 0,68,69
 394 410 394 410 406 406 c 0,70,71
 419 401 419 401 433 399 c 0,72,73
 448 396 448 396 463 396 c 0,74,75
 479 395 479 395 496 395 c 0,76,77
 520 395 520 395 528 395 c 1,78,79
 528 329 528 329 528 307 c 1,80,81
 507 307 507 307 496 307 c 0,82,83
 459 307 459 307 431 301 c 0,84,85
 403 296 403 296 384 284 c 0,86,87
 373 277 373 277 365 268 c 0,88,89
 358 258 358 258 352 246 c 0,90,91
 347 235 347 235 344 220 c 0,92,93
 342 204 342 204 342 186 c 0,94,95
 342 112 342 112 342 74 c 0,96,97
 342 22 342 22 331 -15 c 0,98,99
 321 -53 321 -53 300 -71 c 0,100,101
 279 -88 279 -88 237 -97 c 0,102,103
 195 -105 195 -105 133 -105 c 0,104,105
 110 -105 110 -105 102 -105 c 1,0,1
EndSplineSet
Validated: 1
EndChar

StartChar: asciitilde
Encoding: 126 126 97
Width: 614
GlyphClass: 1
Flags: W
LayerCount: 2
Fore
SplineSet
496 436 m 1,0,1
 515 432 515 432 525 430 c 0,2,3
 534 427 534 427 573 419 c 1,4,5
 573 407 573 407 571 394 c 256,6,7
 569 381 569 381 565 368 c 0,8,9
 561 354 561 354 555 339 c 0,10,11
 549 325 549 325 540 309 c 0,12,13
 522 275 522 275 492 258 c 256,14,15
 462 241 462 241 421 241 c 0,16,17
 401 241 401 241 384 245 c 256,18,19
 367 249 367 249 352 257 c 0,20,21
 339 265 339 265 324 280 c 0,22,23
 308 296 308 296 290 319 c 0,24,25
 270 346 270 346 256 362 c 256,26,27
 242 378 242 378 232 384 c 0,28,29
 222 391 222 391 213 394 c 0,30,31
 203 397 203 397 194 397 c 0,32,33
 174 397 174 397 161 389 c 0,34,35
 147 380 147 380 139 364 c 0,36,37
 132 337 132 337 126 315 c 256,38,39
 120 293 120 293 118 276 c 1,40,41
 99 281 99 281 89 283 c 256,42,43
 79 285 79 285 40 294 c 1,44,45
 46 329 46 329 55 357 c 0,46,47
 63 384 63 384 74 403 c 0,48,49
 94 437 94 437 124 454 c 0,50,51
 153 471 153 471 190 471 c 0,52,53
 209 471 209 471 226 467 c 0,54,55
 242 463 242 463 257 455 c 0,56,57
 265 450 265 450 273 444 c 0,58,59
 280 438 280 438 289 430 c 0,60,61
 297 422 297 422 306 413 c 256,62,63
 315 404 315 404 323 393 c 0,64,65
 336 376 336 376 349 361 c 256,66,67
 362 346 362 346 375 335 c 0,68,69
 386 325 386 325 396 320 c 0,70,71
 407 314 407 314 419 314 c 0,72,73
 439 314 439 314 453 323 c 0,74,75
 467 331 467 331 475 348 c 0,76,77
 484 365 484 365 488 387 c 0,78,79
 493 409 493 409 496 436 c 1,0,1
EndSplineSet
Validated: 1
EndChar

StartChar: exclamdown
Encoding: 161 161 99
Width: 614
GlyphClass: 1
Flags: W
LayerCount: 2
Fore
SplineSet
255 682 m 0,0,1
 266 694 266 694 281 699 c 0,2,3
 296 705 296 705 313 705 c 0,4,5
 331 705 331 705 345 699 c 0,6,7
 359 694 359 694 371 682 c 0,8,9
 382 671 382 671 388 656 c 256,10,11
 394 641 394 641 394 623 c 0,12,13
 394 604 394 604 388 590 c 0,14,15
 382 575 382 575 371 564 c 0,16,17
 359 553 359 553 345 548 c 0,18,19
 330 543 330 543 313 543 c 256,20,21
 296 543 296 543 281 548 c 256,22,23
 266 553 266 553 255 564 c 0,24,25
 243 575 243 575 238 590 c 0,26,27
 232 604 232 604 232 623 c 0,28,29
 232 641 232 641 238 656 c 0,30,31
 243 671 243 671 255 682 c 0,0,1
284 447 m 1,32,33
 324 447 324 447 344 447 c 1,34,35
 348 415 348 415 354 366 c 0,36,37
 361 317 361 317 367 270 c 0,38,39
 370 245 370 245 373 222 c 256,40,41
 376 199 376 199 378 181 c 0,42,43
 378 24 378 24 378 -29 c 1,44,45
 279 -29 279 -29 246 -29 c 1,46,47
 246 111 246 111 246 181 c 0,48,49
 248 199 248 199 251 222 c 0,50,51
 255 245 255 245 258 270 c 0,52,53
 265 317 265 317 272 366 c 256,54,55
 279 415 279 415 284 447 c 1,32,33
EndSplineSet
Validated: 1
EndChar

StartChar: cent
Encoding: 162 162 100
Width: 614
GlyphClass: 1
Flags: W
LayerCount: 2
Fore
SplineSet
349 -147 m 1,0,1
 349 -57 349 -57 349 -12 c 1,2,3
 322 -10 322 -10 296 -3 c 0,4,5
 271 3 271 3 249 13 c 256,6,7
 227 23 227 23 207 38 c 0,8,9
 188 52 188 52 172 72 c 0,10,11
 156 90 156 90 144 111 c 256,12,13
 132 132 132 132 123 157 c 0,14,15
 114 181 114 181 110 207 c 0,16,17
 105 234 105 234 105 262 c 0,18,19
 105 291 105 291 110 318 c 0,20,21
 114 345 114 345 123 370 c 0,22,23
 132 394 132 394 144 416 c 0,24,25
 157 437 157 437 172 455 c 0,26,27
 187 472 187 472 206 486 c 256,28,29
 225 500 225 500 247 511 c 0,30,31
 268 522 268 522 294 529 c 256,32,33
 320 536 320 536 349 539 c 1,34,35
 349 639 349 639 349 673 c 1,36,37
 388 673 388 673 400 673 c 1,38,39
 400 583 400 583 400 539 c 1,40,41
 416 537 416 537 431 535 c 0,42,43
 446 532 446 532 462 529 c 0,44,45
 477 526 477 526 494 520 c 256,46,47
 511 514 511 514 530 506 c 1,48,49
 530 452 530 452 530 425 c 1,50,51
 514 434 514 434 498 442 c 0,52,53
 482 449 482 449 465 455 c 0,54,55
 456 458 456 458 448 460 c 0,56,57
 439 461 439 461 431 463 c 0,58,59
 423 464 423 464 416 465 c 0,60,61
 408 466 408 466 400 467 c 1,62,63
 400 194 400 194 400 57 c 1,64,65
 408 58 408 58 416 60 c 0,66,67
 424 61 424 61 432 62 c 0,68,69
 440 64 440 64 448 66 c 256,70,71
 456 68 456 68 465 71 c 0,72,73
 473 73 473 73 481 76 c 256,74,75
 489 79 489 79 498 83 c 0,76,77
 506 87 506 87 514 91 c 0,78,79
 523 96 523 96 530 100 c 1,80,81
 530 46 530 46 530 19 c 1,82,83
 519 15 519 15 510 11 c 0,84,85
 500 7 500 7 493 5 c 0,86,87
 485 3 485 3 477 1 c 0,88,89
 470 -2 470 -2 462 -3 c 0,90,91
 445 -7 445 -7 430 -9 c 0,92,93
 414 -12 414 -12 400 -12 c 1,94,95
 400 -114 400 -114 400 -147 c 1,96,97
 362 -147 362 -147 349 -147 c 1,0,1
349 59 m 1,98,99
 349 330 349 330 349 466 c 1,100,101
 316 463 316 463 289 447 c 0,102,103
 263 432 263 432 243 404 c 0,104,105
 223 377 223 377 213 342 c 0,106,107
 203 306 203 306 203 263 c 256,108,109
 203 220 203 220 213 184 c 256,110,111
 223 148 223 148 243 121 c 0,112,113
 263 93 263 93 289 78 c 0,114,115
 316 62 316 62 349 59 c 1,98,99
EndSplineSet
Validated: 1
EndChar

StartChar: sterling
Encoding: 163 163 101
Width: 614
GlyphClass: 1
Flags: W
LayerCount: 2
Fore
SplineSet
70 0 m 1,0,1
 70 60 70 60 70 80 c 1,2,3
 158 80 158 80 187 80 c 1,4,5
 187 243 187 243 187 298 c 1,6,7
 113 298 113 298 88 298 c 1,8,9
 88 349 88 349 88 366 c 1,10,11
 163 366 163 366 187 366 c 1,12,13
 187 440 187 440 187 477 c 0,14,15
 187 537 187 537 201 582 c 0,16,17
 215 626 215 626 243 655 c 0,18,19
 270 685 270 685 311 700 c 256,20,21
 352 715 352 715 406 715 c 0,22,23
 424 715 424 715 441 713 c 256,24,25
 458 711 458 711 475 708 c 0,26,27
 481 706 481 706 489 705 c 0,28,29
 497 703 497 703 507 700 c 256,30,31
 517 697 517 697 526 694 c 0,32,33
 536 691 536 691 546 687 c 1,34,35
 546 630 546 630 546 601 c 1,36,37
 537 606 537 606 529 611 c 256,38,39
 521 616 521 616 513 620 c 0,40,41
 505 623 505 623 497 626 c 0,42,43
 489 630 489 630 483 632 c 0,44,45
 468 637 468 637 452 640 c 0,46,47
 436 642 436 642 419 642 c 0,48,49
 385 642 385 642 360 631 c 0,50,51
 336 621 336 621 319 600 c 0,52,53
 303 579 303 579 296 546 c 0,54,55
 288 513 288 513 288 468 c 0,56,57
 288 391 288 391 288 366 c 1,58,59
 427 366 427 366 473 366 c 1,60,61
 473 315 473 315 473 298 c 1,62,63
 334 298 334 298 288 298 c 1,64,65
 288 134 288 134 288 80 c 1,66,67
 489 80 489 80 556 80 c 1,68,69
 556 20 556 20 556 0 c 1,70,71
 191 0 191 0 70 0 c 1,0,1
EndSplineSet
Validated: 1
EndChar

StartChar: currency
Encoding: 164 164 102
Width: 614
GlyphClass: 1
Flags: W
LayerCount: 2
Fore
SplineSet
148 92 m 1,0,1
 140 100 140 100 125 113 c 0,2,3
 111 126 111 126 102 134 c 1,4,5
 118 149 118 149 144 173 c 256,6,7
 170 197 170 197 185 212 c 1,8,9
 177 225 177 225 171 237 c 0,10,11
 165 248 165 248 162 258 c 256,12,13
 159 268 159 268 157 279 c 0,14,15
 156 291 156 291 156 302 c 0,16,17
 156 314 156 314 158 325 c 256,18,19
 160 336 160 336 164 347 c 0,20,21
 168 359 168 359 174 369 c 0,22,23
 179 379 179 379 186 389 c 1,24,25
 166 408 166 408 142 431 c 0,26,27
 119 453 119 453 102 468 c 1,28,29
 111 476 111 476 126 490 c 256,30,31
 141 504 141 504 150 512 c 1,32,33
 165 497 165 497 191 473 c 0,34,35
 217 448 217 448 232 433 c 1,36,37
 244 440 244 440 255 445 c 0,38,39
 267 451 267 451 279 455 c 0,40,41
 290 458 290 458 302 460 c 0,42,43
 313 462 313 462 326 462 c 0,44,45
 349 462 349 462 373 455 c 256,46,47
 397 448 397 448 422 434 c 1,48,49
 443 453 443 453 466 475 c 256,50,51
 489 497 489 497 505 512 c 1,52,53
 513 504 513 504 527 490 c 0,54,55
 541 477 541 477 550 469 c 1,56,57
 535 454 535 454 508 430 c 0,58,59
 482 405 482 405 467 390 c 1,60,61
 475 377 475 377 481 366 c 0,62,63
 486 355 486 355 489 346 c 0,64,65
 493 335 493 335 495 324 c 256,66,67
 497 313 497 313 497 301 c 0,68,69
 497 290 497 290 495 279 c 256,70,71
 493 268 493 268 489 257 c 0,72,73
 486 246 486 246 480 235 c 256,74,75
 474 224 474 224 466 214 c 1,76,77
 487 195 487 195 510 173 c 0,78,79
 534 151 534 151 550 136 c 1,80,81
 541 128 541 128 526 114 c 0,82,83
 511 101 511 101 503 92 c 1,84,85
 487 107 487 107 461 131 c 256,86,87
 435 155 435 155 420 170 c 1,88,89
 408 163 408 163 397 158 c 0,90,91
 386 152 386 152 375 148 c 0,92,93
 363 145 363 145 351 143 c 0,94,95
 338 141 338 141 326 141 c 0,96,97
 302 141 302 141 278 148 c 256,98,99
 254 155 254 155 230 168 c 1,100,101
 210 149 210 149 187 128 c 256,102,103
 164 107 164 107 148 92 c 1,0,1
250 229 m 0,104,105
 266 215 266 215 285 208 c 256,106,107
 304 201 304 201 327 201 c 256,108,109
 350 201 350 201 369 208 c 256,110,111
 388 215 388 215 403 229 c 0,112,113
 419 245 419 245 426 263 c 0,114,115
 434 281 434 281 434 302 c 0,116,117
 434 324 434 324 426 341 c 0,118,119
 419 359 419 359 403 374 c 0,120,121
 388 388 388 388 369 395 c 256,122,123
 350 402 350 402 327 402 c 256,124,125
 304 402 304 402 285 395 c 256,126,127
 266 388 266 388 251 374 c 0,128,129
 235 360 235 360 227 342 c 256,130,131
 219 324 219 324 219 302 c 0,132,133
 219 281 219 281 227 263 c 0,134,135
 234 245 234 245 250 229 c 0,104,105
EndSplineSet
Validated: 1
EndChar

StartChar: yen
Encoding: 165 165 103
Width: 614
GlyphClass: 1
Flags: W
LayerCount: 2
Fore
SplineSet
257 0 m 1,0,1
 257 185 257 185 257 247 c 1,2,3
 107 247 107 247 57 247 c 1,4,5
 57 285 57 285 57 298 c 1,6,7
 207 298 207 298 257 298 c 1,8,9
 257 310 257 310 257 315 c 0,10,11
 249 328 249 328 234 351 c 0,12,13
 220 373 220 373 212 386 c 1,14,15
 96 386 96 386 57 386 c 1,16,17
 57 425 57 425 57 438 c 1,18,19
 139 438 139 438 179 438 c 1,20,21
 160 470 160 470 130 519 c 0,22,23
 100 567 100 567 72 614 c 0,24,25
 56 639 56 639 43 662 c 0,26,27
 29 684 29 684 18 701 c 1,28,29
 90 701 90 701 126 701 c 1,30,31
 148 663 148 663 182 607 c 0,32,33
 215 550 215 550 248 495 c 0,34,35
 265 466 265 466 281 439 c 0,36,37
 296 413 296 413 308 392 c 1,38,39
 330 430 330 430 364 487 c 0,40,41
 397 544 397 544 429 598 c 0,42,43
 447 628 447 628 462 655 c 0,44,45
 478 681 478 681 489 701 c 1,46,47
 562 701 562 701 598 701 c 1,48,49
 578 669 578 669 548 621 c 0,50,51
 517 573 517 573 488 526 c 0,52,53
 472 501 472 501 458 478 c 256,54,55
 444 455 444 455 433 438 c 1,56,57
 528 438 528 438 559 438 c 1,58,59
 559 399 559 399 559 386 c 1,60,61
 454 386 454 386 401 386 c 1,62,63
 394 373 394 373 380 351 c 0,64,65
 366 328 366 328 358 315 c 1,66,67
 358 302 358 302 358 298 c 1,68,69
 509 298 509 298 559 298 c 1,70,71
 559 260 559 260 559 247 c 1,72,73
 409 247 409 247 358 247 c 1,74,75
 358 62 358 62 358 0 c 1,76,77
 282 0 282 0 257 0 c 1,0,1
EndSplineSet
Validated: 1
EndChar

StartChar: brokenbar
Encoding: 166 166 104
Width: 614
GlyphClass: 1
Flags: W
LayerCount: 2
Fore
SplineSet
266 414 m 1,0,1
 266 681 266 681 266 770 c 1,2,3
 331 770 331 770 352 770 c 1,4,5
 352 503 352 503 352 414 c 1,6,7
 288 414 288 414 266 414 c 1,0,1
266 -68 m 1,8,9
 266 200 266 200 266 289 c 1,10,11
 331 289 331 289 352 289 c 1,12,13
 352 22 352 22 352 -68 c 1,14,15
 288 -68 288 -68 266 -68 c 1,8,9
EndSplineSet
Validated: 1
EndChar

StartChar: section
Encoding: 167 167 105
Width: 614
GlyphClass: 1
Flags: W
LayerCount: 2
Fore
SplineSet
434 -52 m 0,0,1
 409 -72 409 -72 375 -82 c 256,2,3
 341 -92 341 -92 298 -92 c 0,4,5
 288 -92 288 -92 278 -92 c 0,6,7
 268 -91 268 -91 258 -90 c 256,8,9
 248 -89 248 -89 239 -88 c 256,10,11
 230 -87 230 -87 222 -85 c 0,12,13
 213 -83 213 -83 203 -82 c 0,14,15
 193 -80 193 -80 182 -77 c 0,16,17
 150 -68 150 -68 139 -65 c 1,18,19
 139 -13 139 -13 139 12 c 1,20,21
 183 -6 183 -6 220 -15 c 256,22,23
 257 -24 257 -24 287 -24 c 0,24,25
 312 -24 312 -24 331 -19 c 0,26,27
 351 -14 351 -14 365 -4 c 0,28,29
 378 6 378 6 386 19 c 0,30,31
 393 32 393 32 393 48 c 0,32,33
 393 62 393 62 386 76 c 0,34,35
 380 89 380 89 367 101 c 0,36,37
 354 114 354 114 332 127 c 0,38,39
 311 141 311 141 283 157 c 0,40,41
 280 158 280 158 278 159 c 0,42,43
 276 161 276 161 270 164 c 0,44,45
 245 178 245 178 224 189 c 0,46,47
 203 201 203 201 186 212 c 256,48,49
 169 223 169 223 156 234 c 0,50,51
 142 244 142 244 131 256 c 0,52,53
 115 274 115 274 107 295 c 0,54,55
 99 315 99 315 99 340 c 0,56,57
 99 361 99 361 105 380 c 256,58,59
 111 399 111 399 123 417 c 0,60,61
 134 434 134 434 152 448 c 0,62,63
 169 462 169 462 191 473 c 1,64,65
 176 483 176 483 165 495 c 256,66,67
 154 507 154 507 147 520 c 256,68,69
 140 533 140 533 136 548 c 0,70,71
 132 562 132 562 132 579 c 0,72,73
 132 610 132 610 145 635 c 0,74,75
 157 659 157 659 182 678 c 0,76,77
 195 688 195 688 211 694 c 0,78,79
 226 701 226 701 243 706 c 0,80,81
 260 710 260 710 278 712 c 0,82,83
 296 715 296 715 314 715 c 0,84,85
 324 715 324 715 333 714 c 0,86,87
 343 713 343 713 353 713 c 0,88,89
 363 712 363 712 373 711 c 0,90,91
 382 709 382 709 390 708 c 0,92,93
 408 705 408 705 427 699 c 0,94,95
 446 694 446 694 468 687 c 1,96,97
 468 636 468 636 468 610 c 1,98,99
 426 629 426 629 391 638 c 256,100,101
 356 647 356 647 326 647 c 0,102,103
 313 647 313 647 302 646 c 0,104,105
 291 644 291 644 282 642 c 0,106,107
 272 640 272 640 265 636 c 256,108,109
 258 632 258 632 252 628 c 0,110,111
 245 623 245 623 240 618 c 0,112,113
 234 612 234 612 231 605 c 256,114,115
 228 598 228 598 226 591 c 0,116,117
 224 585 224 585 224 579 c 0,118,119
 224 567 224 567 230 556 c 0,120,121
 236 544 236 544 248 532 c 0,122,123
 259 521 259 521 280 507 c 0,124,125
 300 494 300 494 327 479 c 0,126,127
 332 476 332 476 335 475 c 0,128,129
 337 474 337 474 347 469 c 0,130,131
 377 454 377 454 400 440 c 256,132,133
 423 426 423 426 438 416 c 0,134,135
 454 405 454 405 466 395 c 256,136,137
 478 385 478 385 485 377 c 0,138,139
 502 358 502 358 510 337 c 256,140,141
 518 316 518 316 518 292 c 0,142,143
 518 271 518 271 513 253 c 0,144,145
 507 235 507 235 496 218 c 0,146,147
 484 201 484 201 467 187 c 0,148,149
 449 172 449 172 426 160 c 1,150,151
 441 147 441 147 452 135 c 256,152,153
 463 123 463 123 471 110 c 0,154,155
 475 103 475 103 477 97 c 0,156,157
 480 91 480 91 481 84 c 0,158,159
 483 77 483 77 484 69 c 256,160,161
 485 61 485 61 485 52 c 0,162,163
 485 20 485 20 472 -6 c 0,164,165
 460 -32 460 -32 434 -52 c 0,0,1
272 248 m 0,166,167
 290 237 290 237 316 223 c 0,168,169
 341 209 341 209 375 193 c 1,170,171
 391 203 391 203 402 214 c 0,172,173
 414 225 414 225 421 234 c 0,174,175
 429 245 429 245 432 257 c 0,176,177
 436 268 436 268 436 279 c 0,178,179
 436 289 436 289 433 298 c 0,180,181
 431 307 431 307 426 315 c 0,182,183
 421 324 421 324 415 332 c 0,184,185
 408 339 408 339 400 346 c 0,186,187
 382 362 382 362 343 386 c 0,188,189
 303 410 303 410 243 440 c 1,190,191
 227 430 227 430 215 418 c 0,192,193
 204 407 204 407 197 397 c 0,194,195
 193 393 193 393 190 388 c 0,196,197
 188 383 188 383 185 378 c 0,198,199
 183 372 183 372 182 367 c 0,200,201
 181 361 181 361 181 354 c 0,202,203
 181 337 181 337 190 320 c 256,204,205
 199 303 199 303 217 287 c 0,206,207
 227 278 227 278 241 268 c 0,208,209
 255 259 255 259 272 248 c 0,166,167
EndSplineSet
Validated: 1
EndChar

StartChar: dieresis
Encoding: 168 168 106
Width: 614
GlyphClass: 1
Flags: W
LayerCount: 2
Fore
SplineSet
174 729 m 0,0,1
 222 729 222 729 246 729 c 0,2,3
 253 729 253 729 257 726 c 256,4,5
 261 723 261 723 261 716 c 0,6,7
 261 671 261 671 261 648 c 0,8,9
 261 641 261 641 257 638 c 256,10,11
 253 635 253 635 246 635 c 0,12,13
 198 635 198 635 174 635 c 0,14,15
 166 635 166 635 163 638 c 256,16,17
 160 641 160 641 160 648 c 0,18,19
 160 693 160 693 160 716 c 0,20,21
 160 723 160 723 163 726 c 256,22,23
 166 729 166 729 174 729 c 0,0,1
371 729 m 0,24,25
 418 729 418 729 441 729 c 0,26,27
 449 729 449 729 453 726 c 256,28,29
 457 723 457 723 457 716 c 0,30,31
 457 671 457 671 457 648 c 0,32,33
 457 641 457 641 453 638 c 256,34,35
 449 635 449 635 441 635 c 0,36,37
 394 635 394 635 371 635 c 0,38,39
 363 635 363 635 359 638 c 256,40,41
 355 641 355 641 355 648 c 0,42,43
 355 693 355 693 355 716 c 0,44,45
 355 723 355 723 359 726 c 256,46,47
 363 729 363 729 371 729 c 0,24,25
EndSplineSet
Validated: 1
EndChar

StartChar: copyright
Encoding: 169 169 107
Width: 614
GlyphClass: 1
Flags: W
LayerCount: 2
Fore
SplineSet
426 80 m 0,0,1
 399 69 399 69 370 64 c 0,2,3
 340 58 340 58 308 58 c 0,4,5
 245 58 245 58 190 80 c 0,6,7
 135 101 135 101 90 144 c 0,8,9
 69 165 69 165 52 188 c 0,10,11
 35 212 35 212 23 239 c 0,12,13
 11 264 11 264 6 291 c 0,14,15
 0 318 0 318 0 348 c 256,16,17
 0 378 0 378 6 406 c 0,18,19
 11 433 11 433 23 459 c 256,20,21
 35 485 35 485 52 509 c 256,22,23
 69 533 69 533 91 554 c 256,24,25
 113 575 113 575 137 591 c 0,26,27
 162 607 162 607 190 617 c 0,28,29
 217 628 217 628 247 633 c 256,30,31
 277 638 277 638 308 638 c 0,32,33
 340 638 340 638 369 633 c 256,34,35
 398 628 398 628 426 617 c 0,36,37
 441 612 441 612 454 605 c 256,38,39
 467 598 467 598 479 590 c 0,40,41
 492 581 492 581 503 573 c 0,42,43
 515 564 515 564 525 554 c 0,44,45
 538 542 538 542 548 530 c 256,46,47
 558 518 558 518 566 506 c 0,48,49
 575 494 575 494 582 482 c 256,50,51
 589 470 589 470 594 459 c 0,52,53
 605 433 605 433 611 406 c 0,54,55
 616 379 616 379 616 349 c 256,56,57
 616 319 616 319 611 291 c 0,58,59
 605 263 605 263 594 239 c 0,60,61
 589 226 589 226 581 214 c 0,62,63
 574 202 574 202 565 189 c 0,64,65
 557 177 557 177 547 166 c 0,66,67
 538 155 538 155 526 144 c 0,68,69
 516 134 516 134 504 126 c 0,70,71
 492 117 492 117 479 109 c 0,72,73
 466 100 466 100 453 93 c 0,74,75
 441 85 441 85 426 80 c 0,0,1
211 125 m 256,76,77
 234 116 234 116 258 111 c 256,78,79
 282 106 282 106 308 106 c 256,80,81
 334 106 334 106 358 111 c 256,82,83
 382 116 382 116 406 125 c 0,84,85
 429 135 429 135 450 148 c 0,86,87
 471 160 471 160 489 177 c 0,88,89
 498 185 498 185 506 194 c 0,90,91
 515 204 515 204 522 214 c 0,92,93
 530 224 530 224 536 235 c 256,94,95
 542 246 542 246 547 257 c 0,96,97
 556 278 556 278 561 300 c 0,98,99
 565 323 565 323 565 348 c 256,100,101
 565 373 565 373 560 396 c 0,102,103
 555 420 555 420 546 441 c 0,104,105
 537 463 537 463 522 483 c 0,106,107
 508 503 508 503 489 520 c 0,108,109
 471 538 471 538 450 551 c 256,110,111
 429 564 429 564 407 572 c 0,112,113
 384 581 384 581 360 585 c 0,114,115
 335 590 335 590 308 590 c 256,116,117
 281 590 281 590 256 585 c 0,118,119
 231 581 231 581 210 572 c 0,120,121
 187 563 187 563 166 551 c 0,122,123
 145 538 145 538 127 520 c 0,124,125
 108 503 108 503 94 483 c 256,126,127
 80 463 80 463 71 441 c 0,128,129
 61 420 61 420 56 397 c 256,130,131
 51 374 51 374 51 349 c 0,132,133
 51 325 51 325 56 302 c 256,134,135
 61 279 61 279 71 257 c 0,136,137
 77 244 77 244 83 232 c 0,138,139
 90 220 90 220 97 211 c 0,140,141
 105 202 105 202 113 193 c 0,142,143
 120 185 120 185 127 178 c 0,144,145
 145 161 145 161 167 147 c 0,146,147
 188 134 188 134 211 125 c 256,76,77
432 195 m 1,148,149
 406 184 406 184 378 178 c 0,150,151
 349 173 349 173 319 173 c 0,152,153
 274 173 274 173 238 185 c 0,154,155
 202 196 202 196 176 220 c 256,156,157
 150 244 150 244 137 276 c 0,158,159
 125 307 125 307 125 348 c 256,160,161
 125 389 125 389 138 421 c 256,162,163
 151 453 151 453 177 477 c 256,164,165
 203 501 203 501 239 513 c 0,166,167
 275 524 275 524 319 524 c 0,168,169
 333 524 333 524 348 523 c 0,170,171
 362 521 362 521 378 519 c 0,172,173
 391 517 391 517 404 513 c 0,174,175
 418 509 418 509 432 504 c 1,176,177
 432 470 432 470 432 453 c 1,178,179
 418 460 418 460 404 464 c 0,180,181
 390 469 390 469 376 472 c 0,182,183
 369 474 369 474 361 475 c 0,184,185
 354 476 354 476 347 477 c 256,186,187
 340 478 340 478 333 478 c 0,188,189
 327 478 327 478 321 478 c 0,190,191
 306 478 306 478 293 476 c 0,192,193
 281 474 281 474 268 470 c 0,194,195
 256 466 256 466 245 460 c 0,196,197
 235 454 235 454 226 444 c 0,198,199
 209 427 209 427 201 402 c 0,200,201
 193 378 193 378 193 347 c 0,202,203
 193 317 193 317 201 294 c 0,204,205
 210 270 210 270 227 253 c 0,206,207
 245 236 245 236 270 228 c 0,208,209
 296 219 296 219 329 219 c 0,210,211
 357 219 357 219 383 225 c 0,212,213
 408 231 408 231 432 244 c 1,214,215
 432 207 432 207 432 195 c 1,148,149
EndSplineSet
Validated: 1
EndChar

StartChar: ordfeminine
Encoding: 170 170 108
Width: 614
GlyphClass: 1
Flags: W
LayerCount: 2
Fore
SplineSet
348 344 m 256,0,1
 332 336 332 336 313 332 c 0,2,3
 295 328 295 328 273 328 c 0,4,5
 242 328 242 328 217 336 c 0,6,7
 191 344 191 344 172 360 c 0,8,9
 154 377 154 377 144 398 c 0,10,11
 135 420 135 420 135 446 c 0,12,13
 135 476 135 476 147 500 c 0,14,15
 158 523 158 523 181 540 c 0,16,17
 205 556 205 556 238 565 c 0,18,19
 271 573 271 573 314 573 c 0,20,21
 383 573 383 573 406 573 c 1,22,23
 406 574 406 574 406 574 c 2,24,25
 406 596 406 596 398 612 c 0,26,27
 391 628 391 628 376 639 c 0,28,29
 367 645 367 645 357 649 c 256,30,31
 347 653 347 653 336 655 c 0,32,33
 325 658 325 658 314 659 c 256,34,35
 303 660 303 660 292 660 c 0,36,37
 276 660 276 660 262 658 c 0,38,39
 247 656 247 656 231 652 c 256,40,41
 215 648 215 648 199 642 c 0,42,43
 182 636 182 636 166 629 c 1,44,45
 166 668 166 668 166 688 c 1,46,47
 183 695 183 695 200 700 c 0,48,49
 218 705 218 705 234 708 c 0,50,51
 243 709 243 709 251 711 c 0,52,53
 259 712 259 712 266 713 c 0,54,55
 274 713 274 713 283 714 c 256,56,57
 292 715 292 715 301 715 c 0,58,59
 345 715 345 715 378 704 c 0,60,61
 411 694 411 694 433 674 c 256,62,63
 455 654 455 654 466 623 c 256,64,65
 477 592 477 592 477 548 c 0,66,67
 477 390 477 390 477 337 c 1,68,69
 434 337 434 337 413 337 c 1,70,71
 411 347 411 347 409 363 c 256,72,73
 407 379 407 379 406 389 c 1,74,75
 393 374 393 374 379 363 c 0,76,77
 364 352 364 352 348 344 c 256,0,1
230 402 m 0,78,79
 241 393 241 393 256 389 c 0,80,81
 270 384 270 384 288 384 c 0,82,83
 314 384 314 384 335 392 c 0,84,85
 357 401 357 401 373 418 c 256,86,87
 389 435 389 435 397 456 c 0,88,89
 406 478 406 478 406 505 c 0,90,91
 406 516 406 516 406 519 c 1,92,93
 363 519 363 519 342 519 c 0,94,95
 306 519 306 519 280 515 c 0,96,97
 254 510 254 510 239 503 c 0,98,99
 223 494 223 494 216 482 c 0,100,101
 208 469 208 469 208 451 c 0,102,103
 208 442 208 442 209 435 c 0,104,105
 211 427 211 427 214 422 c 256,106,107
 217 417 217 417 221 411 c 0,108,109
 225 406 225 406 230 402 c 0,78,79
146 220 m 1,110,111
 146 264 146 264 146 279 c 1,112,113
 397 279 397 279 480 279 c 1,114,115
 480 235 480 235 480 220 c 1,116,117
 230 220 230 220 146 220 c 1,110,111
EndSplineSet
Validated: 1
EndChar

StartChar: guillemotleft
Encoding: 171 171 109
Width: 614
GlyphClass: 1
Flags: W
LayerCount: 2
Fore
SplineSet
274 67 m 1,0,1
 259 79 259 79 239 96 c 256,2,3
 219 113 219 113 196 132 c 0,4,5
 155 167 155 167 112 203 c 0,6,7
 68 239 68 239 40 263 c 1,8,9
 40 288 40 288 40 301 c 1,10,11
 68 325 68 325 112 361 c 0,12,13
 155 397 155 397 196 432 c 0,14,15
 219 451 219 451 239 468 c 256,16,17
 259 485 259 485 274 498 c 1,18,19
 274 438 274 438 274 408 c 1,20,21
 246 384 246 384 199 345 c 0,22,23
 152 305 152 305 124 282 c 1,24,25
 152 258 152 258 199 219 c 0,26,27
 246 179 246 179 274 156 c 1,28,29
 274 89 274 89 274 67 c 1,0,1
501 67 m 1,30,31
 472 91 472 91 429 127 c 256,32,33
 386 163 386 163 344 198 c 0,34,35
 322 217 322 217 302 233 c 0,36,37
 282 250 282 250 266 263 c 1,38,39
 266 288 266 288 266 301 c 1,40,41
 295 325 295 325 338 361 c 256,42,43
 381 397 381 397 423 432 c 0,44,45
 445 451 445 451 465 468 c 256,46,47
 485 485 485 485 501 498 c 1,48,49
 501 438 501 438 501 408 c 1,50,51
 472 384 472 384 425 345 c 0,52,53
 379 305 379 305 350 282 c 1,54,55
 379 258 379 258 425 219 c 0,56,57
 472 179 472 179 501 156 c 1,58,59
 501 89 501 89 501 67 c 1,30,31
EndSplineSet
Validated: 1
EndChar

StartChar: logicalnot
Encoding: 172 172 110
Width: 614
GlyphClass: 1
Flags: W
LayerCount: 2
Fore
SplineSet
488 174 m 1,0,1
 488 287 488 287 488 325 c 1,2,3
 155 325 155 325 44 325 c 1,4,5
 44 385 44 385 44 406 c 1,6,7
 440 406 440 406 572 406 c 1,8,9
 572 232 572 232 572 174 c 1,10,11
 509 174 509 174 488 174 c 1,0,1
EndSplineSet
Validated: 1
EndChar

StartChar: uni00ad
Encoding: 173 173 111
Width: 614
GlyphClass: 1
Flags: W
LayerCount: 2
Fore
SplineSet
178 225 m 1,0,1
 178 283 178 283 178 302 c 1,2,3
 373 302 373 302 438 302 c 1,4,5
 438 244 438 244 438 225 c 1,6,7
 243 225 243 225 178 225 c 1,0,1
EndSplineSet
Validated: 1
EndChar

StartChar: registered
Encoding: 174 174 112
Width: 614
GlyphClass: 1
Flags: W
LayerCount: 2
Fore
SplineSet
426 80 m 0,0,1
 399 69 399 69 370 64 c 0,2,3
 340 58 340 58 308 58 c 0,4,5
 245 58 245 58 190 80 c 0,6,7
 135 101 135 101 90 144 c 0,8,9
 69 165 69 165 52 188 c 0,10,11
 35 212 35 212 23 239 c 0,12,13
 11 264 11 264 6 291 c 0,14,15
 0 318 0 318 0 348 c 256,16,17
 0 378 0 378 6 406 c 0,18,19
 11 433 11 433 23 459 c 256,20,21
 35 485 35 485 52 509 c 256,22,23
 69 533 69 533 91 554 c 256,24,25
 113 575 113 575 137 591 c 0,26,27
 162 607 162 607 190 617 c 0,28,29
 217 628 217 628 247 633 c 256,30,31
 277 638 277 638 308 638 c 0,32,33
 340 638 340 638 369 633 c 256,34,35
 398 628 398 628 426 617 c 0,36,37
 441 612 441 612 454 605 c 256,38,39
 467 598 467 598 479 590 c 0,40,41
 492 581 492 581 503 573 c 0,42,43
 515 564 515 564 525 554 c 0,44,45
 538 542 538 542 548 530 c 256,46,47
 558 518 558 518 566 506 c 0,48,49
 575 494 575 494 582 482 c 256,50,51
 589 470 589 470 594 459 c 0,52,53
 605 433 605 433 611 406 c 0,54,55
 616 379 616 379 616 349 c 256,56,57
 616 319 616 319 611 291 c 0,58,59
 605 263 605 263 594 239 c 0,60,61
 589 226 589 226 581 214 c 0,62,63
 574 202 574 202 565 189 c 0,64,65
 557 177 557 177 547 166 c 0,66,67
 538 155 538 155 526 144 c 0,68,69
 516 134 516 134 504 126 c 0,70,71
 492 117 492 117 479 109 c 0,72,73
 466 100 466 100 453 93 c 0,74,75
 441 85 441 85 426 80 c 0,0,1
211 125 m 256,76,77
 234 116 234 116 258 111 c 256,78,79
 282 106 282 106 308 106 c 256,80,81
 334 106 334 106 358 111 c 256,82,83
 382 116 382 116 406 125 c 0,84,85
 429 135 429 135 450 148 c 0,86,87
 471 160 471 160 489 177 c 0,88,89
 498 185 498 185 506 194 c 0,90,91
 515 204 515 204 522 214 c 0,92,93
 530 224 530 224 536 235 c 256,94,95
 542 246 542 246 547 257 c 0,96,97
 556 278 556 278 561 300 c 0,98,99
 565 323 565 323 565 348 c 256,100,101
 565 373 565 373 560 396 c 0,102,103
 555 420 555 420 546 441 c 0,104,105
 537 463 537 463 522 483 c 0,106,107
 508 503 508 503 489 520 c 0,108,109
 471 538 471 538 450 551 c 256,110,111
 429 564 429 564 407 572 c 0,112,113
 384 581 384 581 360 585 c 0,114,115
 335 590 335 590 308 590 c 256,116,117
 281 590 281 590 256 585 c 0,118,119
 231 581 231 581 210 572 c 0,120,121
 187 563 187 563 166 551 c 0,122,123
 145 538 145 538 127 520 c 0,124,125
 108 503 108 503 94 483 c 256,126,127
 80 463 80 463 71 441 c 0,128,129
 61 420 61 420 56 397 c 256,130,131
 51 374 51 374 51 349 c 0,132,133
 51 325 51 325 56 302 c 256,134,135
 61 279 61 279 71 257 c 0,136,137
 77 244 77 244 83 232 c 0,138,139
 90 220 90 220 97 211 c 0,140,141
 105 202 105 202 113 193 c 0,142,143
 120 185 120 185 127 178 c 0,144,145
 145 161 145 161 167 147 c 0,146,147
 188 134 188 134 211 125 c 256,76,77
181 190 m 1,148,149
 181 435 181 435 181 517 c 1,150,151
 260 517 260 517 300 517 c 0,152,153
 338 517 338 517 365 511 c 256,154,155
 392 505 392 505 410 494 c 0,156,157
 427 482 427 482 436 465 c 0,158,159
 445 447 445 447 445 424 c 0,160,161
 445 407 445 407 440 393 c 256,162,163
 435 379 435 379 424 369 c 0,164,165
 413 358 413 358 397 350 c 0,166,167
 381 343 381 343 361 340 c 1,168,169
 366 339 366 339 372 334 c 0,170,171
 377 329 377 329 385 322 c 0,172,173
 388 318 388 318 392 312 c 0,174,175
 396 307 396 307 401 301 c 0,176,177
 407 295 407 295 411 289 c 0,178,179
 415 284 415 284 419 279 c 0,180,181
 433 257 433 257 449 232 c 256,182,183
 465 207 465 207 476 190 c 1,184,185
 422 190 422 190 404 190 c 1,186,187
 369 245 369 245 351 272 c 0,188,189
 339 292 339 292 329 304 c 0,190,191
 318 316 318 316 311 321 c 0,192,193
 304 325 304 325 295 327 c 0,194,195
 285 330 285 330 273 330 c 0,196,197
 253 330 253 330 246 330 c 1,198,199
 246 225 246 225 246 190 c 1,200,201
 197 190 197 190 181 190 c 1,148,149
246 369 m 1,202,203
 280 369 280 369 297 369 c 0,204,205
 319 369 319 369 335 372 c 256,206,207
 351 375 351 375 360 381 c 0,208,209
 370 387 370 387 374 398 c 0,210,211
 379 408 379 408 379 423 c 0,212,213
 379 430 379 430 378 436 c 256,214,215
 377 442 377 442 375 447 c 0,216,217
 372 453 372 453 369 457 c 0,218,219
 366 462 366 462 360 465 c 0,220,221
 351 471 351 471 335 474 c 256,222,223
 319 477 319 477 297 477 c 0,224,225
 259 477 259 477 246 477 c 1,226,227
 246 396 246 396 246 369 c 1,202,203
EndSplineSet
Validated: 1
EndChar

StartChar: macron
Encoding: 175 175 113
Width: 614
GlyphClass: 1
Flags: W
LayerCount: 2
Fore
SplineSet
458 717 m 1,0,1
 458 665 458 665 458 647 c 1,2,3
 233 647 233 647 159 647 c 1,4,5
 159 699 159 699 159 717 c 1,6,7
 383 717 383 717 458 717 c 1,0,1
EndSplineSet
Validated: 1
EndChar

StartChar: degree
Encoding: 176 176 114
Width: 614
GlyphClass: 1
Flags: W
LayerCount: 2
Fore
SplineSet
370 427 m 0,0,1
 355 422 355 422 339 419 c 256,2,3
 323 416 323 416 306 416 c 0,4,5
 290 416 290 416 275 419 c 256,6,7
 260 422 260 422 246 427 c 0,8,9
 231 432 231 432 218 440 c 256,10,11
 205 448 205 448 194 459 c 0,12,13
 184 468 184 468 176 479 c 0,14,15
 168 491 168 491 162 504 c 256,16,17
 156 517 156 517 153 532 c 256,18,19
 150 547 150 547 150 563 c 0,20,21
 150 595 150 595 161 622 c 256,22,23
 172 649 172 649 195 671 c 0,24,25
 217 692 217 692 245 703 c 0,26,27
 273 715 273 715 307 715 c 0,28,29
 315 715 315 715 323 714 c 0,30,31
 330 713 330 713 339 712 c 0,32,33
 347 710 347 710 355 708 c 0,34,35
 362 707 362 707 370 703 c 0,36,37
 377 700 377 700 384 697 c 0,38,39
 391 693 391 693 398 688 c 0,40,41
 405 684 405 684 411 679 c 256,42,43
 417 674 417 674 422 670 c 0,44,45
 428 664 428 664 433 658 c 256,46,47
 438 652 438 652 442 645 c 0,48,49
 447 638 447 638 450 633 c 0,50,51
 453 627 453 627 456 622 c 0,52,53
 461 609 461 609 464 594 c 0,54,55
 467 580 467 580 467 565 c 0,56,57
 467 533 467 533 455 506 c 0,58,59
 444 479 444 479 421 459 c 0,60,61
 410 449 410 449 397 441 c 0,62,63
 384 432 384 432 370 427 c 0,0,1
241 501 m 0,64,65
 254 488 254 488 271 482 c 0,66,67
 288 475 288 475 307 475 c 0,68,69
 317 475 317 475 327 477 c 0,70,71
 336 478 336 478 345 482 c 256,72,73
 354 486 354 486 362 491 c 256,74,75
 370 496 370 496 376 502 c 0,76,77
 383 509 383 509 388 516 c 0,78,79
 394 523 394 523 397 531 c 0,80,81
 400 540 400 540 402 548 c 0,82,83
 403 556 403 556 403 564 c 0,84,85
 403 583 403 583 397 599 c 0,86,87
 390 615 390 615 376 628 c 0,88,89
 370 633 370 633 362 638 c 0,90,91
 355 642 355 642 346 646 c 0,92,93
 338 650 338 650 328 652 c 0,94,95
 319 653 319 653 308 653 c 0,96,97
 288 653 288 653 271 648 c 0,98,99
 254 642 254 642 241 629 c 0,100,101
 227 616 227 616 220 599 c 256,102,103
 213 582 213 582 213 563 c 0,104,105
 213 545 213 545 220 529 c 0,106,107
 227 514 227 514 241 501 c 0,64,65
EndSplineSet
Validated: 1
EndChar

StartChar: plusminus
Encoding: 177 177 115
Width: 614
GlyphClass: 1
Flags: W
LayerCount: 2
Fore
SplineSet
266 160 m 1,0,1
 266 276 266 276 266 315 c 1,2,3
 100 315 100 315 44 315 c 1,4,5
 44 375 44 375 44 395 c 1,6,7
 211 395 211 395 266 395 c 1,8,9
 266 511 266 511 266 550 c 1,10,11
 329 550 329 550 350 550 c 1,12,13
 350 434 350 434 350 395 c 1,14,15
 517 395 517 395 572 395 c 1,16,17
 572 335 572 335 572 315 c 1,18,19
 406 315 406 315 350 315 c 1,20,21
 350 199 350 199 350 160 c 1,22,23
 287 160 287 160 266 160 c 1,0,1
44 0 m 1,24,25
 44 60 44 60 44 80 c 1,26,27
 440 80 440 80 572 80 c 1,28,29
 572 20 572 20 572 0 c 1,30,31
 176 0 176 0 44 0 c 1,24,25
EndSplineSet
Validated: 1
EndChar

StartChar: twosuperior
Encoding: 178 178 116
Width: 614
GlyphClass: 1
Flags: W
LayerCount: 2
Fore
SplineSet
161 526 m 1,0,1
 161 561 161 561 161 579 c 1,2,3
 182 599 182 599 219 631 c 0,4,5
 255 664 255 664 276 684 c 0,6,7
 292 698 292 698 303 709 c 0,8,9
 315 720 315 720 323 728 c 0,10,11
 330 736 330 736 336 744 c 0,12,13
 343 752 343 752 347 759 c 0,14,15
 357 773 357 773 362 787 c 0,16,17
 368 800 368 800 368 812 c 0,18,19
 368 826 368 826 361 837 c 0,20,21
 354 849 354 849 342 858 c 256,22,23
 330 867 330 867 314 871 c 0,24,25
 297 876 297 876 278 876 c 0,26,27
 264 876 264 876 251 874 c 256,28,29
 238 872 238 872 224 867 c 0,30,31
 210 863 210 863 195 856 c 0,32,33
 180 850 180 850 164 842 c 1,34,35
 164 881 164 881 164 900 c 1,36,37
 181 907 181 907 197 912 c 0,38,39
 213 918 213 918 227 921 c 0,40,41
 243 924 243 924 258 925 c 0,42,43
 272 927 272 927 288 927 c 0,44,45
 323 927 323 927 351 919 c 256,46,47
 379 911 379 911 400 896 c 0,48,49
 411 888 411 888 419 879 c 0,50,51
 428 869 428 869 433 859 c 0,52,53
 439 849 439 849 441 838 c 256,54,55
 443 827 443 827 443 815 c 0,56,57
 443 807 443 807 442 799 c 0,58,59
 441 792 441 792 438 785 c 0,60,61
 436 779 436 779 433 773 c 0,62,63
 430 766 430 766 425 760 c 0,64,65
 413 744 413 744 394 722 c 0,66,67
 375 701 375 701 347 676 c 0,68,69
 321 652 321 652 291 625 c 0,70,71
 262 598 262 598 242 580 c 1,72,73
 395 580 395 580 446 580 c 1,74,75
 446 540 446 540 446 526 c 1,76,77
 232 526 232 526 161 526 c 1,0,1
EndSplineSet
Validated: 1
EndChar

StartChar: threesuperior
Encoding: 179 179 117
Width: 614
GlyphClass: 1
Flags: W
LayerCount: 2
Fore
SplineSet
415 553 m 256,0,1
 391 537 391 537 357 529 c 0,2,3
 324 521 324 521 281 521 c 0,4,5
 272 521 272 521 264 521 c 0,6,7
 257 521 257 521 250 522 c 256,8,9
 243 523 243 523 236 524 c 0,10,11
 228 525 228 525 221 526 c 0,12,13
 214 528 214 528 206 529 c 0,14,15
 198 531 198 531 191 532 c 0,16,17
 185 534 185 534 178 536 c 0,18,19
 170 538 170 538 163 541 c 1,20,21
 163 578 163 578 163 597 c 1,22,23
 171 594 171 594 180 591 c 0,24,25
 188 589 188 589 196 587 c 0,26,27
 203 584 203 584 211 582 c 256,28,29
 219 580 219 580 226 579 c 0,30,31
 239 575 239 575 252 574 c 0,32,33
 264 572 264 572 278 572 c 0,34,35
 302 572 302 572 322 577 c 256,36,37
 342 582 342 582 357 592 c 0,38,39
 364 596 364 596 369 601 c 256,40,41
 374 606 374 606 378 613 c 256,42,43
 382 620 382 620 384 628 c 0,44,45
 386 635 386 635 386 644 c 0,46,47
 386 660 386 660 379 673 c 256,48,49
 372 686 372 686 358 695 c 0,50,51
 345 705 345 705 324 709 c 256,52,53
 303 713 303 713 276 713 c 0,54,55
 252 713 252 713 244 713 c 1,56,57
 244 751 244 751 244 764 c 1,58,59
 268 764 268 764 281 764 c 0,60,61
 304 764 304 764 321 768 c 0,62,63
 339 772 339 772 351 779 c 0,64,65
 364 786 364 786 370 797 c 0,66,67
 376 807 376 807 376 821 c 0,68,69
 376 834 376 834 370 845 c 0,70,71
 365 856 365 856 352 863 c 0,72,73
 341 870 341 870 324 874 c 256,74,75
 307 878 307 878 286 878 c 0,76,77
 273 878 273 878 261 876 c 0,78,79
 248 874 248 874 234 871 c 0,80,81
 228 870 228 870 220 869 c 0,82,83
 213 868 213 868 206 865 c 0,84,85
 199 863 199 863 192 860 c 256,86,87
 185 857 185 857 177 855 c 1,88,89
 177 893 177 893 177 912 c 1,90,91
 186 914 186 914 194 916 c 0,92,93
 203 918 203 918 211 920 c 0,94,95
 219 921 219 921 226 922 c 0,96,97
 234 923 234 923 241 925 c 0,98,99
 255 927 255 927 269 928 c 256,100,101
 283 929 283 929 296 929 c 0,102,103
 331 929 331 929 360 922 c 0,104,105
 388 915 388 915 410 901 c 0,106,107
 430 887 430 887 441 869 c 0,108,109
 452 850 452 850 452 827 c 0,110,111
 452 810 452 810 446 797 c 0,112,113
 440 783 440 783 429 772 c 256,114,115
 418 761 418 761 402 753 c 256,116,117
 386 745 386 745 366 740 c 1,118,119
 389 736 389 736 407 727 c 0,120,121
 425 719 425 719 437 706 c 0,122,123
 450 693 450 693 456 678 c 0,124,125
 462 662 462 662 462 642 c 0,126,127
 462 614 462 614 450 591 c 0,128,129
 439 569 439 569 415 553 c 256,0,1
EndSplineSet
Validated: 1
EndChar

StartChar: acute
Encoding: 180 180 118
Width: 614
GlyphClass: 1
Flags: W
LayerCount: 2
Fore
SplineSet
477 770 m 1,0,1
 466 758 466 758 452 743 c 256,2,3
 438 728 438 728 423 711 c 0,4,5
 394 680 394 680 364 647 c 256,6,7
 334 614 334 614 314 593 c 1,8,9
 263 593 263 593 238 593 c 1,10,11
 255 614 255 614 280 647 c 0,12,13
 306 680 306 680 331 711 c 0,14,15
 345 728 345 728 357 743 c 256,16,17
 369 758 369 758 378 770 c 1,18,19
 452 770 452 770 477 770 c 1,0,1
EndSplineSet
Validated: 1
EndChar

StartChar: mu
Encoding: 181 181 119
Width: 614
GlyphClass: 1
Flags: W
LayerCount: 2
Fore
SplineSet
83 -201 m 1,0,1
 83 345 83 345 83 526 c 1,2,3
 151 526 151 526 174 526 c 1,4,5
 174 309 174 309 174 200 c 0,6,7
 174 181 174 181 176 166 c 256,8,9
 178 151 178 151 182 138 c 0,10,11
 186 126 186 126 192 116 c 256,12,13
 198 106 198 106 205 97 c 0,14,15
 220 80 220 80 241 71 c 0,16,17
 262 61 262 61 291 61 c 0,18,19
 322 61 322 61 346 71 c 256,20,21
 370 81 370 81 386 101 c 256,22,23
 402 121 402 121 410 151 c 0,24,25
 418 180 418 180 418 219 c 0,26,27
 418 450 418 450 418 526 c 1,28,29
 488 526 488 526 511 526 c 1,30,31
 511 255 511 255 511 120 c 0,32,33
 511 106 511 106 513 96 c 0,34,35
 514 87 514 87 518 80 c 256,36,37
 522 73 522 73 528 70 c 256,38,39
 534 67 534 67 542 67 c 0,40,41
 544 67 544 67 547 67 c 256,42,43
 550 67 550 67 555 69 c 0,44,45
 559 69 559 69 564 72 c 0,46,47
 570 74 570 74 577 77 c 1,48,49
 577 30 577 30 577 7 c 1,50,51
 567 2 567 2 558 -2 c 0,52,53
 548 -5 548 -5 540 -8 c 0,54,55
 530 -10 530 -10 522 -12 c 0,56,57
 514 -13 514 -13 506 -13 c 0,58,59
 490 -13 490 -13 478 -9 c 0,60,61
 466 -4 466 -4 457 5 c 0,62,63
 447 15 447 15 441 29 c 0,64,65
 434 42 434 42 431 60 c 1,66,67
 420 41 420 41 406 28 c 0,68,69
 392 14 392 14 376 5 c 256,70,71
 360 -4 360 -4 340 -9 c 0,72,73
 320 -13 320 -13 297 -13 c 0,74,75
 253 -13 253 -13 220 5 c 256,76,77
 187 23 187 23 166 59 c 1,78,79
 166 -136 166 -136 166 -201 c 1,80,81
 104 -201 104 -201 83 -201 c 1,0,1
EndSplineSet
Validated: 1
EndChar

StartChar: paragraph
Encoding: 182 182 120
Width: 614
GlyphClass: 1
Flags: W
LayerCount: 2
Fore
SplineSet
279 -92 m 1,0,1
 279 173 279 173 279 305 c 1,2,3
 225 309 225 309 183 324 c 256,4,5
 141 339 141 339 112 366 c 0,6,7
 97 379 97 379 87 393 c 0,8,9
 76 407 76 407 69 424 c 0,10,11
 61 441 61 441 57 461 c 256,12,13
 53 481 53 481 53 503 c 0,14,15
 53 547 53 547 70 584 c 0,16,17
 86 620 86 620 119 647 c 256,18,19
 152 674 152 674 194 688 c 0,20,21
 237 701 237 701 291 701 c 0,22,23
 459 701 459 701 515 701 c 1,24,25
 515 106 515 106 515 -92 c 1,26,27
 462 -92 462 -92 444 -92 c 1,28,29
 444 460 444 460 444 644 c 1,30,31
 373 644 373 644 349 644 c 1,32,33
 349 92 349 92 349 -92 c 1,34,35
 296 -92 296 -92 279 -92 c 1,0,1
EndSplineSet
Validated: 1
EndChar

StartChar: periodcentered
Encoding: 183 183 121
Width: 614
GlyphClass: 1
Flags: W
LayerCount: 2
Fore
SplineSet
366 293 m 0,0,1
 354 282 354 282 340 276 c 0,2,3
 325 270 325 270 308 270 c 256,4,5
 291 270 291 270 277 276 c 0,6,7
 262 282 262 282 251 293 c 0,8,9
 239 304 239 304 233 318 c 0,10,11
 227 333 227 333 227 350 c 0,12,13
 227 368 227 368 233 382 c 0,14,15
 239 397 239 397 251 408 c 0,16,17
 262 418 262 418 277 424 c 0,18,19
 291 430 291 430 308 430 c 256,20,21
 325 430 325 430 340 424 c 0,22,23
 354 418 354 418 366 408 c 0,24,25
 377 397 377 397 383 382 c 0,26,27
 389 368 389 368 389 350 c 0,28,29
 389 333 389 333 383 318 c 0,30,31
 377 304 377 304 366 293 c 0,0,1
EndSplineSet
Validated: 1
EndChar

StartChar: cedilla
Encoding: 184 184 122
Width: 614
GlyphClass: 1
Flags: W
LayerCount: 2
Fore
SplineSet
291 0 m 1,0,1
 330 0 330 0 350 0 c 1,2,3
 364 -14 364 -14 374 -28 c 0,4,5
 384 -41 384 -41 391 -54 c 0,6,7
 394 -60 394 -60 397 -65 c 0,8,9
 399 -71 399 -71 400 -77 c 0,10,11
 402 -83 402 -83 403 -90 c 256,12,13
 404 -97 404 -97 404 -103 c 0,14,15
 404 -123 404 -123 397 -139 c 0,16,17
 390 -154 390 -154 375 -165 c 0,18,19
 368 -170 368 -170 358 -174 c 0,20,21
 349 -177 349 -177 338 -180 c 256,22,23
 327 -183 327 -183 314 -184 c 0,24,25
 300 -185 300 -185 285 -185 c 0,26,27
 274 -185 274 -185 263 -185 c 256,28,29
 252 -185 252 -185 242 -183 c 0,30,31
 230 -182 230 -182 219 -179 c 0,32,33
 208 -177 208 -177 198 -174 c 1,34,35
 198 -133 198 -133 198 -113 c 1,36,37
 215 -120 215 -120 234 -124 c 256,38,39
 253 -128 253 -128 273 -128 c 0,40,41
 304 -128 304 -128 319 -117 c 0,42,43
 335 -106 335 -106 335 -85 c 0,44,45
 335 -77 335 -77 332 -68 c 256,46,47
 329 -59 329 -59 324 -49 c 0,48,49
 318 -39 318 -39 310 -27 c 256,50,51
 302 -15 302 -15 291 0 c 1,0,1
EndSplineSet
Validated: 1
EndChar

StartChar: onesuperior
Encoding: 185 185 123
Width: 614
GlyphClass: 1
Flags: W
LayerCount: 2
Fore
SplineSet
181 526 m 1,0,1
 181 566 181 566 181 579 c 1,2,3
 258 579 258 579 284 579 c 1,4,5
 284 770 284 770 284 865 c 1,6,7
 263 861 263 861 228 856 c 0,8,9
 193 850 193 850 172 846 c 1,10,11
 172 882 172 882 172 900 c 1,12,13
 194 903 194 903 229 909 c 0,14,15
 265 915 265 915 287 919 c 1,16,17
 338 919 338 919 355 919 c 1,18,19
 355 664 355 664 355 579 c 1,20,21
 432 579 432 579 458 579 c 1,22,23
 458 539 458 539 458 526 c 1,24,25
 250 526 250 526 181 526 c 1,0,1
EndSplineSet
Validated: 1
EndChar

StartChar: ordmasculine
Encoding: 186 186 124
Width: 614
GlyphClass: 1
Flags: W
LayerCount: 2
Fore
SplineSet
387 342 m 256,0,1
 370 335 370 335 351 331 c 0,2,3
 331 328 331 328 308 328 c 0,4,5
 284 328 284 328 264 332 c 256,6,7
 244 336 244 336 228 343 c 256,8,9
 212 350 212 350 198 359 c 256,10,11
 184 368 184 368 172 380 c 0,12,13
 161 392 161 392 151 407 c 0,14,15
 142 422 142 422 135 439 c 0,16,17
 128 457 128 457 125 478 c 0,18,19
 122 498 122 498 122 521 c 0,20,21
 122 565 122 565 134 600 c 0,22,23
 147 635 147 635 172 662 c 0,24,25
 184 674 184 674 198 684 c 256,26,27
 212 694 212 694 229 700 c 0,28,29
 246 707 246 707 266 711 c 0,30,31
 285 715 285 715 308 715 c 0,32,33
 330 715 330 715 350 711 c 256,34,35
 370 707 370 707 387 700 c 0,36,37
 404 694 404 694 418 684 c 0,38,39
 433 674 433 674 444 662 c 0,40,41
 470 635 470 635 482 600 c 0,42,43
 495 565 495 565 495 521 c 256,44,45
 495 477 495 477 482 442 c 0,46,47
 470 407 470 407 444 381 c 0,48,49
 433 369 433 369 418 359 c 0,50,51
 404 349 404 349 387 342 c 256,0,1
228 419 m 0,52,53
 243 401 243 401 263 392 c 256,54,55
 283 383 283 383 308 383 c 0,56,57
 334 383 334 383 354 392 c 256,58,59
 374 401 374 401 388 420 c 0,60,61
 395 428 395 428 400 439 c 0,62,63
 406 449 406 449 410 462 c 0,64,65
 413 475 413 475 415 490 c 0,66,67
 417 504 417 504 417 521 c 0,68,69
 417 553 417 553 410 579 c 0,70,71
 403 604 403 604 388 623 c 0,72,73
 381 631 381 631 373 638 c 0,74,75
 365 646 365 646 355 650 c 0,76,77
 345 655 345 655 334 657 c 0,78,79
 322 659 322 659 308 659 c 0,80,81
 282 659 282 659 263 651 c 0,82,83
 243 642 243 642 228 624 c 0,84,85
 214 605 214 605 207 580 c 0,86,87
 200 554 200 554 200 521 c 256,88,89
 200 488 200 488 207 463 c 0,90,91
 214 437 214 437 228 419 c 0,52,53
138 220 m 1,92,93
 138 264 138 264 138 279 c 1,94,95
 392 279 392 279 476 279 c 1,96,97
 476 235 476 235 476 220 c 1,98,99
 223 220 223 220 138 220 c 1,92,93
EndSplineSet
Validated: 1
EndChar

StartChar: guillemotright
Encoding: 187 187 125
Width: 614
GlyphClass: 1
Flags: W
LayerCount: 2
Fore
SplineSet
116 67 m 1,0,1
 116 126 116 126 116 156 c 1,2,3
 144 179 144 179 191 219 c 0,4,5
 238 258 238 258 266 282 c 1,6,7
 238 305 238 305 191 345 c 0,8,9
 144 384 144 384 116 408 c 1,10,11
 116 468 116 468 116 498 c 1,12,13
 144 474 144 474 187 437 c 0,14,15
 231 401 231 401 272 367 c 0,16,17
 295 348 295 348 315 331 c 256,18,19
 335 314 335 314 350 301 c 1,20,21
 350 276 350 276 350 263 c 1,22,23
 335 250 335 250 315 233 c 0,24,25
 295 217 295 217 272 198 c 0,26,27
 231 163 231 163 187 127 c 0,28,29
 144 91 144 91 116 67 c 1,0,1
342 67 m 1,30,31
 342 126 342 126 342 156 c 1,32,33
 370 179 370 179 417 219 c 0,34,35
 464 258 464 258 493 282 c 1,36,37
 464 305 464 305 417 345 c 0,38,39
 370 384 370 384 342 408 c 1,40,41
 342 468 342 468 342 498 c 1,42,43
 371 474 371 474 414 437 c 0,44,45
 457 401 457 401 498 367 c 0,46,47
 521 348 521 348 541 331 c 256,48,49
 561 314 561 314 577 301 c 1,50,51
 577 276 577 276 577 263 c 1,52,53
 548 239 548 239 505 203 c 256,54,55
 462 167 462 167 420 132 c 0,56,57
 398 113 398 113 377 96 c 0,58,59
 357 79 357 79 342 67 c 1,30,31
EndSplineSet
Validated: 1
EndChar

StartChar: onequarter
Encoding: 188 188 126
Width: 614
GlyphClass: 1
Flags: W
LayerCount: 2
Fore
SplineSet
52 387 m 1,0,1
 52 426 52 426 52 439 c 1,2,3
 129 439 129 439 155 439 c 1,4,5
 155 630 155 630 155 726 c 1,6,7
 134 722 134 722 99 716 c 256,8,9
 64 710 64 710 43 707 c 1,10,11
 43 743 43 743 43 762 c 1,12,13
 65 765 65 765 100 771 c 0,14,15
 136 776 136 776 158 779 c 0,16,17
 209 779 209 779 226 779 c 1,18,19
 226 524 226 524 226 439 c 1,20,21
 303 439 303 439 329 439 c 1,22,23
 329 400 329 400 329 387 c 1,24,25
 121 387 121 387 52 387 c 1,0,1
26 237 m 1,26,27
 23 246 23 246 19 262 c 0,28,29
 16 279 16 279 13 288 c 1,30,31
 78 303 78 303 175 325 c 0,32,33
 273 348 273 348 367 370 c 0,34,35
 418 381 418 381 463 392 c 0,36,37
 509 403 509 403 544 411 c 1,38,39
 546 401 546 401 550 386 c 0,40,41
 555 370 555 370 557 360 c 1,42,43
 492 345 492 345 394 323 c 0,44,45
 297 300 297 300 203 278 c 0,46,47
 152 266 152 266 106 255 c 0,48,49
 61 245 61 245 26 237 c 1,26,27
420 -127 m 1,50,51
 420 -62 420 -62 420 -40 c 1,52,53
 275 -40 275 -40 226 -40 c 1,54,55
 226 -2 226 -2 226 17 c 1,56,57
 248 48 248 48 282 93 c 0,58,59
 315 139 315 139 347 183 c 0,60,61
 364 206 364 206 380 227 c 0,62,63
 396 249 396 249 408 265 c 1,64,65
 468 265 468 265 488 265 c 1,66,67
 488 76 488 76 488 12 c 1,68,69
 532 12 532 12 547 12 c 1,70,71
 547 -27 547 -27 547 -40 c 1,72,73
 503 -40 503 -40 488 -40 c 1,74,75
 488 -105 488 -105 488 -127 c 1,76,77
 437 -127 437 -127 420 -127 c 1,50,51
283 12 m 1,78,79
 386 12 386 12 420 12 c 1,80,81
 420 142 420 142 420 207 c 1,82,83
 411 194 411 194 399 178 c 0,84,85
 387 161 387 161 374 142 c 0,86,87
 350 108 350 108 325 72 c 0,88,89
 299 36 299 36 283 12 c 1,78,79
EndSplineSet
Validated: 1
EndChar

StartChar: onehalf
Encoding: 189 189 127
Width: 614
GlyphClass: 1
Flags: W
LayerCount: 2
Fore
SplineSet
52 387 m 1,0,1
 52 426 52 426 52 439 c 1,2,3
 129 439 129 439 155 439 c 1,4,5
 155 630 155 630 155 726 c 1,6,7
 134 722 134 722 99 716 c 256,8,9
 64 710 64 710 43 707 c 1,10,11
 43 743 43 743 43 762 c 1,12,13
 65 765 65 765 100 771 c 0,14,15
 136 776 136 776 158 779 c 0,16,17
 209 779 209 779 226 779 c 1,18,19
 226 524 226 524 226 439 c 1,20,21
 303 439 303 439 329 439 c 1,22,23
 329 400 329 400 329 387 c 1,24,25
 121 387 121 387 52 387 c 1,0,1
26 237 m 1,26,27
 23 246 23 246 19 262 c 0,28,29
 16 279 16 279 13 288 c 1,30,31
 78 303 78 303 175 325 c 0,32,33
 273 348 273 348 367 370 c 0,34,35
 418 381 418 381 463 392 c 0,36,37
 509 403 509 403 544 411 c 1,38,39
 546 401 546 401 550 386 c 0,40,41
 555 370 555 370 557 360 c 1,42,43
 492 345 492 345 394 323 c 0,44,45
 297 300 297 300 203 278 c 0,46,47
 152 266 152 266 106 255 c 0,48,49
 61 245 61 245 26 237 c 1,26,27
261 -127 m 1,50,51
 261 -92 261 -92 261 -75 c 1,52,53
 283 -55 283 -55 319 -22 c 256,54,55
 355 11 355 11 377 31 c 0,56,57
 392 45 392 45 404 56 c 0,58,59
 415 67 415 67 423 75 c 0,60,61
 431 82 431 82 437 90 c 0,62,63
 443 99 443 99 449 105 c 0,64,65
 458 120 458 120 463 133 c 256,66,67
 468 146 468 146 468 159 c 0,68,69
 468 173 468 173 462 184 c 0,70,71
 456 196 456 196 443 205 c 0,72,73
 431 214 431 214 414 218 c 0,74,75
 398 222 398 222 378 222 c 0,76,77
 365 222 365 222 352 220 c 0,78,79
 338 219 338 219 325 214 c 0,80,81
 310 209 310 209 295 203 c 256,82,83
 280 197 280 197 264 188 c 1,84,85
 264 227 264 227 264 247 c 1,86,87
 281 254 281 254 297 259 c 256,88,89
 313 264 313 264 328 267 c 256,90,91
 343 270 343 270 358 272 c 0,92,93
 373 273 373 273 388 273 c 0,94,95
 423 273 423 273 451 266 c 0,96,97
 479 258 479 258 501 243 c 0,98,99
 511 235 511 235 520 225 c 0,100,101
 528 216 528 216 534 206 c 0,102,103
 539 196 539 196 541 185 c 0,104,105
 544 173 544 173 544 162 c 0,106,107
 544 153 544 153 542 146 c 0,108,109
 541 138 541 138 539 132 c 0,110,111
 536 126 536 126 533 119 c 0,112,113
 530 113 530 113 525 106 c 0,114,115
 514 90 514 90 494 69 c 0,116,117
 475 48 475 48 447 23 c 0,118,119
 421 -1 421 -1 392 -28 c 0,120,121
 362 -55 362 -55 342 -74 c 1,122,123
 496 -74 496 -74 547 -74 c 1,124,125
 547 -114 547 -114 547 -127 c 1,126,127
 333 -127 333 -127 261 -127 c 1,50,51
EndSplineSet
Validated: 1
EndChar

StartChar: threequarters
Encoding: 190 190 128
Width: 614
GlyphClass: 1
Flags: W
LayerCount: 2
Fore
SplineSet
301 412 m 256,0,1
 277 396 277 396 244 388 c 256,2,3
 211 380 211 380 168 380 c 0,4,5
 159 380 159 380 151 381 c 0,6,7
 143 381 143 381 136 382 c 256,8,9
 129 383 129 383 122 383 c 0,10,11
 114 383 114 383 108 385 c 0,12,13
 100 387 100 387 92 388 c 0,14,15
 85 390 85 390 78 391 c 0,16,17
 71 393 71 393 64 395 c 256,18,19
 57 397 57 397 49 399 c 1,20,21
 49 438 49 438 49 457 c 1,22,23
 58 454 58 454 66 451 c 0,24,25
 75 448 75 448 83 445 c 0,26,27
 91 443 91 443 98 441 c 0,28,29
 106 439 106 439 113 437 c 0,30,31
 126 434 126 434 139 433 c 0,32,33
 152 431 152 431 165 431 c 0,34,35
 189 431 189 431 209 436 c 0,36,37
 228 441 228 441 244 451 c 0,38,39
 250 455 250 455 255 460 c 256,40,41
 260 465 260 465 264 472 c 256,42,43
 268 479 268 479 270 487 c 256,44,45
 272 495 272 495 272 504 c 0,46,47
 272 520 272 520 265 532 c 0,48,49
 259 545 259 545 245 554 c 256,50,51
 231 563 231 563 210 568 c 0,52,53
 190 572 190 572 163 572 c 0,54,55
 138 572 138 572 130 572 c 1,56,57
 130 610 130 610 130 623 c 1,58,59
 155 623 155 623 167 623 c 0,60,61
 190 623 190 623 208 626 c 0,62,63
 225 630 225 630 238 638 c 0,64,65
 250 645 250 645 256 655 c 0,66,67
 262 666 262 666 262 680 c 0,68,69
 262 693 262 693 257 704 c 0,70,71
 251 714 251 714 239 722 c 0,72,73
 227 729 227 729 210 733 c 0,74,75
 194 736 194 736 172 736 c 0,76,77
 161 736 161 736 148 735 c 256,78,79
 135 734 135 734 121 731 c 0,80,81
 114 730 114 730 107 728 c 256,82,83
 100 726 100 726 93 724 c 256,84,85
 86 722 86 722 79 719 c 0,86,87
 71 717 71 717 63 715 c 1,88,89
 63 752 63 752 63 771 c 1,90,91
 72 773 72 773 81 775 c 256,92,93
 90 777 90 777 97 778 c 0,94,95
 105 780 105 780 113 781 c 256,96,97
 121 782 121 782 128 783 c 0,98,99
 143 786 143 786 156 787 c 0,100,101
 169 787 169 787 182 787 c 0,102,103
 218 787 218 787 246 781 c 0,104,105
 274 774 274 774 296 760 c 0,106,107
 317 746 317 746 327 728 c 0,108,109
 338 709 338 709 338 686 c 0,110,111
 338 669 338 669 333 655 c 0,112,113
 327 642 327 642 316 631 c 0,114,115
 306 620 306 620 289 612 c 0,116,117
 273 605 273 605 252 600 c 1,118,119
 276 595 276 595 294 586 c 0,120,121
 311 577 311 577 324 564 c 0,122,123
 336 552 336 552 342 536 c 0,124,125
 348 521 348 521 348 501 c 0,126,127
 348 472 348 472 337 450 c 0,128,129
 325 428 325 428 301 412 c 256,0,1
26 237 m 1,130,131
 23 246 23 246 19 262 c 0,132,133
 16 279 16 279 13 288 c 1,134,135
 78 303 78 303 175 325 c 0,136,137
 273 348 273 348 367 370 c 0,138,139
 418 381 418 381 463 392 c 0,140,141
 509 403 509 403 544 411 c 1,142,143
 546 401 546 401 550 386 c 0,144,145
 555 370 555 370 557 360 c 1,146,147
 492 345 492 345 394 323 c 0,148,149
 297 300 297 300 203 278 c 0,150,151
 152 266 152 266 106 255 c 0,152,153
 61 245 61 245 26 237 c 1,130,131
420 -127 m 1,154,155
 420 -62 420 -62 420 -40 c 1,156,157
 275 -40 275 -40 226 -40 c 1,158,159
 226 -2 226 -2 226 17 c 1,160,161
 248 48 248 48 282 93 c 0,162,163
 315 139 315 139 347 183 c 0,164,165
 364 206 364 206 380 227 c 0,166,167
 396 249 396 249 408 265 c 1,168,169
 468 265 468 265 488 265 c 1,170,171
 488 76 488 76 488 12 c 1,172,173
 532 12 532 12 547 12 c 1,174,175
 547 -27 547 -27 547 -40 c 1,176,177
 503 -40 503 -40 488 -40 c 1,178,179
 488 -105 488 -105 488 -127 c 1,180,181
 437 -127 437 -127 420 -127 c 1,154,155
283 12 m 1,182,183
 386 12 386 12 420 12 c 1,184,185
 420 142 420 142 420 207 c 1,186,187
 411 194 411 194 399 178 c 0,188,189
 387 161 387 161 374 142 c 0,190,191
 350 108 350 108 325 72 c 0,192,193
 299 36 299 36 283 12 c 1,182,183
EndSplineSet
Validated: 1
EndChar

StartChar: questiondown
Encoding: 191 191 129
Width: 614
GlyphClass: 1
Flags: W
LayerCount: 2
Fore
SplineSet
380 608 m 256,0,1
 369 598 369 598 356 594 c 0,2,3
 343 589 343 589 328 589 c 0,4,5
 312 589 312 589 300 594 c 0,6,7
 287 598 287 598 276 608 c 0,8,9
 266 618 266 618 260 631 c 0,10,11
 255 644 255 644 255 660 c 0,12,13
 255 677 255 677 260 689 c 0,14,15
 265 702 265 702 275 712 c 0,16,17
 280 716 280 716 285 719 c 256,18,19
 290 722 290 722 297 725 c 256,20,21
 304 728 304 728 312 730 c 0,22,23
 319 731 319 731 328 731 c 0,24,25
 343 731 343 731 356 726 c 0,26,27
 369 722 369 722 380 712 c 256,28,29
 391 702 391 702 396 689 c 0,30,31
 400 677 400 677 400 660 c 0,32,33
 400 644 400 644 396 631 c 0,34,35
 391 618 391 618 380 608 c 256,0,1
351 -9 m 0,36,37
 339 -11 339 -11 326 -12 c 0,38,39
 313 -12 313 -12 301 -12 c 0,40,41
 254 -12 254 -12 217 -1 c 0,42,43
 179 9 179 9 152 32 c 0,44,45
 124 55 124 55 110 85 c 256,46,47
 96 115 96 115 96 153 c 0,48,49
 96 166 96 166 98 177 c 256,50,51
 100 188 100 188 103 199 c 0,52,53
 106 209 106 209 113 220 c 256,54,55
 120 231 120 231 128 242 c 0,56,57
 136 252 136 252 149 266 c 0,58,59
 161 279 161 279 177 294 c 0,60,61
 188 304 188 304 193 309 c 0,62,63
 199 314 199 314 221 334 c 0,64,65
 229 341 229 341 235 348 c 0,66,67
 241 354 241 354 247 360 c 0,68,69
 252 367 252 367 257 372 c 0,70,71
 261 378 261 378 264 384 c 0,72,73
 269 393 269 393 271 406 c 0,74,75
 273 418 273 418 273 433 c 0,76,77
 273 435 273 435 273 435 c 2,78,79
 273 438 273 438 274 440 c 0,80,81
 274 443 274 443 274 445 c 0,82,83
 274 453 274 453 274 456 c 0,84,85
 274 499 274 499 274 513 c 1,86,87
 346 513 346 513 370 513 c 1,88,89
 370 465 370 465 370 441 c 0,90,91
 370 418 370 418 366 398 c 0,92,93
 362 379 362 379 354 362 c 0,94,95
 347 346 347 346 332 329 c 0,96,97
 318 311 318 311 297 292 c 0,98,99
 285 281 285 281 280 276 c 0,100,101
 274 271 274 271 252 250 c 0,102,103
 247 245 247 245 241 240 c 0,104,105
 236 234 236 234 229 227 c 0,106,107
 223 220 223 220 218 214 c 256,108,109
 213 208 213 208 209 202 c 0,110,111
 206 196 206 196 204 190 c 0,112,113
 201 184 201 184 200 178 c 0,114,115
 198 172 198 172 198 166 c 256,116,117
 198 160 198 160 198 156 c 0,118,119
 198 146 198 146 200 136 c 0,120,121
 202 127 202 127 207 119 c 0,122,123
 211 110 211 110 217 103 c 0,124,125
 223 95 223 95 230 90 c 0,126,127
 247 77 247 77 268 71 c 0,128,129
 290 65 290 65 316 65 c 0,130,131
 327 65 327 65 338 65 c 0,132,133
 348 66 348 66 358 69 c 0,134,135
 368 71 368 71 379 74 c 256,136,137
 390 77 390 77 401 81 c 0,138,139
 424 89 424 89 447 101 c 256,140,141
 470 113 470 113 495 129 c 1,142,143
 495 70 495 70 495 40 c 1,144,145
 482 33 482 33 470 27 c 256,146,147
 458 21 458 21 445 16 c 0,148,149
 433 12 433 12 422 7 c 0,150,151
 411 3 411 3 400 0 c 0,152,153
 388 -3 388 -3 376 -5 c 0,154,155
 364 -8 364 -8 351 -9 c 0,36,37
EndSplineSet
Validated: 1
EndChar

StartChar: Agrave
Encoding: 192 192 130
Width: 614
GlyphClass: 1
Flags: W
LayerCount: 2
Fore
SplineSet
293 744 m 1,0,1
 271 767 271 767 236 807 c 0,2,3
 201 846 201 846 179 869 c 1,4,5
 241 869 241 869 271 869 c 1,6,7
 290 846 290 846 321 807 c 0,8,9
 351 767 351 767 370 744 c 1,10,11
 312 744 312 744 293 744 c 1,0,1
18 0 m 1,12,13
 46 85 46 85 88 214 c 0,14,15
 130 344 130 344 171 468 c 0,16,17
 192 535 192 535 212 595 c 256,18,19
 232 655 232 655 247 701 c 1,20,21
 329 701 329 701 370 701 c 1,22,23
 398 616 398 616 440 487 c 0,24,25
 481 358 481 358 522 233 c 0,26,27
 544 166 544 166 563 106 c 0,28,29
 583 46 583 46 598 0 c 1,30,31
 528 0 528 0 494 0 c 1,32,33
 484 35 484 35 466 92 c 256,34,35
 448 149 448 149 438 183 c 1,36,37
 264 183 264 183 177 183 c 1,38,39
 167 149 167 149 150 92 c 256,40,41
 133 35 133 35 123 0 c 1,42,43
 45 0 45 0 18 0 c 1,12,13
202 259 m 1,44,45
 344 259 344 259 415 259 c 1,46,47
 402 303 402 303 382 369 c 0,48,49
 363 435 363 435 344 499 c 0,50,51
 333 533 333 533 324 564 c 256,52,53
 315 595 315 595 308 618 c 1,54,55
 295 575 295 575 276 508 c 0,56,57
 256 442 256 442 237 379 c 0,58,59
 227 344 227 344 218 314 c 0,60,61
 209 283 209 283 202 259 c 1,44,45
EndSplineSet
Validated: 1
EndChar

StartChar: Aacute
Encoding: 193 193 131
Width: 614
GlyphClass: 1
Flags: W
LayerCount: 2
Fore
SplineSet
247 749 m 1,0,1
 265 772 265 772 296 810 c 0,2,3
 327 849 327 849 345 872 c 1,4,5
 407 872 407 872 438 872 c 1,6,7
 417 849 417 849 381 810 c 0,8,9
 345 772 345 772 324 749 c 1,10,11
 266 749 266 749 247 749 c 1,0,1
18 0 m 1,12,13
 46 85 46 85 88 214 c 0,14,15
 130 344 130 344 171 468 c 0,16,17
 192 535 192 535 212 595 c 256,18,19
 232 655 232 655 247 701 c 1,20,21
 329 701 329 701 370 701 c 1,22,23
 398 616 398 616 440 487 c 0,24,25
 481 358 481 358 522 233 c 0,26,27
 544 166 544 166 563 106 c 0,28,29
 583 46 583 46 598 0 c 1,30,31
 528 0 528 0 494 0 c 1,32,33
 484 35 484 35 466 92 c 256,34,35
 448 149 448 149 438 183 c 1,36,37
 264 183 264 183 177 183 c 1,38,39
 167 149 167 149 150 92 c 256,40,41
 133 35 133 35 123 0 c 1,42,43
 45 0 45 0 18 0 c 1,12,13
202 259 m 1,44,45
 344 259 344 259 415 259 c 1,46,47
 402 303 402 303 382 369 c 0,48,49
 363 435 363 435 344 499 c 0,50,51
 333 533 333 533 324 564 c 256,52,53
 315 595 315 595 308 618 c 1,54,55
 295 575 295 575 276 508 c 0,56,57
 256 442 256 442 237 379 c 0,58,59
 227 344 227 344 218 314 c 0,60,61
 209 283 209 283 202 259 c 1,44,45
EndSplineSet
Validated: 1
EndChar

StartChar: Acircumflex
Encoding: 194 194 132
Width: 614
GlyphClass: 1
Flags: W
LayerCount: 2
Fore
SplineSet
156 745 m 1,0,1
 176 769 176 769 208 808 c 0,2,3
 241 847 241 847 261 870 c 1,4,5
 324 870 324 870 355 870 c 1,6,7
 375 847 375 847 408 808 c 256,8,9
 441 769 441 769 461 745 c 1,10,11
 414 745 414 745 391 745 c 1,12,13
 376 761 376 761 350 787 c 0,14,15
 324 814 324 814 308 829 c 1,16,17
 293 814 293 814 267 787 c 0,18,19
 241 761 241 761 225 745 c 1,20,21
 173 745 173 745 156 745 c 1,0,1
18 0 m 1,22,23
 46 85 46 85 88 214 c 0,24,25
 130 344 130 344 171 468 c 0,26,27
 192 535 192 535 212 595 c 256,28,29
 232 655 232 655 247 701 c 1,30,31
 329 701 329 701 370 701 c 1,32,33
 398 616 398 616 440 487 c 0,34,35
 481 358 481 358 522 233 c 0,36,37
 544 166 544 166 563 106 c 0,38,39
 583 46 583 46 598 0 c 1,40,41
 528 0 528 0 494 0 c 1,42,43
 484 35 484 35 466 92 c 256,44,45
 448 149 448 149 438 183 c 1,46,47
 264 183 264 183 177 183 c 1,48,49
 167 149 167 149 150 92 c 256,50,51
 133 35 133 35 123 0 c 1,52,53
 45 0 45 0 18 0 c 1,22,23
202 259 m 1,54,55
 344 259 344 259 415 259 c 1,56,57
 402 303 402 303 382 369 c 0,58,59
 363 435 363 435 344 499 c 0,60,61
 333 533 333 533 324 564 c 256,62,63
 315 595 315 595 308 618 c 1,64,65
 295 575 295 575 276 508 c 0,66,67
 256 442 256 442 237 379 c 0,68,69
 227 344 227 344 218 314 c 0,70,71
 209 283 209 283 202 259 c 1,54,55
EndSplineSet
Validated: 1
EndChar

StartChar: Atilde
Encoding: 195 195 133
Width: 614
GlyphClass: 1
Flags: W
LayerCount: 2
Fore
SplineSet
206 745 m 1,0,1
 164 745 164 745 143 745 c 1,2,3
 143 757 143 757 145 768 c 0,4,5
 146 778 146 778 150 787 c 0,6,7
 153 797 153 797 158 805 c 0,8,9
 163 814 163 814 170 821 c 0,10,11
 183 835 183 835 200 842 c 0,12,13
 216 849 216 849 238 849 c 0,14,15
 244 849 244 849 253 848 c 0,16,17
 262 846 262 846 271 845 c 0,18,19
 278 843 278 843 288 839 c 0,20,21
 297 835 297 835 310 828 c 0,22,23
 317 825 317 825 321 823 c 0,24,25
 324 821 324 821 339 814 c 0,26,27
 344 811 344 811 349 809 c 256,28,29
 354 807 354 807 359 806 c 0,30,31
 363 804 363 804 367 804 c 0,32,33
 371 803 371 803 375 803 c 0,34,35
 382 803 382 803 389 806 c 0,36,37
 395 809 395 809 400 815 c 0,38,39
 406 821 406 821 408 829 c 0,40,41
 411 837 411 837 411 846 c 0,42,43
 411 848 411 848 411 849 c 1,44,45
 452 849 452 849 473 849 c 1,46,47
 472 825 472 825 466 807 c 0,48,49
 460 788 460 788 446 774 c 0,50,51
 433 760 433 760 417 753 c 0,52,53
 400 745 400 745 379 745 c 0,54,55
 372 745 372 745 364 747 c 0,56,57
 356 748 356 748 347 750 c 0,58,59
 343 750 343 750 339 752 c 0,60,61
 335 753 335 753 331 755 c 0,62,63
 326 756 326 756 320 759 c 256,64,65
 314 762 314 762 306 766 c 0,66,67
 299 770 299 770 296 772 c 0,68,69
 292 774 292 774 278 781 c 0,70,71
 274 783 274 783 271 785 c 0,72,73
 269 787 269 787 266 787 c 0,74,75
 260 790 260 790 257 791 c 0,76,77
 253 792 253 792 250 793 c 256,78,79
 247 794 247 794 243 794 c 0,80,81
 234 794 234 794 227 791 c 0,82,83
 221 787 221 787 216 781 c 256,84,85
 211 775 211 775 208 767 c 0,86,87
 206 759 206 759 206 749 c 0,88,89
 206 746 206 746 206 745 c 1,0,1
18 0 m 1,90,91
 46 85 46 85 88 214 c 0,92,93
 130 344 130 344 171 468 c 0,94,95
 192 535 192 535 212 595 c 256,96,97
 232 655 232 655 247 701 c 1,98,99
 329 701 329 701 370 701 c 1,100,101
 398 616 398 616 440 487 c 0,102,103
 481 358 481 358 522 233 c 0,104,105
 544 166 544 166 563 106 c 0,106,107
 583 46 583 46 598 0 c 1,108,109
 528 0 528 0 494 0 c 1,110,111
 484 35 484 35 466 92 c 256,112,113
 448 149 448 149 438 183 c 1,114,115
 264 183 264 183 177 183 c 1,116,117
 167 149 167 149 150 92 c 256,118,119
 133 35 133 35 123 0 c 1,120,121
 45 0 45 0 18 0 c 1,90,91
202 259 m 1,122,123
 344 259 344 259 415 259 c 1,124,125
 402 303 402 303 382 369 c 0,126,127
 363 435 363 435 344 499 c 0,128,129
 333 533 333 533 324 564 c 256,130,131
 315 595 315 595 308 618 c 1,132,133
 295 575 295 575 276 508 c 0,134,135
 256 442 256 442 237 379 c 0,136,137
 227 344 227 344 218 314 c 0,138,139
 209 283 209 283 202 259 c 1,122,123
EndSplineSet
Validated: 1
EndChar

StartChar: Adieresis
Encoding: 196 196 134
Width: 614
GlyphClass: 1
Flags: W
LayerCount: 2
Fore
SplineSet
246 774 m 0,0,1
 198 774 198 774 174 774 c 0,2,3
 166 774 166 774 163 778 c 256,4,5
 160 782 160 782 160 788 c 0,6,7
 160 833 160 833 160 855 c 0,8,9
 160 862 160 862 163 866 c 0,10,11
 166 869 166 869 174 869 c 0,12,13
 222 869 222 869 246 869 c 0,14,15
 253 869 253 869 257 866 c 0,16,17
 261 862 261 862 261 855 c 0,18,19
 261 811 261 811 261 788 c 0,20,21
 261 782 261 782 257 778 c 256,22,23
 253 774 253 774 246 774 c 0,0,1
441 774 m 0,24,25
 394 774 394 774 371 774 c 0,26,27
 363 774 363 774 359 778 c 256,28,29
 355 782 355 782 355 788 c 0,30,31
 355 833 355 833 355 855 c 0,32,33
 355 862 355 862 359 866 c 0,34,35
 363 869 363 869 371 869 c 0,36,37
 418 869 418 869 441 869 c 0,38,39
 449 869 449 869 453 866 c 0,40,41
 457 862 457 862 457 855 c 0,42,43
 457 811 457 811 457 788 c 0,44,45
 457 782 457 782 453 778 c 256,46,47
 449 774 449 774 441 774 c 0,24,25
18 0 m 1,48,49
 46 85 46 85 88 214 c 0,50,51
 130 344 130 344 171 468 c 0,52,53
 192 535 192 535 212 595 c 256,54,55
 232 655 232 655 247 701 c 1,56,57
 329 701 329 701 370 701 c 1,58,59
 398 616 398 616 440 487 c 0,60,61
 481 358 481 358 522 233 c 0,62,63
 544 166 544 166 563 106 c 0,64,65
 583 46 583 46 598 0 c 1,66,67
 528 0 528 0 494 0 c 1,68,69
 484 35 484 35 466 92 c 256,70,71
 448 149 448 149 438 183 c 1,72,73
 264 183 264 183 177 183 c 1,74,75
 167 149 167 149 150 92 c 256,76,77
 133 35 133 35 123 0 c 1,78,79
 45 0 45 0 18 0 c 1,48,49
202 259 m 1,80,81
 344 259 344 259 415 259 c 1,82,83
 402 303 402 303 382 369 c 0,84,85
 363 435 363 435 344 499 c 0,86,87
 333 533 333 533 324 564 c 256,88,89
 315 595 315 595 308 618 c 1,90,91
 295 575 295 575 276 508 c 0,92,93
 256 442 256 442 237 379 c 0,94,95
 227 344 227 344 218 314 c 0,96,97
 209 283 209 283 202 259 c 1,80,81
EndSplineSet
Validated: 1
EndChar

StartChar: Aring
Encoding: 197 197 135
Width: 614
GlyphClass: 1
Flags: W
LayerCount: 2
Fore
SplineSet
18 0 m 1,0,1
 32 43 32 43 51 100 c 0,2,3
 69 156 69 156 90 219 c 0,4,5
 128 335 128 335 167 456 c 256,6,7
 206 577 206 577 232 657 c 1,8,9
 218 665 218 665 206 676 c 0,10,11
 195 688 195 688 187 701 c 0,12,13
 179 715 179 715 175 731 c 0,14,15
 171 746 171 746 171 764 c 256,16,17
 171 782 171 782 176 799 c 0,18,19
 180 816 180 816 189 830 c 0,20,21
 199 845 199 845 211 857 c 0,22,23
 223 868 223 868 239 877 c 0,24,25
 254 885 254 885 271 889 c 0,26,27
 289 894 289 894 308 894 c 0,28,29
 323 894 323 894 337 892 c 0,30,31
 350 889 350 889 362 884 c 0,32,33
 375 878 375 878 386 871 c 0,34,35
 396 865 396 865 406 856 c 0,36,37
 414 848 414 848 421 838 c 0,38,39
 429 828 429 828 434 816 c 0,40,41
 440 805 440 805 442 792 c 0,42,43
 445 778 445 778 445 764 c 0,44,45
 445 747 445 747 441 732 c 0,46,47
 437 716 437 716 429 702 c 0,48,49
 421 689 421 689 410 678 c 256,50,51
 399 667 399 667 384 657 c 1,52,53
 419 551 419 551 458 432 c 0,54,55
 496 314 496 314 531 206 c 0,56,57
 550 148 550 148 567 96 c 0,58,59
 584 43 584 43 598 0 c 1,60,61
 528 0 528 0 494 0 c 1,62,63
 484 35 484 35 466 92 c 256,64,65
 448 149 448 149 438 183 c 1,66,67
 264 183 264 183 177 183 c 1,68,69
 167 149 167 149 150 92 c 256,70,71
 133 35 133 35 123 0 c 1,72,73
 45 0 45 0 18 0 c 1,0,1
255 714 m 256,74,75
 266 704 266 704 279 698 c 0,76,77
 292 693 292 693 308 693 c 256,78,79
 324 693 324 693 338 698 c 0,80,81
 352 704 352 704 362 714 c 0,82,83
 373 724 373 724 379 737 c 0,84,85
 384 749 384 749 384 764 c 256,86,87
 384 779 384 779 379 792 c 0,88,89
 373 805 373 805 362 815 c 0,90,91
 357 820 357 820 350 824 c 256,92,93
 343 828 343 828 336 830 c 0,94,95
 329 833 329 833 322 834 c 0,96,97
 314 836 314 836 307 836 c 0,98,99
 291 836 291 836 278 830 c 0,100,101
 266 825 266 825 255 815 c 256,102,103
 244 805 244 805 238 792 c 256,104,105
 232 779 232 779 232 764 c 256,106,107
 232 749 232 749 238 737 c 0,108,109
 244 724 244 724 255 714 c 256,74,75
202 259 m 1,110,111
 344 259 344 259 415 259 c 1,112,113
 408 282 408 282 399 313 c 0,114,115
 389 344 389 344 379 378 c 0,116,117
 360 441 360 441 341 507 c 0,118,119
 321 573 321 573 308 616 c 1,120,121
 295 573 295 573 276 507 c 0,122,123
 256 441 256 441 237 378 c 0,124,125
 227 344 227 344 218 313 c 256,126,127
 209 282 209 282 202 259 c 1,110,111
EndSplineSet
Validated: 1
EndChar

StartChar: AE
Encoding: 198 198 136
Width: 614
GlyphClass: 1
Flags: W
LayerCount: 2
Fore
SplineSet
0 0 m 1,0,1
 25 85 25 85 63 214 c 0,2,3
 100 343 100 343 137 468 c 0,4,5
 156 535 156 535 174 595 c 0,6,7
 191 655 191 655 205 701 c 1,8,9
 487 701 487 701 581 701 c 1,10,11
 581 642 581 642 581 622 c 1,12,13
 454 622 454 622 412 622 c 1,14,15
 412 466 412 466 412 414 c 1,16,17
 527 414 527 414 565 414 c 1,18,19
 565 354 565 354 565 334 c 1,20,21
 450 334 450 334 412 334 c 1,22,23
 412 143 412 143 412 80 c 1,24,25
 545 80 545 80 590 80 c 1,26,27
 590 20 590 20 590 0 c 1,28,29
 386 0 386 0 318 0 c 1,30,31
 318 135 318 135 318 180 c 1,32,33
 201 180 201 180 142 180 c 1,34,35
 133 146 133 146 117 90 c 256,36,37
 101 34 101 34 92 0 c 1,38,39
 23 0 23 0 0 0 c 1,0,1
164 259 m 1,40,41
 280 259 280 259 318 259 c 1,42,43
 318 531 318 531 318 622 c 1,44,45
 283 622 283 622 265 622 c 1,46,47
 253 577 253 577 234 510 c 0,48,49
 215 444 215 444 198 380 c 0,50,51
 188 345 188 345 179 314 c 0,52,53
 171 283 171 283 164 259 c 1,40,41
EndSplineSet
Validated: 1
EndChar

StartChar: Ccedilla
Encoding: 199 199 137
Width: 614
GlyphClass: 1
Flags: W
LayerCount: 2
Fore
SplineSet
457 623 m 0,0,1
 435 630 435 630 414 634 c 0,2,3
 392 637 392 637 371 637 c 0,4,5
 322 637 322 637 286 620 c 0,6,7
 249 602 249 602 224 566 c 0,8,9
 200 530 200 530 187 476 c 0,10,11
 175 422 175 422 175 350 c 256,12,13
 175 278 175 278 187 225 c 0,14,15
 200 171 200 171 224 135 c 0,16,17
 236 118 236 118 250 105 c 0,18,19
 265 91 265 91 284 82 c 0,20,21
 302 73 302 73 324 68 c 0,22,23
 345 63 345 63 371 63 c 0,24,25
 392 63 392 63 414 67 c 256,26,27
 436 71 436 71 458 79 c 0,28,29
 478 87 478 87 498 97 c 256,30,31
 518 107 518 107 537 122 c 1,32,33
 537 57 537 57 537 25 c 1,34,35
 517 15 517 15 497 8 c 0,36,37
 478 1 478 1 458 -4 c 0,38,39
 452 -6 452 -6 447 -7 c 0,40,41
 441 -7 441 -7 435 -8 c 0,42,43
 419 -10 419 -10 411 -11 c 1,44,45
 421 -24 421 -24 429 -34 c 0,46,47
 437 -45 437 -45 441 -54 c 0,48,49
 444 -60 444 -60 447 -65 c 0,50,51
 449 -71 449 -71 451 -77 c 0,52,53
 452 -83 452 -83 453 -90 c 0,54,55
 455 -97 455 -97 455 -103 c 0,56,57
 455 -123 455 -123 447 -139 c 0,58,59
 440 -154 440 -154 425 -165 c 0,60,61
 418 -170 418 -170 408 -174 c 0,62,63
 399 -177 399 -177 388 -180 c 256,64,65
 377 -183 377 -183 364 -184 c 0,66,67
 350 -185 350 -185 335 -185 c 0,68,69
 324 -185 324 -185 313 -185 c 0,70,71
 303 -185 303 -185 292 -183 c 0,72,73
 280 -182 280 -182 269 -179 c 0,74,75
 259 -177 259 -177 248 -174 c 1,76,77
 248 -133 248 -133 248 -113 c 1,78,79
 265 -120 265 -120 283 -124 c 0,80,81
 302 -128 302 -128 323 -128 c 0,82,83
 353 -128 353 -128 369 -117 c 256,84,85
 385 -106 385 -106 385 -85 c 0,86,87
 385 -77 385 -77 382 -68 c 256,88,89
 379 -59 379 -59 374 -49 c 0,90,91
 371 -45 371 -45 370 -41 c 0,92,93
 368 -37 368 -37 365 -33 c 0,94,95
 361 -28 361 -28 358 -23 c 0,96,97
 354 -19 354 -19 350 -13 c 1,98,99
 286 -9 286 -9 235 14 c 0,100,101
 185 38 185 38 148 82 c 0,102,103
 109 130 109 130 89 197 c 0,104,105
 70 263 70 263 70 349 c 0,106,107
 70 391 70 391 74 430 c 0,108,109
 79 469 79 469 89 503 c 256,110,111
 99 537 99 537 114 565 c 0,112,113
 130 594 130 594 150 618 c 0,114,115
 189 666 189 666 245 690 c 0,116,117
 300 715 300 715 371 715 c 0,118,119
 394 715 394 715 416 712 c 256,120,121
 438 709 438 709 458 705 c 0,122,123
 478 700 478 700 497 693 c 0,124,125
 517 686 517 686 537 676 c 1,126,127
 537 611 537 611 537 579 c 1,128,129
 518 593 518 593 498 604 c 256,130,131
 478 615 478 615 457 623 c 0,0,1
EndSplineSet
Validated: 1
EndChar

StartChar: Egrave
Encoding: 200 200 138
Width: 614
GlyphClass: 1
Flags: W
LayerCount: 2
Fore
SplineSet
311 749 m 1,0,1
 290 772 290 772 254 810 c 0,2,3
 219 849 219 849 198 872 c 1,4,5
 259 872 259 872 290 872 c 1,6,7
 308 849 308 849 339 810 c 0,8,9
 370 772 370 772 388 749 c 1,10,11
 330 749 330 749 311 749 c 1,0,1
98 0 m 1,12,13
 98 526 98 526 98 701 c 1,14,15
 431 701 431 701 542 701 c 1,16,17
 542 642 542 642 542 622 c 1,18,19
 285 622 285 622 200 622 c 1,20,21
 200 466 200 466 200 414 c 1,22,23
 445 414 445 414 526 414 c 1,24,25
 526 354 526 354 526 334 c 1,26,27
 281 334 281 334 200 334 c 1,28,29
 200 143 200 143 200 80 c 1,30,31
 463 80 463 80 551 80 c 1,32,33
 551 20 551 20 551 0 c 1,34,35
 211 0 211 0 98 0 c 1,12,13
EndSplineSet
Validated: 1
EndChar

StartChar: Eacute
Encoding: 201 201 139
Width: 614
GlyphClass: 1
Flags: W
LayerCount: 2
Fore
SplineSet
247 749 m 1,0,1
 265 772 265 772 296 810 c 0,2,3
 327 849 327 849 345 872 c 1,4,5
 407 872 407 872 438 872 c 1,6,7
 417 849 417 849 381 810 c 0,8,9
 345 772 345 772 324 749 c 1,10,11
 266 749 266 749 247 749 c 1,0,1
98 0 m 1,12,13
 98 526 98 526 98 701 c 1,14,15
 431 701 431 701 542 701 c 1,16,17
 542 642 542 642 542 622 c 1,18,19
 285 622 285 622 200 622 c 1,20,21
 200 466 200 466 200 414 c 1,22,23
 445 414 445 414 526 414 c 1,24,25
 526 354 526 354 526 334 c 1,26,27
 281 334 281 334 200 334 c 1,28,29
 200 143 200 143 200 80 c 1,30,31
 463 80 463 80 551 80 c 1,32,33
 551 20 551 20 551 0 c 1,34,35
 211 0 211 0 98 0 c 1,12,13
EndSplineSet
Validated: 1
EndChar

StartChar: Ecircumflex
Encoding: 202 202 140
Width: 614
GlyphClass: 1
Flags: W
LayerCount: 2
Fore
SplineSet
165 745 m 1,0,1
 185 769 185 769 218 808 c 0,2,3
 250 847 250 847 270 870 c 1,4,5
 333 870 333 870 365 870 c 1,6,7
 385 847 385 847 417 808 c 0,8,9
 450 769 450 769 470 745 c 1,10,11
 424 745 424 745 400 745 c 1,12,13
 385 761 385 761 359 787 c 0,14,15
 333 814 333 814 317 829 c 1,16,17
 302 814 302 814 276 787 c 0,18,19
 250 761 250 761 234 745 c 1,20,21
 182 745 182 745 165 745 c 1,0,1
98 0 m 1,22,23
 98 526 98 526 98 701 c 1,24,25
 431 701 431 701 542 701 c 1,26,27
 542 642 542 642 542 622 c 1,28,29
 285 622 285 622 200 622 c 1,30,31
 200 466 200 466 200 414 c 1,32,33
 445 414 445 414 526 414 c 1,34,35
 526 354 526 354 526 334 c 1,36,37
 281 334 281 334 200 334 c 1,38,39
 200 143 200 143 200 80 c 1,40,41
 463 80 463 80 551 80 c 1,42,43
 551 20 551 20 551 0 c 1,44,45
 211 0 211 0 98 0 c 1,22,23
EndSplineSet
Validated: 1
EndChar

StartChar: Edieresis
Encoding: 203 203 141
Width: 614
GlyphClass: 1
Flags: W
LayerCount: 2
Fore
SplineSet
255 774 m 0,0,1
 207 774 207 774 183 774 c 0,2,3
 176 774 176 774 172 778 c 0,4,5
 169 782 169 782 169 788 c 0,6,7
 169 833 169 833 169 855 c 0,8,9
 169 862 169 862 172 866 c 0,10,11
 176 869 176 869 183 869 c 0,12,13
 231 869 231 869 255 869 c 0,14,15
 263 869 263 869 266 866 c 0,16,17
 270 862 270 862 270 855 c 0,18,19
 270 811 270 811 270 788 c 0,20,21
 270 782 270 782 266 778 c 0,22,23
 263 774 263 774 255 774 c 0,0,1
451 774 m 0,24,25
 403 774 403 774 380 774 c 0,26,27
 372 774 372 774 368 778 c 0,28,29
 365 782 365 782 365 788 c 0,30,31
 365 833 365 833 365 855 c 0,32,33
 365 862 365 862 368 866 c 0,34,35
 372 869 372 869 380 869 c 0,36,37
 427 869 427 869 451 869 c 0,38,39
 458 869 458 869 462 866 c 0,40,41
 466 862 466 862 466 855 c 0,42,43
 466 811 466 811 466 788 c 0,44,45
 466 782 466 782 462 778 c 256,46,47
 458 774 458 774 451 774 c 0,24,25
98 0 m 1,48,49
 98 526 98 526 98 701 c 1,50,51
 431 701 431 701 542 701 c 1,52,53
 542 642 542 642 542 622 c 1,54,55
 285 622 285 622 200 622 c 1,56,57
 200 466 200 466 200 414 c 1,58,59
 445 414 445 414 526 414 c 1,60,61
 526 354 526 354 526 334 c 1,62,63
 281 334 281 334 200 334 c 1,64,65
 200 143 200 143 200 80 c 1,66,67
 463 80 463 80 551 80 c 1,68,69
 551 20 551 20 551 0 c 1,70,71
 211 0 211 0 98 0 c 1,48,49
EndSplineSet
Validated: 1
EndChar

StartChar: Igrave
Encoding: 204 204 142
Width: 614
GlyphClass: 1
Flags: W
LayerCount: 2
Fore
SplineSet
299 749 m 1,0,1
 278 772 278 772 243 810 c 0,2,3
 208 849 208 849 186 872 c 1,4,5
 247 872 247 872 278 872 c 1,6,7
 296 849 296 849 327 810 c 0,8,9
 358 772 358 772 377 749 c 1,10,11
 318 749 318 749 299 749 c 1,0,1
100 0 m 1,12,13
 100 60 100 60 100 80 c 1,14,15
 218 80 218 80 257 80 c 1,16,17
 257 486 257 486 257 622 c 1,18,19
 140 622 140 622 100 622 c 1,20,21
 100 681 100 681 100 701 c 1,22,23
 411 701 411 701 515 701 c 1,24,25
 515 642 515 642 515 622 c 1,26,27
 398 622 398 622 358 622 c 1,28,29
 358 215 358 215 358 80 c 1,30,31
 476 80 476 80 515 80 c 1,32,33
 515 20 515 20 515 0 c 1,34,35
 204 0 204 0 100 0 c 1,12,13
EndSplineSet
Validated: 1
EndChar

StartChar: Iacute
Encoding: 205 205 143
Width: 614
GlyphClass: 1
Flags: W
LayerCount: 2
Fore
SplineSet
247 749 m 1,0,1
 265 772 265 772 296 810 c 0,2,3
 327 849 327 849 345 872 c 1,4,5
 407 872 407 872 438 872 c 1,6,7
 417 849 417 849 381 810 c 0,8,9
 345 772 345 772 324 749 c 1,10,11
 266 749 266 749 247 749 c 1,0,1
100 0 m 1,12,13
 100 60 100 60 100 80 c 1,14,15
 218 80 218 80 257 80 c 1,16,17
 257 486 257 486 257 622 c 1,18,19
 140 622 140 622 100 622 c 1,20,21
 100 681 100 681 100 701 c 1,22,23
 411 701 411 701 515 701 c 1,24,25
 515 642 515 642 515 622 c 1,26,27
 398 622 398 622 358 622 c 1,28,29
 358 215 358 215 358 80 c 1,30,31
 476 80 476 80 515 80 c 1,32,33
 515 20 515 20 515 0 c 1,34,35
 204 0 204 0 100 0 c 1,12,13
EndSplineSet
Validated: 1
EndChar

StartChar: Icircumflex
Encoding: 206 206 144
Width: 614
GlyphClass: 1
Flags: W
LayerCount: 2
Fore
SplineSet
155 745 m 1,0,1
 175 769 175 769 207 808 c 0,2,3
 240 847 240 847 260 870 c 1,4,5
 324 870 324 870 355 870 c 1,6,7
 375 847 375 847 408 808 c 256,8,9
 441 769 441 769 461 745 c 1,10,11
 414 745 414 745 390 745 c 1,12,13
 375 761 375 761 349 787 c 0,14,15
 323 814 323 814 307 829 c 1,16,17
 292 814 292 814 266 787 c 0,18,19
 241 761 241 761 225 745 c 1,20,21
 172 745 172 745 155 745 c 1,0,1
100 0 m 1,22,23
 100 60 100 60 100 80 c 1,24,25
 218 80 218 80 257 80 c 1,26,27
 257 486 257 486 257 622 c 1,28,29
 140 622 140 622 100 622 c 1,30,31
 100 681 100 681 100 701 c 1,32,33
 411 701 411 701 515 701 c 1,34,35
 515 642 515 642 515 622 c 1,36,37
 398 622 398 622 358 622 c 1,38,39
 358 215 358 215 358 80 c 1,40,41
 476 80 476 80 515 80 c 1,42,43
 515 20 515 20 515 0 c 1,44,45
 204 0 204 0 100 0 c 1,22,23
EndSplineSet
Validated: 1
EndChar

StartChar: Idieresis
Encoding: 207 207 145
Width: 614
GlyphClass: 1
Flags: W
LayerCount: 2
Fore
SplineSet
246 774 m 0,0,1
 198 774 198 774 174 774 c 0,2,3
 166 774 166 774 163 778 c 256,4,5
 160 782 160 782 160 788 c 0,6,7
 160 833 160 833 160 855 c 0,8,9
 160 862 160 862 163 866 c 0,10,11
 166 869 166 869 174 869 c 0,12,13
 222 869 222 869 246 869 c 0,14,15
 253 869 253 869 257 866 c 0,16,17
 261 862 261 862 261 855 c 0,18,19
 261 811 261 811 261 788 c 0,20,21
 261 782 261 782 257 778 c 256,22,23
 253 774 253 774 246 774 c 0,0,1
441 774 m 0,24,25
 394 774 394 774 371 774 c 0,26,27
 363 774 363 774 359 778 c 256,28,29
 355 782 355 782 355 788 c 0,30,31
 355 833 355 833 355 855 c 0,32,33
 355 862 355 862 359 866 c 0,34,35
 363 869 363 869 371 869 c 0,36,37
 418 869 418 869 441 869 c 0,38,39
 449 869 449 869 453 866 c 0,40,41
 457 862 457 862 457 855 c 0,42,43
 457 811 457 811 457 788 c 0,44,45
 457 782 457 782 453 778 c 256,46,47
 449 774 449 774 441 774 c 0,24,25
100 0 m 1,48,49
 100 60 100 60 100 80 c 1,50,51
 218 80 218 80 257 80 c 1,52,53
 257 486 257 486 257 622 c 1,54,55
 140 622 140 622 100 622 c 1,56,57
 100 681 100 681 100 701 c 1,58,59
 411 701 411 701 515 701 c 1,60,61
 515 642 515 642 515 622 c 1,62,63
 398 622 398 622 358 622 c 1,64,65
 358 215 358 215 358 80 c 1,66,67
 476 80 476 80 515 80 c 1,68,69
 515 20 515 20 515 0 c 1,70,71
 204 0 204 0 100 0 c 1,48,49
EndSplineSet
Validated: 1
EndChar

StartChar: Eth
Encoding: 208 208 146
Width: 614
GlyphClass: 1
Flags: W
LayerCount: 2
Fore
SplineSet
67 0 m 1,0,1
 67 250 67 250 67 333 c 1,2,3
 20 333 20 333 4 333 c 1,4,5
 4 386 4 386 4 403 c 1,6,7
 51 403 51 403 67 403 c 1,8,9
 67 627 67 627 67 701 c 1,10,11
 168 701 168 701 218 701 c 0,12,13
 303 701 303 701 366 680 c 256,14,15
 429 659 429 659 470 616 c 256,16,17
 511 573 511 573 531 507 c 0,18,19
 551 440 551 440 551 350 c 256,20,21
 551 260 551 260 531 195 c 0,22,23
 511 129 511 129 470 86 c 0,24,25
 449 65 449 65 423 48 c 256,26,27
 397 31 397 31 366 20 c 0,28,29
 334 10 334 10 297 5 c 256,30,31
 260 0 260 0 218 0 c 0,32,33
 104 0 104 0 67 0 c 1,0,1
170 78 m 1,34,35
 202 78 202 78 218 78 c 0,36,37
 253 78 253 78 280 82 c 0,38,39
 308 86 308 86 329 93 c 0,40,41
 349 101 349 101 366 112 c 256,42,43
 383 123 383 123 395 137 c 0,44,45
 408 153 408 153 418 173 c 0,46,47
 428 194 428 194 434 220 c 256,48,49
 440 246 440 246 443 279 c 0,50,51
 446 311 446 311 446 351 c 0,52,53
 446 393 446 393 443 426 c 0,54,55
 440 460 440 460 434 484 c 0,56,57
 428 509 428 509 418 529 c 0,58,59
 409 549 409 549 396 564 c 0,60,61
 383 580 383 580 366 591 c 0,62,63
 348 602 348 602 327 609 c 0,64,65
 305 616 305 616 278 620 c 0,66,67
 250 624 250 624 218 624 c 0,68,69
 182 624 182 624 170 624 c 1,70,71
 170 458 170 458 170 403 c 1,72,73
 269 403 269 403 302 403 c 1,74,75
 302 350 302 350 302 333 c 1,76,77
 203 333 203 333 170 333 c 1,78,79
 170 142 170 142 170 78 c 1,34,35
EndSplineSet
Validated: 1
EndChar

